<svg width="92" height="205" viewBox="0 0 92 205" fill="none" xmlns="http://www.w3.org/2000/svg">
<g clip-path="url(#clip0_1415_2886)">
<path d="M1.17676 198.614H1.87224V201.368H2.87088L5.42991 198.614H6.33047L3.45937 201.637L6.46422 204.892H5.53691L2.89763 202.004H1.87224V204.892H1.17676V198.614Z" fill="white"/>
<path d="M11.761 203.117C11.761 202.435 11.2081 202.04 10.1293 202.04H8.19438V204.256H10.2541C11.1903 204.256 11.761 203.843 11.761 203.134V203.117ZM11.4221 200.273C11.4221 199.655 10.9406 199.251 10.0668 199.251H8.2033V201.412H10.0133C10.8515 201.412 11.4221 201.036 11.4221 200.291V200.273ZM7.51673 198.614H10.1293C10.8337 198.614 11.3865 198.82 11.7342 199.17C11.9928 199.448 12.1265 199.789 12.1265 200.175V200.193C12.1265 201.009 11.6361 201.43 11.1546 201.646C11.8858 201.861 12.4654 202.309 12.4654 203.161V203.179C12.4654 204.256 11.5826 204.892 10.2362 204.892H7.50781V198.614H7.51673Z" fill="white"/>
<path d="M17.7169 202.596L16.326 199.394L14.9261 202.596H17.7258H17.7169ZM16.005 198.569H16.6559L19.4556 204.892H18.7067L17.9844 203.233H14.6408L13.9096 204.892H13.1963L15.9961 198.569H16.005Z" fill="white"/>
<path d="M22.8709 202.031C23.8874 202.031 24.5562 201.475 24.5562 200.65V200.632C24.5562 199.735 23.8963 199.269 22.9066 199.269H21.3552V202.031H22.8709ZM20.6597 198.614H22.9601C24.3422 198.614 25.2606 199.368 25.2606 200.605V200.623C25.2606 201.978 24.1549 202.677 22.8531 202.677H21.3641V204.892H20.6686V198.614H20.6597Z" fill="white"/>
<path d="M28.1135 199.269H26.0449V198.614H30.8776V199.269H28.809V204.892H28.1135V199.269Z" fill="white"/>
<path d="M35.3624 202.596L33.9715 199.394L32.5716 202.596H35.3714H35.3624ZM33.6505 198.569H34.3014L37.1011 204.892H36.3522L35.6299 203.233H32.2863L31.5551 204.892H30.8418L33.6416 198.569H33.6505Z" fill="white"/>
<path d="M43.6904 204.892H42.9236L40.6321 199.511L38.3584 204.892H37.6094L40.3378 198.569H40.962L43.6904 204.892Z" fill="white"/>
<path d="M50.6724 198.614H51.3679V204.892H50.6724V198.614ZM47.1058 204.238C48.1045 204.238 48.791 203.717 48.791 202.883V202.865C48.791 201.995 48.1312 201.529 47.1504 201.529H45.59V204.238H47.1058ZM44.8945 198.614H45.59V200.883H47.1771C48.5503 200.883 49.4954 201.583 49.4954 202.839V202.856C49.4954 204.175 48.4522 204.892 47.088 204.892H44.9034V198.614H44.8945Z" fill="white"/>
<path d="M56.4769 204.892L57.7519 202.722L55.1572 198.614H55.9508L58.1353 202.103L60.0791 198.614H60.8727L57.2526 204.892H56.4769Z" fill="white"/>
<path d="M64.582 198.614H65.2775L67.5155 202.04L69.7536 198.614H70.4491V204.892H69.7625V199.807L67.5245 203.17H67.4888L65.2508 199.816V204.892H64.582V198.614Z" fill="white"/>
<path d="M77.457 201.771V201.753C77.457 200.327 76.4406 199.161 75.0407 199.161C73.6408 199.161 72.6422 200.309 72.6422 201.735V201.753C72.6422 203.179 73.6586 204.345 75.0585 204.345C76.4584 204.345 77.457 203.197 77.457 201.771ZM71.9199 201.771V201.753C71.9199 200.022 73.195 198.507 75.0585 198.507C76.9221 198.507 78.1793 200.004 78.1793 201.735V201.753C78.1793 203.484 76.9042 205 75.0407 205C73.1771 205 71.9199 203.502 71.9199 201.771Z" fill="white"/>
<path d="M81.8441 202.031C82.8606 202.031 83.5293 201.475 83.5293 200.65V200.632C83.5293 199.735 82.8695 199.269 81.8798 199.269H80.3283V202.031H81.8441ZM79.6328 198.614H81.9333C83.3153 198.614 84.2337 199.368 84.2337 200.605V200.623C84.2337 201.978 83.1281 202.677 81.8263 202.677H80.3372V204.892H79.6417V198.614H79.6328Z" fill="white"/>
<path d="M87.5062 199.269C86.5165 199.269 85.9459 199.753 85.9459 200.516C85.9459 201.386 86.6503 201.816 87.6043 201.816H89.4054V199.269H87.5062ZM90.1009 204.892H89.4054V202.453H87.7113L85.8656 204.892H85.0186L86.9356 202.372C85.9548 202.202 85.2325 201.556 85.2325 200.516C85.2325 199.332 86.1242 198.614 87.5508 198.614H90.092V204.892H90.1009Z" fill="white"/>
<path d="M0.722295 163.95C0.722295 160.237 3.82522 155.071 10.8781 154.497L10.9406 154.407C10.8514 153.528 10.5839 152.595 9.99541 152.443C9.67442 152.353 9.29101 152.326 9.07701 152.326C8.9611 152.326 8.84519 152.263 8.84519 152.147C8.84519 151.967 8.99677 151.905 9.31776 151.905C10.2897 151.905 12.1532 151.994 12.2959 151.994C12.4385 151.994 14.3021 151.905 15.1848 151.905C15.5058 151.905 15.6574 151.967 15.6574 152.147C15.6574 152.263 15.5414 152.326 15.4255 152.326C15.2205 152.326 15.0421 152.353 14.6855 152.416C13.9454 152.568 13.7403 153.501 13.6512 154.407L13.7136 154.497C19.5271 154.945 23.7178 158.299 23.7178 163.43C23.7178 168.56 19.7946 172.578 13.7403 173.241L13.6779 173.331C13.7938 174.416 13.6155 175.717 14.8281 175.896C15.2383 175.959 15.8892 176.013 16.1567 176.013C16.335 176.013 16.3885 176.103 16.3885 176.192C16.3885 176.345 16.2369 176.434 15.9159 176.434C14.2931 176.434 12.4296 176.345 12.2869 176.345C12.1443 176.345 10.2807 176.434 9.39801 176.434C9.07701 176.434 8.92544 176.372 8.92544 176.192C8.92544 176.103 8.98785 176.013 9.15726 176.013C9.42476 176.013 9.78141 175.95 10.04 175.896C10.9227 175.681 10.7801 174.389 10.9851 173.331L10.9227 173.241C3.93222 172.73 0.713379 168.075 0.713379 163.941L0.722295 163.95ZM10.6998 172.345C10.8514 172.407 10.9941 172.345 10.9941 172.076C11.0565 170.721 11.0565 168.999 11.0565 166.82V156.497L10.9941 155.501C11.0208 155.286 10.8781 155.286 10.7622 155.322C6.54474 155.869 3.35265 158.73 3.35265 163.591C3.35265 168.452 6.57149 171.475 10.6998 172.345ZM13.5352 166.82C13.5352 169.089 13.5085 170.928 13.5977 172.282C13.5977 172.345 13.6601 172.398 13.7136 172.398C15.9873 172.336 21.0875 170.56 21.0875 164.183C21.0875 159.438 18.0737 156.398 14.4804 155.519C14.2486 155.456 14.0346 155.403 13.8919 155.456C13.6868 155.546 13.5977 155.609 13.5709 156.362L13.5442 156.873V166.802L13.5352 166.82Z" fill="white"/>
<path d="M39.0006 152.326C45.6434 152.326 50.6009 156.613 50.6009 163.645C50.6009 170.676 45.9376 175.995 38.8223 175.995C30.735 175.995 27.3735 169.564 27.3735 164.129C27.3735 159.241 30.8599 152.326 39.0006 152.326ZM39.6158 174.847C42.2729 174.847 47.7566 173.277 47.7566 164.488C47.7566 157.241 43.4499 153.349 38.7866 153.349C33.8558 153.349 30.1733 156.667 30.1733 163.286C30.1733 170.318 34.3016 174.847 39.6158 174.847Z" fill="white"/>
<path d="M57.7432 161.501C57.7432 156.793 57.7432 155.95 57.6808 154.981C57.6184 153.959 57.3866 153.474 56.4147 153.259C56.1829 153.196 55.6746 153.169 55.4071 153.169C55.2912 153.169 55.1753 153.106 55.1753 152.99C55.1753 152.811 55.3269 152.748 55.6479 152.748C56.9764 152.748 58.7508 152.837 58.9826 152.837C59.6335 152.837 61.3455 152.748 62.7008 152.748C66.3922 152.748 67.7207 154.012 68.1933 154.47C68.8442 155.107 69.6645 156.461 69.6645 158.066C69.6645 162.353 66.5973 165.25 62.4065 165.25C62.255 165.25 61.934 165.25 61.7824 165.223C61.6308 165.223 61.4614 165.161 61.4614 165.008C61.4614 164.766 61.6397 164.739 62.255 164.739C65.1171 164.739 67.3641 162.595 67.3641 159.815C67.3641 158.82 67.2749 156.793 65.7145 155.169C64.1542 153.537 62.353 153.663 61.6754 153.663C61.1761 153.663 60.6678 153.725 60.4093 153.842C60.2309 153.905 60.1774 154.111 60.1774 154.416V166.82C60.1774 169.717 60.1774 172.102 60.329 173.367C60.4182 174.246 60.5965 174.91 61.4792 175.026C61.8894 175.089 62.5403 175.143 62.8078 175.143C62.9861 175.143 63.0396 175.233 63.0396 175.322C63.0396 175.475 62.888 175.564 62.567 175.564C60.9442 175.564 59.0807 175.475 58.938 175.475C58.8489 175.475 56.9942 175.564 56.1026 175.564C55.7816 175.564 55.63 175.502 55.63 175.322C55.63 175.233 55.6924 175.143 55.8619 175.143C56.1294 175.143 56.4771 175.08 56.7446 175.026C57.3331 174.91 57.4847 174.237 57.6006 173.367C57.7521 172.102 57.7521 169.717 57.7521 166.82V161.51L57.7432 161.501Z" fill="white"/>
<path d="M82.9767 166.811C82.9767 169.708 82.9767 172.093 83.1282 173.358C83.2174 174.237 83.3957 174.901 84.2785 175.017C84.6886 175.08 85.3395 175.134 85.607 175.134C85.7854 175.134 85.8388 175.224 85.8388 175.313C85.8388 175.466 85.6873 175.555 85.3663 175.555C83.7435 175.555 81.8799 175.466 81.7373 175.466C81.5946 175.466 79.7311 175.555 78.8483 175.555C78.5274 175.555 78.3758 175.493 78.3758 175.313C78.3758 175.224 78.4382 175.134 78.6076 175.134C78.8751 175.134 79.2228 175.071 79.4903 175.017C80.0788 174.901 80.2304 174.228 80.3463 173.358C80.4979 172.093 80.4979 169.708 80.4979 166.811V154.039L76.1288 154.102C74.301 154.129 73.5876 154.344 73.1151 155.071C72.7941 155.582 72.7049 155.797 72.6157 156.003C72.5266 156.246 72.4374 156.308 72.3215 156.308C72.2323 156.308 72.1699 156.219 72.1699 156.039C72.1699 155.734 72.7584 153.142 72.8208 152.9C72.8832 152.721 72.9992 152.326 73.1151 152.326C73.3201 152.326 73.6144 152.631 74.4169 152.685C75.2728 152.775 76.3963 152.837 76.7441 152.837H87.8094C89.6997 152.837 90.4932 152.533 90.734 152.533C90.8856 152.533 90.8856 152.712 90.8856 152.891C90.8856 153.797 90.7964 155.878 90.7964 156.21C90.7964 156.479 90.7072 156.604 90.5913 156.604C90.4397 156.604 90.3862 156.515 90.3595 156.093L90.3327 155.761C90.2168 154.855 89.5392 154.165 86.7037 154.102L82.9856 154.039V166.811H82.9767Z" fill="white"/>
<path d="M2.8531 128.927C2.8531 124.218 2.8531 123.375 2.79068 122.406C2.72827 121.384 2.49644 120.899 1.52454 120.684C1.29272 120.621 0.784478 120.595 0.516984 120.595C0.40107 120.595 0.285156 120.532 0.285156 120.415C0.285156 120.236 0.436736 120.173 0.757728 120.173C2.08628 120.173 3.82499 120.263 4.00332 120.263C4.27081 120.263 5.98277 120.173 6.8655 120.173C7.18649 120.173 7.33807 120.236 7.33807 120.415C7.33807 120.532 7.22216 120.595 7.10625 120.595C6.90117 120.595 6.72284 120.621 6.36618 120.684C5.57261 120.837 5.33187 121.348 5.27837 122.406C5.21596 123.375 5.21596 124.218 5.21596 128.927V130.738H5.33187C5.83119 130.164 11.1721 124.613 12.2332 123.429C13.0624 122.55 13.8293 121.769 13.8293 121.258C13.8293 120.899 13.6777 120.711 13.4458 120.621C13.2943 120.559 13.1784 120.505 13.1784 120.379C13.1784 120.227 13.3299 120.164 13.535 120.164C14.1235 120.164 15.0419 120.254 15.7463 120.254C15.8979 120.254 17.8417 120.164 18.5817 120.164C18.9027 120.164 19.0275 120.227 19.0275 120.379C19.0275 120.532 18.9651 120.595 18.7333 120.595C18.2875 120.595 17.6722 120.747 17.0838 121.016C15.8711 121.563 15.2202 122.317 13.9006 123.608C13.1605 124.335 8.02464 129.465 7.4094 130.218C8.17622 131.097 14.3107 137.581 15.5234 138.729C18.0022 141.088 18.5015 141.564 19.9192 142.173C20.686 142.505 21.542 142.568 21.7471 142.568C21.9521 142.568 22.1305 142.631 22.1305 142.747C22.1305 142.9 21.9789 142.99 21.4796 142.99H19.9727C19.1435 142.99 18.5817 142.99 17.9397 142.927C16.3794 142.774 15.6393 142.111 14.3732 141.088C13.0446 139.967 6.78525 133.061 5.37645 131.276H5.22487V134.236C5.22487 137.133 5.22487 139.519 5.37645 140.783C5.46562 141.662 5.64395 142.326 6.52668 142.443C6.93683 142.505 7.4094 142.559 7.6769 142.559C7.85523 142.559 7.91764 142.649 7.91764 142.738C7.91764 142.891 7.76606 142.981 7.44507 142.981C6.00061 142.981 4.28864 142.891 4.0479 142.891C3.80716 142.891 2.10411 142.981 1.21247 142.981C0.891475 142.981 0.739895 142.918 0.739895 142.738C0.739895 142.649 0.802311 142.559 0.971723 142.559C1.23922 142.559 1.58696 142.496 1.85445 142.443C2.44294 142.326 2.59452 141.653 2.71043 140.783C2.86201 139.519 2.86201 137.133 2.86201 134.236V128.927H2.8531Z" fill="white"/>
<path d="M25.046 128.927C25.046 124.218 25.046 123.375 24.9836 122.406C24.9211 121.384 24.6893 120.899 23.7174 120.684C23.4856 120.621 22.9773 120.595 22.7099 120.595C22.5939 120.595 22.478 120.532 22.478 120.415C22.478 120.236 22.6296 120.173 22.9506 120.173C24.2792 120.173 26.0535 120.263 26.2854 120.263C26.9363 120.263 28.6482 120.173 30.0035 120.173C33.6949 120.173 35.0235 121.438 35.4961 121.895C36.147 122.532 36.9673 123.886 36.9673 125.491C36.9673 129.779 33.9 132.675 29.7093 132.675C29.5577 132.675 29.2367 132.675 29.0851 132.649C28.9335 132.649 28.7641 132.586 28.7641 132.433C28.7641 132.191 28.9425 132.164 29.5577 132.164C32.4199 132.164 34.6668 130.021 34.6668 127.24C34.6668 126.245 34.5777 124.218 33.0173 122.595C31.4569 120.962 29.6558 121.088 28.9781 121.088C28.4788 121.088 27.9706 121.151 27.712 121.267C27.5337 121.33 27.4802 121.536 27.4802 121.841V134.245C27.4802 137.142 27.4802 139.528 27.6317 140.792C27.7209 141.671 27.8992 142.335 28.782 142.451C29.1921 142.514 29.843 142.568 30.1105 142.568C30.2888 142.568 30.3423 142.658 30.3423 142.747C30.3423 142.9 30.1908 142.99 29.8698 142.99C28.247 142.99 26.3834 142.9 26.2408 142.9C26.1516 142.9 24.297 142.99 23.4053 142.99C23.0843 142.99 22.9328 142.927 22.9328 142.747C22.9328 142.658 22.9952 142.568 23.1646 142.568C23.4321 142.568 23.7798 142.505 24.0473 142.451C24.6358 142.335 24.7874 141.662 24.9033 140.792C25.0549 139.528 25.0549 137.142 25.0549 134.245V128.935L25.046 128.927Z" fill="white"/>
<path d="M52.2501 119.751C58.8929 119.751 63.8504 124.039 63.8504 131.07C63.8504 138.102 59.1871 143.42 52.0718 143.42C43.9846 143.42 40.623 136.989 40.623 131.554C40.623 126.666 44.1094 119.751 52.2501 119.751ZM52.8653 142.272C55.5224 142.272 61.0061 140.703 61.0061 131.913C61.0061 124.666 56.6994 120.774 52.0361 120.774C47.1053 120.774 43.4228 124.092 43.4228 130.711C43.4228 137.743 47.5511 142.272 52.8653 142.272Z" fill="white"/>
<path d="M88.8166 134.236C88.8166 137.133 88.8166 139.519 88.9682 140.783C89.0574 141.662 89.2357 142.326 90.1184 142.443C90.5286 142.505 91.1795 142.559 91.447 142.559C91.6253 142.559 91.6877 142.649 91.6877 142.738C91.6877 142.891 91.5361 142.981 91.2151 142.981C89.5924 142.981 87.7288 142.891 87.5861 142.891C87.4435 142.891 85.5799 142.981 84.6972 142.981C84.3762 142.981 84.2246 142.918 84.2246 142.738C84.2246 142.649 84.2871 142.559 84.4565 142.559C84.724 142.559 85.0806 142.496 85.3392 142.443C85.9277 142.326 86.0793 141.653 86.1952 140.783C86.3468 139.519 86.3468 137.133 86.3468 134.236V131.402C86.3468 131.285 86.2576 131.223 86.1684 131.223H73.6586C73.5695 131.223 73.4803 131.249 73.4803 131.402V134.236C73.4803 137.133 73.4803 139.519 73.6319 140.783C73.7211 141.662 73.8994 142.326 74.7821 142.443C75.1923 142.505 75.8432 142.559 76.1107 142.559C76.289 142.559 76.3425 142.649 76.3425 142.738C76.3425 142.891 76.1909 142.981 75.8699 142.981C74.2471 142.981 72.3836 142.891 72.2409 142.891C72.0983 142.891 70.2347 142.981 69.352 142.981C69.031 142.981 68.8794 142.918 68.8794 142.738C68.8794 142.649 68.9418 142.559 69.1112 142.559C69.3787 142.559 69.7265 142.496 69.994 142.443C70.5825 142.326 70.734 141.653 70.85 140.783C71.0015 139.519 71.0015 137.133 71.0015 134.236V128.927C71.0015 124.218 71.0015 123.375 70.9391 122.406C70.8767 121.384 70.6449 120.899 69.673 120.684C69.4412 120.621 68.9329 120.595 68.6654 120.595C68.5495 120.595 68.4336 120.532 68.4336 120.415C68.4336 120.236 68.5852 120.173 68.9062 120.173C70.2347 120.173 72.0893 120.263 72.2409 120.263C72.3925 120.263 74.2471 120.173 75.1299 120.173C75.4508 120.173 75.6024 120.236 75.6024 120.415C75.6024 120.532 75.4865 120.595 75.3706 120.595C75.1655 120.595 74.9872 120.621 74.6305 120.684C73.837 120.837 73.5962 121.348 73.5427 122.406C73.4803 123.375 73.4803 124.55 73.4803 129.258V129.895C73.4803 130.048 73.5695 130.075 73.6586 130.075H86.1684C86.2576 130.075 86.3468 130.048 86.3468 129.895V129.258C86.3468 124.55 86.3468 123.375 86.2843 122.406C86.2219 121.384 85.9901 120.899 85.0182 120.684C84.7864 120.621 84.2781 120.595 84.0196 120.595C83.9037 120.595 83.7788 120.532 83.7788 120.415C83.7788 120.236 83.9304 120.173 84.2514 120.173C85.5799 120.173 87.4346 120.263 87.5861 120.263C87.7377 120.263 89.5923 120.173 90.4751 120.173C90.7961 120.173 90.9476 120.236 90.9476 120.415C90.9476 120.532 90.8317 120.595 90.7158 120.595C90.5107 120.595 90.3324 120.621 89.9758 120.684C89.1822 120.837 88.9414 121.348 88.8879 122.406C88.8255 123.375 88.8255 124.218 88.8255 128.927V134.236H88.8166Z" fill="white"/>
<path d="M1.11475 185.923H89.7889" stroke="#D38F6D" stroke-miterlimit="10"/>
<path d="M92 9.56061V4.42149C81.5142 1.00437 71.0642 -3.0585 60.0256 3.84748C39.3394 16.637 20.6862 -9.01379 0 3.59636V18.4218C18.1182 -1.33649 43.5301 18.7357 60.0345 4.56499C60.0345 8.43951 60.0345 15.3455 60.0345 18.8074C50.8684 15.8388 41.6666 13.4979 32.0279 19.5339C20.9804 26.3592 10.5125 22.2246 0.00891646 18.8164V24.9152C11.5825 25.5699 23.1115 27.9198 32.0279 20.2514V34.4939C21.5243 31.0768 11.0564 26.978 0.00891646 33.8661V48.8081C18.145 28.6104 43.7085 48.9157 60.2842 34.6912V48.9157C51.0378 45.9112 41.7647 43.4717 32.0368 49.5615C20.9893 56.3957 10.5214 52.2611 0.00891646 48.844V54.9428C11.5825 55.5975 23.1025 57.9384 32.0279 50.279V64.5304C21.5243 61.1223 11.0564 56.9428 0.00891646 63.6784V78.5128C18.1272 58.7545 43.5391 78.8177 60.0434 64.656C60.0434 68.5305 60.0434 75.4096 60.0434 78.8805C50.8951 75.9208 41.7201 73.5979 32.0903 79.6249C21.025 86.4592 10.5393 82.2976 0.00891646 78.8805V84.9972C11.6003 85.643 23.1471 88.0108 32.0903 80.3424V94.5939C50.0837 74.4768 75.4154 94.3517 92.0089 80.755V79.9478C80.9882 86.504 70.547 82.2797 60.0523 78.8895C69.4681 68.387 80.8812 68.8085 92.0089 69.6516V64.5125C81.5232 61.0954 71.0731 57.0325 60.0345 63.9385C50.3958 69.8938 41.194 67.4991 32.0279 64.5304C50.0481 44.3865 75.4154 64.3331 92.0089 50.6377V49.8485C81.0684 56.3957 70.6986 52.3059 60.2931 48.9247C69.6375 38.494 80.9614 38.8348 92.0089 39.6689V34.467C81.6034 31.0678 71.2247 27.1215 60.2752 33.9737C50.5474 39.9828 41.2743 37.4984 32.0368 34.4939C50.057 14.3679 75.4154 34.3055 92.0089 20.6102V19.812C80.9882 26.413 70.5381 22.1977 60.0434 18.8074C69.4592 8.28704 80.8812 8.70857 92.0089 9.56061" fill="#D38F6D"/>
</g>
<defs>
<clipPath id="clip0_1415_2886">
<rect width="92" height="205" fill="white"/>
</clipPath>
</defs>
</svg>
