<svg width="169" height="110" viewBox="0 0 169 110" fill="none" xmlns="http://www.w3.org/2000/svg">
<path d="M112.855 0.869471V55.4344H168.954C168.954 25.323 143.822 0.869471 112.862 0.869471H112.855Z" fill="currentColor"/>
<path d="M56.7632 0.869471V55.4344H112.862C112.862 25.323 87.7303 0.869471 56.7695 0.869471H56.7632Z" fill="currentColor"/>
<path d="M0.695435 55.4343V109.999H56.7946C56.7946 79.8879 31.6626 55.4343 0.701739 55.4343H0.695435Z" fill="currentColor"/>
<path d="M112.855 55.4344V109.999H168.954C168.954 79.8879 143.823 55.4344 112.862 55.4344H112.855Z" fill="currentColor"/>
<path d="M0.689294 28.1438V55.4342H28.7471C28.7471 40.3741 16.1774 28.1438 0.692447 28.1438H0.689294Z" fill="currentColor"/>
<path d="M28.7497 55.4343H56.8075V28.1439H56.8044C41.3226 28.1439 28.7497 40.3712 28.7497 55.4343Z" fill="currentColor"/>
<path d="M56.8077 28.1517L56.8077 0.861289L28.7499 0.861292C28.7499 15.9213 41.3196 28.1517 56.8045 28.1517H56.8077Z" fill="currentColor"/>
<path d="M28.7465 0.861206L0.688721 0.861208L0.688723 28.1516H0.691863C16.1737 28.1516 28.7465 15.9243 28.7465 0.861206Z" fill="currentColor"/>
<path d="M56.7635 82.7097V110H84.8213C84.8213 94.94 72.2516 82.7097 56.7667 82.7097H56.7635Z" fill="currentColor"/>
<path d="M84.8244 110H112.882V82.7093H112.879C97.3973 82.7093 84.8244 94.9365 84.8244 110Z" fill="currentColor"/>
<path d="M112.882 82.7175V55.4271L84.8237 55.4271C84.8237 70.4871 97.3934 82.7175 112.878 82.7175H112.882Z" fill="currentColor"/>
<path d="M84.8206 55.427L56.7628 55.427V82.7174H56.7659C72.2477 82.7174 84.8206 70.4901 84.8206 55.427Z" fill="currentColor"/>
</svg>
