<svg width="30" height="30" viewBox="0 0 30 30" fill="none" xmlns="http://www.w3.org/2000/svg">
  <circle cx="15" cy="15" r="15" transform="rotate(-180 15 15)" fill="#F47422"/>
  <path d="M19.0211 14.6605C19.0211 14.781 19.0019 14.8932 18.9634 14.997C18.925 15.1009 18.8589 15.1996 18.7653 15.2932L14.2711 19.7874C14.1327 19.9259 13.9586 19.9967 13.749 19.9999C13.5394 20.0031 13.3622 19.9323 13.2173 19.7874C13.0724 19.6425 13 19.4669 13 19.2605C13 19.0541 13.0724 18.8785 13.2173 18.7336L17.2904 14.6605L13.2173 10.5874C13.0788 10.4489 13.008 10.2749 13.0048 10.0653C13.0016 9.8557 13.0724 9.67846 13.2173 9.5336C13.3622 9.38871 13.5378 9.31627 13.7442 9.31627C13.9506 9.31627 14.1263 9.38871 14.2711 9.5336L18.7653 14.0278C18.8589 14.1214 18.925 14.2201 18.9634 14.324C19.0019 14.4278 19.0211 14.54 19.0211 14.6605Z" fill="white"/>
</svg>
