<svg width="30" height="30" viewBox="0 0 30 30" fill="none" xmlns="http://www.w3.org/2000/svg">
  <circle cx="15" cy="15" r="15" transform="rotate(-180 15 15)" fill="#F47422"/>
  <path d="M10.9984 14.6559C10.9984 14.5354 11.0176 14.4232 11.0561 14.3194C11.0946 14.2155 11.1606 14.1168 11.2542 14.0232L15.7484 9.52901C15.8869 9.39054 16.0609 9.31971 16.2705 9.31651C16.4801 9.31329 16.6574 9.38413 16.8022 9.52901C16.9471 9.67388 17.0195 9.84951 17.0195 10.0559C17.0195 10.2623 16.9471 10.4379 16.8022 10.5828L12.7291 14.6559L16.8022 18.729C16.9407 18.8675 17.0115 19.0415 17.0147 19.2511C17.0179 19.4607 16.9471 19.6379 16.8022 19.7828C16.6574 19.9277 16.4817 20.0001 16.2753 20.0001C16.0689 20.0001 15.8933 19.9277 15.7484 19.7828L11.2542 15.2886C11.1606 15.195 11.0946 15.0963 11.0561 14.9924C11.0176 14.8886 10.9984 14.7764 10.9984 14.6559Z" fill="white"/>
</svg>
