<svg width="14" height="14" viewBox="0 0 14 14" fill="none" xmlns="http://www.w3.org/2000/svg">
<path d="M6.65951 10.5501L7.51514 9.69275L4.95162 7.13463L7.51008 4.57145L6.65277 3.71582L3.23902 7.13631L6.65951 10.5501Z" fill="#D38F6D"/>
<path d="M4.09588 6.52612H10.7866V7.73748H4.09588V6.52612Z" fill="#D38F6D"/>
<path d="M7.0066 14C10.8664 13.9959 14.0032 10.853 13.9995 6.99291C13.9958 3.13315 10.8525 -0.0037022 6.99279 3.2795e-06C3.13303 0.00370876 -0.00416088 3.14696 -0.000118256 7.00672C0.00358677 10.8665 3.14684 14.0037 7.0066 13.9996V14ZM6.99414 1.19216C10.1967 1.18912 12.8047 3.79205 12.8077 6.99426C12.8107 10.1968 10.2078 12.8048 7.00559 12.8078C3.80305 12.8108 1.19507 10.2079 1.19203 7.00571C1.189 3.80317 3.79193 1.19519 6.99414 1.19216Z" fill="#D38F6D"/>
</svg>
