<svg width="23" height="23" viewBox="0 0 23 23" fill="none" xmlns="http://www.w3.org/2000/svg">
  <path fill-rule="evenodd" clip-rule="evenodd" d="M11.5 0C17.8512 0 23 5.14859 23 11.5C23 17.8514 17.8514 23 11.5 23C5.14859 23 0 17.8512 0 11.5C0 5.14885 5.14859 0 11.5 0ZM17.6393 15.6223L14.7271 12.8288C14.5408 12.6503 14.2453 12.6534 14.0629 12.8357L12.7448 14.1538C11.0615 13.1423 9.73855 11.8601 8.84643 10.2554L10.1645 8.93736C10.3469 8.75499 10.3499 8.45941 10.1714 8.2732L7.378 5.36093C7.2863 5.26539 7.17284 5.21621 7.04041 5.21493C6.90799 5.21365 6.7935 5.26027 6.69975 5.35401C6.38317 5.6706 6.19516 5.8586 5.76281 6.29096C2.65997 9.39379 13.6067 20.3405 16.7096 17.2377C17.1419 16.8053 17.3299 16.6173 17.6465 16.3008C17.7402 16.207 17.7869 16.0925 17.7856 15.9601C17.7843 15.8277 17.7351 15.7142 17.6396 15.6225L17.6393 15.6223Z" fill="currentColor" />
</svg>
