<svg width="32" height="32" viewBox="0 0 32 32" fill="none" xmlns="http://www.w3.org/2000/svg">
<path d="M16.0013 17.4744L21.3881 22.8611C21.5889 23.062 21.8319 23.1651 22.1172 23.1704C22.4024 23.1757 22.6508 23.0727 22.8623 22.8611C23.0739 22.6496 23.1796 22.4039 23.1796 22.124C23.1796 21.8441 23.0739 21.5984 22.8623 21.3868L17.4756 16L22.8623 10.6132C23.0632 10.4124 23.1663 10.1694 23.1716 9.88412C23.177 9.59888 23.0739 9.35048 22.8623 9.13896C22.6508 8.92743 22.4051 8.82167 22.1252 8.82167C21.8453 8.82167 21.5996 8.92743 21.3881 9.13896L16.0013 14.5257L10.6145 9.13896C10.4136 8.9381 10.1706 8.835 9.88534 8.82967C9.60009 8.82433 9.35171 8.92743 9.14018 9.13896C8.92865 9.35048 8.82289 9.59621 8.82289 9.87612C8.82289 10.156 8.92865 10.4017 9.14018 10.6132L14.5269 16L9.14018 21.3868C8.93932 21.5877 8.83622 21.8307 8.83089 22.116C8.82555 22.4012 8.92865 22.6496 9.14018 22.8611C9.35171 23.0727 9.59743 23.1784 9.87734 23.1784C10.1572 23.1784 10.4029 23.0727 10.6145 22.8611L16.0013 17.4744ZM16.0041 31.8333C13.8256 31.8333 11.7746 31.4178 9.8513 30.5867C7.92797 29.7556 6.24898 28.623 4.81434 27.189C3.37971 25.755 2.24665 24.0768 1.41518 22.1543C0.583705 20.2318 0.167969 18.1813 0.167969 16.0028C0.167969 13.8129 0.583525 11.7546 1.41464 9.82767C2.24575 7.90075 3.3783 6.22461 4.8123 4.79925C6.2463 3.37386 7.92454 2.24543 9.84701 1.41396C11.7695 0.582486 13.82 0.166748 15.9985 0.166748C18.1884 0.166748 20.2467 0.582305 22.1736 1.41342C24.1006 2.24453 25.7767 3.37244 27.2021 4.79716C28.6274 6.22192 29.7559 7.89732 30.5873 9.82337C31.4188 11.7494 31.8346 13.8074 31.8346 15.9972C31.8346 18.1758 31.419 20.2267 30.5879 22.15C29.7568 24.0733 28.6289 25.7523 27.2041 27.187C25.7794 28.6216 24.104 29.7547 22.1779 30.5861C20.2519 31.4176 18.1939 31.8333 16.0041 31.8333ZM16.0013 29.7394C19.8289 29.7394 23.0757 28.4035 25.7416 25.7319C28.4076 23.0602 29.7406 19.8163 29.7406 16C29.7406 12.1724 28.4076 8.92561 25.7416 6.25967C23.0757 3.59369 19.8289 2.26071 16.0013 2.26071C12.185 2.26071 8.94107 3.59369 6.26943 6.25967C3.59776 8.92561 2.26193 12.1724 2.26193 16C2.26193 19.8163 3.59776 23.0602 6.26943 25.7319C8.94107 28.4035 12.185 29.7394 16.0013 29.7394Z" fill="currentColor"/>
</svg>
