<svg width="100" height="223" viewBox="0 0 100 223" fill="none" xmlns="http://www.w3.org/2000/svg">
<g clip-path="url(#clip0_1415_3327)">
<path d="M2.48779 210.903H2.94012V213.655H4.14054L6.83713 210.903H7.44604L4.54068 213.846L7.56782 216.999H6.94152L4.15794 214.073H2.94012V216.999H2.48779V210.903Z" fill="#1D1D1B"/>
<path d="M13.4829 215.309C13.4829 214.56 12.8392 214.125 11.6388 214.125H9.58594V216.563H11.7954C12.8392 216.563 13.5003 216.075 13.5003 215.327L13.4829 215.309ZM13.1524 212.418C13.1524 211.756 12.6131 211.304 11.6388 211.304H9.58594V213.689H11.5866C12.4913 213.689 13.1524 213.237 13.1524 212.436V212.418ZM9.13361 210.868H11.6388C12.3347 210.868 12.874 211.077 13.222 211.408C13.4829 211.669 13.6047 212 13.6047 212.366C13.6047 213.219 13.0654 213.62 12.5783 213.829C13.309 214.02 13.9527 214.438 13.9527 215.274C13.9527 216.302 13.0828 216.946 11.778 216.946H9.13361V210.868Z" fill="#1D1D1B"/>
<path d="M19.8156 214.874L18.215 211.356L16.6145 214.874H19.8156ZM18.0062 210.851H18.4412L21.2769 216.981H20.7724L20.0069 215.274H16.4231L15.6576 216.981H15.1879L18.0236 210.851H18.0062Z" fill="#1D1D1B"/>
<path d="M25.1218 214.299C26.2526 214.299 27.0181 213.724 27.0181 212.801C27.0181 211.826 26.27 211.321 25.174 211.321H23.4517V214.299H25.1218ZM22.9993 210.903H25.2088C26.5484 210.903 27.4704 211.582 27.4704 212.767C27.4704 214.073 26.3744 214.717 25.1044 214.717H23.4691V216.981H23.0167V210.903H22.9993Z" fill="#1D1D1B"/>
<path d="M30.8629 211.321H28.7578V210.903H33.4377V211.321H31.3152V216.999H30.8629V211.321Z" fill="#1D1D1B"/>
<path d="M38.5873 214.874L36.9867 211.356L35.3862 214.874H38.5873ZM36.778 210.851H37.2129L40.0487 216.981H39.5441L38.7787 215.274H35.1948L34.4293 216.981H33.9596L36.7954 210.851H36.778Z" fill="#1D1D1B"/>
<path d="M47.0076 216.998H46.5031L44.0153 211.425L41.5449 216.998H41.0577L43.8239 210.868H44.2241L47.0076 216.998Z" fill="#1D1D1B"/>
<path d="M54.4538 210.903H54.9061V216.981H54.4538V210.903ZM50.8351 216.563C51.9486 216.563 52.7314 215.988 52.7314 215.083C52.7314 214.108 51.9833 213.62 50.8873 213.62H49.165V216.563H50.8351ZM48.7126 210.903H49.165V213.202H50.9221C52.2443 213.202 53.1838 213.881 53.1838 215.048C53.1838 216.337 52.0703 216.981 50.8177 216.981H48.73V210.903H48.7126Z" fill="#1D1D1B"/>
<path d="M60.9778 216.999L62.2652 214.874L59.6034 210.903H60.1253L62.5088 214.508L64.6138 210.903H65.1358L61.4649 216.999H60.9778Z" fill="#1D1D1B"/>
<path d="M69.7634 210.903H70.1984L72.634 214.508L75.0696 210.903H75.4872V216.999H75.0348V211.704L72.634 215.205H72.5992L70.1984 211.704V216.999H69.7634V210.903Z" fill="#1D1D1B"/>
<path d="M83.1072 213.968C83.1072 212.453 82.0112 211.217 80.515 211.217C79.0188 211.217 77.9402 212.436 77.9402 213.933C77.9402 215.449 79.0362 216.685 80.5324 216.685C82.0286 216.685 83.1072 215.466 83.1072 213.968ZM77.4705 213.968C77.4705 212.279 78.6883 210.799 80.5324 210.799C82.3765 210.799 83.5769 212.261 83.5769 213.933C83.5769 215.623 82.3591 217.103 80.515 217.103C78.6709 217.103 77.4705 215.64 77.4705 213.968Z" fill="#1D1D1B"/>
<path d="M87.6653 214.299C88.7962 214.299 89.5616 213.724 89.5616 212.801C89.5616 211.826 88.8135 211.321 87.7175 211.321H85.9952V214.299H87.6653ZM85.5428 210.903H87.7523C89.0919 210.903 90.014 211.582 90.014 212.767C90.014 214.073 88.9179 214.717 87.6479 214.717H86.0126V216.981H85.5602V210.903H85.5428Z" fill="#1D1D1B"/>
<path d="M93.7196 211.321C92.6235 211.321 91.9798 211.844 91.9798 212.645C91.9798 213.602 92.7801 214.055 93.8587 214.055H95.8072V211.321H93.7196ZM96.2596 216.981H95.8072V214.456H93.8935L91.8928 216.981H91.3187L93.3716 214.421C92.3278 214.317 91.5449 213.672 91.5449 212.645C91.5449 211.617 92.38 210.903 93.7544 210.903H96.277V216.981H96.2596Z" fill="#1D1D1B"/>
<path d="M1.3396 222.85H97.8427" stroke="currentColor" stroke-miterlimit="10"/>
<path d="M1.3396 201.603H97.8427" stroke="currentColor" stroke-miterlimit="10"/>
<path d="M0.904663 173.756C0.904663 169.802 4.27975 164.299 11.952 163.689L12.0216 163.585C11.9172 162.644 11.6388 161.652 10.9951 161.495C10.6472 161.391 10.2296 161.373 10.0035 161.373C9.8817 161.373 9.74252 161.303 9.74252 161.182C9.74252 160.99 9.8991 160.92 10.2644 160.92C11.3257 160.92 13.3438 161.025 13.5003 161.025C13.6569 161.025 15.6924 160.92 16.6493 160.92C16.9972 160.92 17.1538 160.99 17.1538 161.182C17.1538 161.303 17.032 161.373 16.8928 161.373C16.6667 161.373 16.4753 161.408 16.0926 161.478C15.2923 161.634 15.0661 162.627 14.9617 163.602L15.0313 163.707C21.364 164.194 25.9221 167.765 25.9221 173.216C25.9221 178.667 21.6423 182.951 15.0661 183.665L14.9965 183.77C15.1183 184.919 14.9269 186.312 16.2491 186.504C16.7015 186.573 17.4148 186.626 17.6931 186.626C17.8845 186.626 17.9541 186.73 17.9541 186.817C17.9541 186.974 17.7975 187.079 17.4495 187.079C15.675 187.079 13.6569 186.974 13.5003 186.974C13.3438 186.974 11.3257 187.079 10.3514 187.079C10.0035 187.079 9.8469 187.009 9.8469 186.817C9.8469 186.713 9.91649 186.626 10.1079 186.626C10.4036 186.626 10.7864 186.556 11.0647 186.504C12.0216 186.277 11.865 184.902 12.0912 183.77L12.0216 183.665C4.40153 183.125 0.904663 178.162 0.904663 173.756ZM11.7606 182.69C11.9172 182.759 12.0738 182.69 12.0738 182.394C12.1434 180.948 12.1434 179.12 12.1434 176.803V165.814L12.0738 164.752C12.1086 164.525 11.952 164.525 11.8128 164.56C7.2199 165.135 3.75783 168.2 3.75783 173.372C3.75783 178.545 7.2547 181.767 11.7606 182.69ZM14.8399 176.803C14.8399 179.207 14.8051 181.175 14.9095 182.62C14.9095 182.69 14.9791 182.742 15.0313 182.742C17.5017 182.672 23.0689 180.774 23.0689 173.999C23.0689 168.949 19.7982 165.71 15.8838 164.769C15.6228 164.699 15.3967 164.647 15.2401 164.699C15.0139 164.804 14.9095 164.856 14.8921 165.657L14.8573 166.197V176.768L14.8399 176.803Z" fill="#1D1D1B"/>
<path d="M42.5539 161.373C49.7738 161.373 55.1844 165.936 55.1844 173.425C55.1844 180.913 50.1044 186.574 42.3626 186.574C33.5595 186.574 29.9061 179.729 29.9061 173.93C29.9061 168.723 33.6987 161.356 42.5539 161.356V161.373ZM43.2324 185.354C46.1204 185.354 52.1051 183.683 52.1051 174.33C52.1051 166.615 47.4078 162.47 42.3452 162.47C36.9868 162.47 32.968 166.006 32.968 173.042C32.968 180.53 37.4565 185.354 43.2498 185.354H43.2324Z" fill="#1D1D1B"/>
<path d="M62.9437 171.161C62.9437 166.145 62.9437 165.239 62.8741 164.212C62.8045 163.115 62.5609 162.61 61.4997 162.383C61.2387 162.314 60.6994 162.279 60.4037 162.279C60.2819 162.279 60.1427 162.209 60.1427 162.087C60.1427 161.896 60.2993 161.826 60.6472 161.826C62.0912 161.826 64.0223 161.913 64.2833 161.913C64.9966 161.913 66.8581 161.826 68.3369 161.826C72.3556 161.826 73.7996 163.184 74.3041 163.655C75.0174 164.334 75.9047 165.779 75.9047 167.486C75.9047 172.049 72.5644 175.131 68.0063 175.131C67.8497 175.131 67.4844 175.131 67.3278 175.097C67.1712 175.097 66.9799 175.027 66.9799 174.87C66.9799 174.609 67.1712 174.574 67.8497 174.574C70.9639 174.574 73.3995 172.293 73.3995 169.332C73.3995 168.27 73.2951 166.11 71.6076 164.386C69.92 162.662 67.9541 162.784 67.206 162.784C66.6667 162.784 66.11 162.853 65.8316 162.975C65.6403 163.045 65.5707 163.271 65.5707 163.585V176.803C65.5707 179.886 65.5707 182.429 65.7273 183.787C65.8316 184.727 66.023 185.424 66.9799 185.546C67.4322 185.616 68.1455 185.668 68.4238 185.668C68.6152 185.668 68.6848 185.772 68.6848 185.859C68.6848 186.016 68.5282 186.121 68.1803 186.121C66.4057 186.121 64.3877 186.016 64.2311 186.016C64.1441 186.016 62.1086 186.121 61.1518 186.121C60.8038 186.121 60.6298 186.051 60.6298 185.859C60.6298 185.772 60.6994 185.668 60.8908 185.668C61.1865 185.668 61.5693 185.598 61.8476 185.546C62.4913 185.424 62.6479 184.71 62.7871 183.787C62.9437 182.429 62.9437 179.903 62.9437 176.803V171.143V171.161Z" fill="#1D1D1B"/>
<path d="M90.4141 176.821C90.4141 179.903 90.4141 182.446 90.5707 183.804C90.6577 184.745 90.8664 185.441 91.8233 185.563C92.2756 185.633 92.9889 185.685 93.2673 185.685C93.4586 185.685 93.5282 185.79 93.5282 185.877C93.5282 186.034 93.3717 186.138 93.0237 186.138C91.2492 186.138 89.2311 186.034 89.0745 186.034C88.9179 186.034 86.8824 186.138 85.9256 186.138C85.5776 186.138 85.4211 186.068 85.4211 185.877C85.4211 185.79 85.4907 185.685 85.682 185.685C85.9778 185.685 86.3605 185.616 86.6389 185.563C87.2826 185.441 87.4392 184.727 87.5783 183.804C87.7349 182.446 87.7349 179.921 87.7349 176.821V163.219L82.9854 163.289C81.0021 163.324 80.2193 163.55 79.7147 164.316C79.3668 164.856 79.2624 165.083 79.1754 165.309C79.071 165.57 78.984 165.64 78.8623 165.64C78.7753 165.64 78.7057 165.535 78.7057 165.344C78.7057 165.03 79.3494 162.261 79.419 162C79.4886 161.808 79.6104 161.391 79.7321 161.391C79.9583 161.391 80.2714 161.704 81.1413 161.774C82.0808 161.878 83.2986 161.93 83.6813 161.93H95.7203C97.7732 161.93 98.6431 161.617 98.904 161.617C99.0606 161.617 99.0606 161.808 99.0606 162C99.0606 162.958 98.9736 165.187 98.9736 165.535C98.9736 165.831 98.8692 165.953 98.7474 165.953C98.5909 165.953 98.5213 165.849 98.4865 165.414L98.4517 165.065C98.3299 164.107 97.5818 163.358 94.5025 163.289L90.4489 163.219V176.821H90.4141Z" fill="#1D1D1B"/>
<path d="M2.80097 136.469C2.80097 131.453 2.80097 130.547 2.73138 129.52C2.6618 128.423 2.41823 127.918 1.35699 127.691C1.09603 127.622 0.556715 127.587 0.26096 127.587C0.139179 127.587 0 127.517 0 127.395C0 127.204 0.156576 127.134 0.504523 127.134C1.9485 127.134 3.84482 127.221 4.03619 127.221C4.33194 127.221 6.19346 127.134 7.15031 127.134C7.49826 127.134 7.65484 127.204 7.65484 127.395C7.65484 127.517 7.53306 127.587 7.39388 127.587C7.16771 127.587 6.97634 127.622 6.5936 127.691C5.72373 127.848 5.46277 128.405 5.41058 129.52C5.34099 130.547 5.34099 131.453 5.34099 136.469V138.402H5.46277C6.00209 137.792 11.8302 131.871 12.9784 130.617C13.8831 129.677 14.7182 128.858 14.7182 128.301C14.7182 127.918 14.5616 127.726 14.3006 127.622C14.1441 127.552 14.0049 127.5 14.0049 127.36C14.0049 127.204 14.1614 127.134 14.3876 127.134C15.0313 127.134 16.023 127.221 16.7884 127.221C16.945 127.221 19.0675 127.134 19.8678 127.134C20.2157 127.134 20.3549 127.204 20.3549 127.36C20.3549 127.517 20.2853 127.587 20.0244 127.587C19.5372 127.587 18.8761 127.743 18.2324 128.04C16.9102 128.614 16.2143 129.415 14.7704 130.809C13.9701 131.575 8.38553 137.043 7.70703 137.845C8.5421 138.785 15.2227 145.682 16.5449 146.918C19.2415 149.426 19.7808 149.948 21.3292 150.575C22.1642 150.924 23.1037 150.993 23.3299 150.993C23.556 150.993 23.7474 151.063 23.7474 151.185C23.7474 151.342 23.5908 151.446 23.0341 151.446H21.3987C20.4941 151.446 19.8852 151.446 19.1893 151.376C17.4843 151.22 16.6841 150.506 15.3097 149.408C13.8657 148.224 7.06333 140.857 5.51496 138.959H5.35839V142.111C5.35839 145.194 5.35839 147.737 5.51496 149.095C5.60195 150.035 5.81072 150.732 6.76757 150.854C7.2199 150.924 7.72443 150.976 8.02018 150.976C8.21155 150.976 8.28114 151.08 8.28114 151.167C8.28114 151.324 8.12457 151.429 7.77662 151.429C6.19346 151.429 4.33194 151.324 4.08838 151.324C3.84482 151.324 1.9659 151.429 1.00905 151.429C0.661099 151.429 0.504523 151.359 0.504523 151.167C0.504523 151.08 0.574113 150.976 0.765484 150.976C1.06124 150.976 1.44398 150.906 1.72234 150.854C2.36604 150.732 2.52262 150.018 2.6618 149.095C2.81837 147.737 2.81837 145.211 2.81837 142.111V136.451L2.80097 136.469Z" fill="#1D1D1B"/>
<path d="M26.9485 136.469C26.9485 131.453 26.9485 130.547 26.8789 129.52C26.8093 128.423 26.5658 127.918 25.5045 127.691C25.2436 127.622 24.7042 127.587 24.4085 127.587C24.2867 127.587 24.1475 127.517 24.1475 127.395C24.1475 127.204 24.3041 127.134 24.652 127.134C26.096 127.134 28.0271 127.221 28.2881 127.221C29.0014 127.221 30.8629 127.134 32.3417 127.134C36.3605 127.134 37.8044 128.492 38.309 128.963C39.0223 129.642 39.9095 131.087 39.9095 132.794C39.9095 137.357 36.5692 140.439 32.0111 140.439C31.8545 140.439 31.5066 140.439 31.3326 140.405C31.1761 140.405 30.9847 140.335 30.9847 140.178C30.9847 139.917 31.1761 139.882 31.8545 139.882C34.9687 139.882 37.4043 137.601 37.4043 134.64C37.4043 133.578 37.3173 131.418 35.6124 129.694C33.9074 127.97 31.9415 128.092 31.2108 128.092C30.6715 128.092 30.1148 128.161 29.8365 128.283C29.6451 128.353 29.5755 128.579 29.5755 128.893V142.111C29.5755 145.194 29.5755 147.737 29.7321 149.095C29.8191 150.035 30.0278 150.732 30.9847 150.854C31.437 150.924 32.1503 150.976 32.4287 150.976C32.62 150.976 32.6896 151.08 32.6896 151.167C32.6896 151.324 32.533 151.429 32.1677 151.429C30.3932 151.429 28.3751 151.324 28.2185 151.324C28.1141 151.324 26.096 151.429 25.1392 151.429C24.7912 151.429 24.6346 151.359 24.6346 151.167C24.6346 151.08 24.7042 150.976 24.8956 150.976C25.1914 150.976 25.5741 150.906 25.8525 150.854C26.4962 150.732 26.6527 150.018 26.7919 149.095C26.9485 147.737 26.9485 145.211 26.9485 142.111V136.451V136.469Z" fill="#1D1D1B"/>
<path d="M56.5588 126.681C63.7787 126.681 69.1892 131.244 69.1892 138.733C69.1892 146.221 64.1092 151.881 56.3674 151.881C47.5643 151.881 43.9109 145.037 43.9109 139.238C43.9109 134.03 47.7035 126.664 56.5588 126.664V126.681ZM57.2373 150.662C60.1252 150.662 66.1099 148.991 66.1099 139.638C66.1099 131.923 61.4126 127.778 56.35 127.778C50.9916 127.778 46.9728 131.314 46.9728 138.35C46.9728 145.838 51.4613 150.662 57.2547 150.662H57.2373Z" fill="#1D1D1B"/>
<path d="M96.3466 142.129C96.3466 145.211 96.3466 147.754 96.5031 149.112C96.6075 150.053 96.7989 150.749 97.7557 150.871C98.2081 150.941 98.904 150.993 99.1997 150.993C99.3911 150.993 99.4607 151.098 99.4607 151.185C99.4607 151.342 99.3041 151.446 98.9388 151.446C97.1642 151.446 95.1461 151.342 94.9896 151.342C94.833 151.342 92.7975 151.446 91.8406 151.446C91.4927 151.446 91.3187 151.376 91.3187 151.185C91.3187 151.098 91.3883 150.993 91.5797 150.993C91.8754 150.993 92.2582 150.924 92.5365 150.871C93.1802 150.749 93.3368 150.035 93.476 149.112C93.6326 147.754 93.6326 145.229 93.6326 142.129V139.098C93.6326 138.977 93.5282 138.907 93.4412 138.907H79.8191C79.7147 138.907 79.6277 138.942 79.6277 139.098V142.129C79.6277 145.211 79.6277 147.754 79.7843 149.112C79.8887 150.053 80.08 150.749 81.0369 150.871C81.4892 150.941 82.2025 150.993 82.4809 150.993C82.6722 150.993 82.7418 151.098 82.7418 151.185C82.7418 151.342 82.5852 151.446 82.2373 151.446C80.4628 151.446 78.4447 151.342 78.2881 151.342C78.1315 151.342 76.1134 151.446 75.1392 151.446C74.7912 151.446 74.6173 151.376 74.6173 151.185C74.6173 151.098 74.6868 150.993 74.8782 150.993C75.174 150.993 75.5567 150.924 75.8351 150.871C76.4788 150.749 76.6353 150.035 76.7745 149.112C76.9311 147.754 76.9311 145.229 76.9311 142.129V136.469C76.9311 131.453 76.9311 130.547 76.8615 129.52C76.7919 128.423 76.5484 127.918 75.4871 127.691C75.2262 127.622 74.6868 127.587 74.3911 127.587C74.2693 127.587 74.1301 127.517 74.1301 127.395C74.1301 127.204 74.2867 127.134 74.6347 127.134C76.0786 127.134 78.0967 127.221 78.2707 127.221C78.4447 127.221 80.4628 127.134 81.4196 127.134C81.7676 127.134 81.9415 127.204 81.9415 127.395C81.9415 127.517 81.8198 127.587 81.6806 127.587C81.4544 127.587 81.263 127.622 80.8803 127.691C80.0104 127.848 79.7495 128.405 79.6973 129.52C79.6277 130.547 79.6277 131.801 79.6277 136.817V137.496C79.6277 137.653 79.7321 137.688 79.8191 137.688H93.4412C93.5456 137.688 93.6326 137.653 93.6326 137.496V136.817C93.6326 131.801 93.6326 130.547 93.563 129.52C93.4934 128.423 93.2324 127.918 92.1886 127.691C91.9276 127.622 91.3883 127.587 91.0925 127.587C90.9708 127.587 90.8316 127.517 90.8316 127.395C90.8316 127.204 90.9882 127.134 91.3535 127.134C92.7975 127.134 94.8156 127.221 94.9896 127.221C95.1635 127.221 97.1642 127.134 98.1385 127.134C98.4864 127.134 98.6604 127.204 98.6604 127.395C98.6604 127.517 98.5386 127.587 98.3994 127.587C98.1733 127.587 97.9819 127.622 97.5992 127.691C96.7293 127.848 96.4683 128.405 96.4161 129.52C96.3465 130.547 96.3466 131.453 96.3466 136.469V142.129Z" fill="#1D1D1B"/>
<path d="M100 10.1533V4.70221C88.6221 1.07976 77.2616 -3.23931 65.2923 4.09266C42.8149 17.6768 22.5644 -9.57859 0.104375 3.81401V19.5751C19.7808 -1.41068 47.373 19.906 65.2923 4.85895V19.9931C55.341 16.8409 45.3549 14.3505 34.8817 20.7594C22.8775 28.0043 11.517 23.6156 0.104375 19.9931V26.4717C12.6653 27.1683 25.1914 29.6588 34.8643 21.5257C34.8643 25.6532 34.8643 32.9677 34.8643 36.6598C23.4516 33.02 12.0912 28.6661 0.0869774 35.9981V51.8811C19.7808 30.4251 47.5296 52.003 65.5184 36.8862V52.003C55.4802 48.8159 45.4071 46.221 34.8469 52.6822C22.8427 59.9445 11.4822 55.5558 0.0695801 51.9159V58.3945C12.6305 59.0912 25.1566 61.5816 34.8295 53.4311V68.5652C23.4168 64.9428 12.0564 60.5018 0.0695801 67.6596V83.4208C19.746 62.4175 47.3382 83.7517 65.2401 68.7046V83.8213C55.3062 80.6865 45.3375 78.2135 34.8991 84.6224C22.8775 91.8847 11.4996 87.4612 0.0695801 83.8387V90.3348C12.6479 91.014 25.1914 93.5392 34.8991 85.3887V100.523C54.4363 79.1365 81.9415 100.262 99.9652 85.8241V84.9707C87.9958 91.937 76.6527 87.4612 65.2749 83.8562C75.5045 72.6927 87.8914 73.1456 99.9652 74.0512V68.5827C88.5873 64.9428 77.2269 60.6411 65.2575 67.9731C54.7843 74.295 44.7982 71.7697 34.8469 68.6001C54.4189 47.1963 81.9589 68.3911 99.9652 53.8491V53.0131C88.0828 59.9619 76.8267 55.6254 65.5358 52.0204C75.6785 40.9441 87.9784 41.2924 99.9652 42.1806V36.6598C88.6743 33.0548 77.4008 28.8577 65.5184 36.1374C54.9582 42.5289 44.8852 39.8817 34.8643 36.6947C54.4189 15.3083 81.9589 36.4857 99.9826 21.9437V21.1077C88.0132 28.1088 76.6701 23.6504 65.2749 20.0279C75.5045 8.84712 87.8914 9.29993 99.9826 10.2055" fill="currentColor"/>
</g>
<defs>
<clipPath id="clip0_1415_3327">
<rect width="100" height="223" fill="white"/>
</clipPath>
</defs>
</svg>
