<svg width="20" height="17" viewBox="0 0 20 17" fill="none" xmlns="http://www.w3.org/2000/svg">
<path fill-rule="evenodd" clip-rule="evenodd" d="M1 9.41563C1 8.86334 1.44772 8.41563 2 8.41563H3.08401C3.63629 8.41563 4.084 8.86334 4.084 9.41563V15.0002C4.084 15.5525 3.63629 16.0002 3.084 16.0002H2C1.44771 16.0002 1 15.5525 1 15.0002V9.41563ZM15.9162 2C15.9162 1.44772 16.3639 1 16.9162 1H18C18.5523 1 19 1.44772 19 2V15C19 15.5523 18.5523 16 18 16H16.9162C16.3639 16 15.9162 15.5523 15.9162 15V2ZM10.8338 7.80274C10.8338 7.25045 11.2816 6.80274 11.8338 6.80274H12.9178C13.4701 6.80274 13.9178 7.25045 13.9178 7.80274V15C13.9178 15.5523 13.4701 16 12.9178 16H11.8338C11.2816 16 10.8338 15.5523 10.8338 15V7.80274ZM5.75168 4.56018C5.75168 4.0079 6.1994 3.56018 6.75168 3.56018H7.83569C8.38797 3.56018 8.83569 4.0079 8.83569 4.56018V15C8.83569 15.5523 8.38797 16 7.83569 16H6.75168C6.1994 16 5.75168 15.5523 5.75168 15V4.56018Z" stroke="#D38F6D"/>
</svg>
