<svg viewBox="0 0 37 31" fill="none" xmlns="http://www.w3.org/2000/svg">
<path fill-rule="evenodd" clip-rule="evenodd" d="M0 16.3254C0 15.7732 0.447715 15.3254 1 15.3254H5.33934C5.89163 15.3254 6.33934 15.7732 6.33934 16.3254V30C6.33934 30.5523 5.89163 31 5.33934 31H1C0.447715 31 0 30.5523 0 30V16.3254ZM30.661 1C30.661 0.447716 31.1088 0 31.661 0H36C36.5523 0 37 0.447715 37 1V29.9996C37 30.5519 36.5523 30.9996 36 30.9996H31.661C31.1088 30.9996 30.661 30.5519 30.661 29.9996V1ZM20.214 12.9922C20.214 12.4399 20.6617 11.9922 21.214 11.9922H25.5533C26.1056 11.9922 26.5533 12.4399 26.5533 12.9922V29.9996C26.5533 30.5519 26.1056 30.9996 25.5533 30.9996H21.214C20.6617 30.9996 20.214 30.5519 20.214 29.9996V12.9922ZM9.76735 6.29097C9.76735 5.73869 10.2151 5.29097 10.7673 5.29097H15.1067C15.659 5.29097 16.1067 5.73869 16.1067 6.29097V29.9996C16.1067 30.5519 15.659 30.9996 15.1067 30.9996H10.7673C10.2151 30.9996 9.76735 30.5519 9.76735 29.9996V6.29097Z" fill="currentColor"/>
</svg>
