<svg width="14" height="13" viewBox="0 0 14 13" fill="none" xmlns="http://www.w3.org/2000/svg">
<path d="M11.1422 5.81763C11.4582 5.47823 11.439 4.94726 11.0994 4.63144C10.7598 4.31574 10.2283 4.33486 9.91239 4.67414L7.91021 6.81659V0.841176C7.91021 0.376618 7.53332 0 7.06842 0C6.60352 0 6.22663 0.376618 6.22663 0.841176V6.81659L4.22458 4.67414C3.90853 4.33473 3.37718 4.31562 3.03753 4.63144C2.69788 4.94726 2.67875 5.47823 2.99481 5.81763C4.14767 7.05135 5.30194 8.28406 6.45366 9.5188C6.46731 9.53346 6.48159 9.54774 6.49639 9.5615C6.83603 9.87732 7.36751 9.85808 7.68343 9.5188L11.1422 5.81763Z" fill="#555555"/>
<path d="M1.81691 8.97765C1.81691 8.51309 1.44002 8.13647 0.975121 8.13647C0.510224 8.13647 0.133333 8.51309 0.133333 8.97765V10.8129C0.133333 12.0175 1.11657 13 2.32198 13H11.8114C13.0168 13 14 12.0175 14 10.8129V8.97765C14 8.51309 13.6231 8.13647 13.1582 8.13647C12.6933 8.13647 12.3164 8.51309 12.3164 8.97765V10.8129C12.3164 11.0889 12.0875 11.3177 11.8114 11.3177H2.32198C2.04585 11.3177 1.81691 11.0889 1.81691 10.8129V8.97765Z" fill="#555555"/>
</svg>
