<svg width="45" height="45" viewBox="0 0 45 45" fill="none" xmlns="http://www.w3.org/2000/svg">
  <path d="M28.1432 11.9705H16.8031C14.0921 11.9705 11.8962 14.1682 11.8962 16.8773V28.2175C11.8962 30.9284 14.094 33.1243 16.8031 33.1243H28.1432C30.8542 33.1243 33.0501 30.9265 33.0501 28.2175V16.8773C33.0501 14.1682 30.8523 11.9705 28.1432 11.9705ZM22.4983 29.1639C18.8186 29.1639 15.8343 26.1796 15.8343 22.5C15.8343 18.8203 18.8186 15.836 22.4983 15.836C26.1779 15.836 29.1622 18.8203 29.1622 22.5C29.1622 26.1796 26.1779 29.1639 22.4983 29.1639ZM29.4541 17.1636C28.5839 17.1636 27.8792 16.4571 27.8792 15.5869C27.8792 14.7167 28.5839 14.0102 29.4541 14.0102C30.3243 14.0102 31.0308 14.7149 31.0308 15.5869C31.0308 16.4589 30.3243 17.1636 29.4541 17.1636Z" fill="white" />
  <path d="M22.4997 18.177C20.1123 18.177 18.1768 20.1126 18.1768 22.5C18.1768 24.8874 20.1123 26.823 22.4997 26.823C24.8872 26.823 26.8227 24.8874 26.8227 22.5C26.8227 20.1126 24.8872 18.177 22.4997 18.177Z" fill="white" />
  <path d="M22.5 0C10.074 0 0 10.074 0 22.5C0 34.926 10.074 45 22.5 45C34.926 45 45 34.926 45 22.5C45 10.074 34.926 0 22.5 0ZM35.4969 28.171C35.4969 32.1779 32.2486 35.4262 28.2417 35.4262H16.8494C12.8425 35.4262 9.59425 32.1779 9.59425 28.171V16.7788C9.59425 12.7719 12.8425 9.52359 16.8494 9.52359H28.2417C32.2486 9.52359 35.4969 12.7719 35.4969 16.7788V28.171Z" fill="white" />
</svg>
