<svg width="24" height="20" viewBox="0 0 24 20" fill="none" xmlns="http://www.w3.org/2000/svg">
<path d="M16.1025 1.46155H18.5384C18.8076 1.46155 19.0256 1.67956 19.0256 1.94873V9.74358" stroke="#1F6080" stroke-width="1.2" stroke-linejoin="round"/>
<path d="M12.2051 15.5897H1.48718C1.21801 15.5897 1 15.3717 1 15.1025V1.94873C1 1.67956 1.21801 1.46155 1.48718 1.46155H3.92307" stroke="#1F6080" stroke-width="1.2" stroke-linejoin="round"/>
<path d="M1 5.35889H19.0256" stroke="#1F6080" stroke-width="1.2" stroke-linejoin="round"/>
<path d="M15.1279 0V2.92307" stroke="#1F6080" stroke-width="1.2" stroke-linejoin="round"/>
<path d="M5.87207 1.46155H14.1541" stroke="#1F6080" stroke-width="1.2" stroke-linejoin="round"/>
<path d="M4.89746 0V2.92307" stroke="#1F6080" stroke-width="1.2" stroke-linejoin="round"/>
<path d="M6.3584 7.79486H7.81993" stroke="#1F6080" stroke-width="1.2" stroke-miterlimit="10"/>
<path d="M8.79492 7.79486H10.2565" stroke="#1F6080" stroke-width="1.2" stroke-miterlimit="10"/>
<path d="M11.2305 7.79486H12.692" stroke="#1F6080" stroke-width="1.2" stroke-miterlimit="10"/>
<path d="M13.667 7.79486H15.1285" stroke="#1F6080" stroke-width="1.2" stroke-miterlimit="10"/>
<path d="M3.92285 10.2306H5.38439" stroke="#1F6080" stroke-width="1.2" stroke-miterlimit="10"/>
<path d="M6.3584 10.2306H7.81993" stroke="#1F6080" stroke-width="1.2" stroke-miterlimit="10"/>
<path d="M8.79492 10.2306H10.2565" stroke="#1F6080" stroke-width="1.2" stroke-miterlimit="10"/>
<path d="M11.2305 10.2306H12.692" stroke="#1F6080" stroke-width="1.2" stroke-miterlimit="10"/>
<path d="M3.92285 12.6666H5.38439" stroke="#1F6080" stroke-width="1.2" stroke-miterlimit="10"/>
<path d="M6.3584 12.6666H7.81993" stroke="#1F6080" stroke-width="1.2" stroke-miterlimit="10"/>
<path d="M8.79492 12.6666H10.2565" stroke="#1F6080" stroke-width="1.2" stroke-miterlimit="10"/>
<path d="M15.8584 14.6153C16.8002 14.6153 17.5636 13.8519 17.5636 12.9102C17.5636 11.9685 16.8002 11.2051 15.8584 11.2051C14.9167 11.2051 14.1533 11.9685 14.1533 12.9102C14.1533 13.8519 14.9167 14.6153 15.8584 14.6153Z" stroke="#1F6080" stroke-width="1.2" stroke-miterlimit="10"/>
<path d="M20.7305 19C19.789 19 19.0254 18.2363 19.0254 17.2948C19.0254 16.3534 19.789 15.5897 20.7305 15.5897C21.672 15.5897 22.4356 16.3534 22.4356 17.2948C22.4356 18.2363 21.672 19 20.7305 19Z" stroke="#1F6080" stroke-width="1.2" stroke-miterlimit="10"/>
<path d="M15.1279 18.9999L21.4612 11.2051" stroke="#1F6080" stroke-width="1.2" stroke-miterlimit="10"/>
</svg>
