<svg width="48" height="48" viewBox="0 0 48 48" fill="none" xmlns="http://www.w3.org/2000/svg">
<path d="M0 24.0002C0 10.7454 10.7452 0.000244141 24 0.000244141C37.2548 0.000244141 48 10.7454 48 24.0002C48 37.2551 37.2548 48.0002 24 48.0002C10.7452 48.0002 0 37.2551 0 24.0002Z" fill="white" fill-opacity="0.16"/>
<g clip-path="url(#clip0_5390_27465)">
<path fill-rule="evenodd" clip-rule="evenodd" d="M23.4118 20.7782V14.5885C23.4118 14.4325 23.4738 14.2828 23.5841 14.1725C23.6944 14.0622 23.844 14.0002 24 14.0002C24.156 14.0002 24.3057 14.0622 24.416 14.1725C24.5263 14.2828 24.5883 14.4325 24.5883 14.5885V20.7782C28.4883 20.9541 31.8206 22.8688 32.8191 25.5791C32.8709 25.7249 32.8631 25.8853 32.7974 26.0255C32.7317 26.1656 32.6134 26.2743 32.4682 26.3278C32.3229 26.3813 32.1625 26.3754 32.0215 26.3114C31.8806 26.2474 31.7706 26.1304 31.7153 25.9858C30.858 23.6588 27.6986 21.9414 24 21.9414C20.3071 21.9414 17.1512 23.6535 16.2883 25.9761C16.2339 26.1224 16.1237 26.2411 15.9819 26.3061C15.84 26.3711 15.6782 26.3771 15.5319 26.3227C15.3857 26.2684 15.267 26.1582 15.202 26.0164C15.137 25.8745 15.131 25.7127 15.1853 25.5664C16.1903 22.862 19.5188 20.9538 23.4118 20.7782Z" fill="white"/>
<path fill-rule="evenodd" clip-rule="evenodd" d="M14.5882 26.6474H33.4118C33.5678 26.6474 33.7174 26.5854 33.8277 26.4751C33.938 26.3648 34 26.2152 34 26.0592C34 25.9032 33.938 25.7536 33.8277 25.6432C33.7174 25.5329 33.5678 25.4709 33.4118 25.4709H14.5882C14.4322 25.4709 14.2826 25.5329 14.1723 25.6432C14.062 25.7536 14 25.9032 14 26.0592C14 26.2152 14.062 26.3648 14.1723 26.4751C14.2826 26.5854 14.4322 26.6474 14.5882 26.6474ZM23.4118 29.0004V33.4121C23.4118 33.5681 23.4737 33.7178 23.5841 33.8281C23.6944 33.9384 23.844 34.0004 24 34.0004C24.156 34.0004 24.3056 33.9384 24.4159 33.8281C24.5263 33.7178 24.5882 33.5681 24.5882 33.4121V29.0004C24.5882 28.8443 24.5263 28.6947 24.4159 28.5844C24.3056 28.4741 24.156 28.4121 24 28.4121C23.844 28.4121 23.6944 28.4741 23.5841 28.5844C23.4737 28.6947 23.4118 28.8443 23.4118 29.0004ZM28.6044 29.4357L31.8397 32.3768C31.8967 32.4299 31.9636 32.4711 32.0366 32.4981C32.1097 32.525 32.1873 32.5373 32.2651 32.534C32.3428 32.5308 32.4192 32.5121 32.4897 32.4791C32.5602 32.4461 32.6235 32.3995 32.6758 32.3419C32.7282 32.2843 32.7686 32.2169 32.7947 32.1435C32.8208 32.0702 32.8321 31.9924 32.8279 31.9147C32.8237 31.8369 32.8042 31.7608 32.7703 31.6907C32.7365 31.6206 32.6891 31.5579 32.6309 31.5062L29.3956 28.5651C29.3386 28.512 29.2717 28.4708 29.1987 28.4438C29.1256 28.4169 29.048 28.4046 28.9702 28.4079C28.8925 28.4111 28.8161 28.4298 28.7456 28.4628C28.6751 28.4957 28.6118 28.5424 28.5595 28.6C28.5071 28.6576 28.4667 28.725 28.4406 28.7984C28.4145 28.8717 28.4032 28.9495 28.4074 29.0272C28.4116 29.1049 28.4311 29.1811 28.465 29.2512C28.4988 29.3213 28.5462 29.384 28.6044 29.4357ZM18.6044 28.5651L15.3691 31.5062C15.3109 31.5579 15.2635 31.6206 15.2297 31.6907C15.1958 31.7608 15.1763 31.8369 15.1721 31.9147C15.1679 31.9924 15.1792 32.0702 15.2053 32.1435C15.2314 32.2169 15.2718 32.2843 15.3242 32.3419C15.3765 32.3995 15.4398 32.4461 15.5103 32.4791C15.5808 32.5121 15.6572 32.5308 15.7349 32.534C15.8127 32.5373 15.8904 32.525 15.9634 32.4981C16.0364 32.4711 16.1033 32.4299 16.1603 32.3768L19.3956 29.4357C19.4538 29.384 19.5012 29.3213 19.535 29.2512C19.5689 29.1811 19.5884 29.1049 19.5926 29.0272C19.5968 28.9495 19.5855 28.8717 19.5594 28.7984C19.5333 28.725 19.4929 28.6576 19.4405 28.6C19.3882 28.5424 19.3249 28.4957 19.2544 28.4628C19.1839 28.4298 19.1075 28.4111 19.0298 28.4079C18.952 28.4046 18.8744 28.4169 18.8013 28.4438C18.7283 28.4708 18.6614 28.512 18.6044 28.5651Z" fill="white"/>
</g>
<defs>
<clipPath id="clip0_5390_27465">
<rect width="20" height="20" fill="white" transform="translate(14 14.0002)"/>
</clipPath>
</defs>
</svg>
