<svg width="199" height="199" viewBox="0 0 199 199" fill="none" xmlns="http://www.w3.org/2000/svg">
<path d="M198.579 99.2893L99.2893 0L-1.3498e-05 99.2893L99.2893 198.579L198.579 99.2893Z" fill="#FF7314"/>
<path d="M148.934 149.34L99.2893 99.6956L49.6446 149.34L99.2893 198.985L148.934 149.34Z" fill="white"/>
<path d="M148.934 49.6447L99.2893 0L49.6446 49.6447L99.2893 99.2893L148.934 49.6447Z" fill="white"/>
<path fill-rule="evenodd" clip-rule="evenodd" d="M155.641 108.559C155.632 108.553 155.91 108.108 156.075 107.86C156.141 107.761 158.724 103.938 158.724 103.938L156.951 100.523C156.822 100.273 156.92 99.9661 157.169 99.8371C157.418 99.7081 157.725 99.8059 157.854 100.055L159.907 104.026L156.651 108.862C156.53 109.041 156.471 109.244 156.468 109.445L156.465 109.441C156.463 109.637 156.514 109.833 156.614 110.003C156.651 110.067 156.692 110.13 156.744 110.182C157.224 110.662 157.721 110.527 157.816 110.502C157.84 110.496 157.863 110.489 157.887 110.481C158.105 110.408 158.303 110.265 158.441 110.059L162.038 104.717C162.069 104.671 162.097 104.623 162.12 104.574C162.282 104.268 162.297 103.89 162.127 103.558L159.638 98.7345C159.612 98.6827 159.418 98.3276 159.377 98.2602C159.369 98.252 159.363 98.2433 159.356 98.2346C158.995 97.7271 158.412 97.3883 157.749 97.3606L151.608 97.3588C150.835 97.3588 150.159 97.7822 149.801 98.4096C149.631 98.7365 149.482 99.1055 149.332 99.4703C149.218 99.7281 148.916 99.8449 148.658 99.7309C148.4 99.6169 148.283 99.3149 148.397 99.0571L148.68 98.4172C148.68 98.4172 149.446 96.3347 151.608 96.3347H157.661C158.536 96.3347 159.326 96.6974 159.891 97.2806C160.032 97.4134 160.157 97.568 160.26 97.7425C160.351 97.8826 160.432 98.0304 160.501 98.1848C160.508 98.2004 163.049 103.141 163.049 103.141C163.435 103.89 163.328 104.763 162.846 105.39C162.806 105.441 159.291 110.631 159.291 110.631C158.922 111.178 158.342 111.497 157.732 111.552V114.383C157.732 114.664 157.504 114.891 157.223 114.891C156.943 114.891 156.715 114.664 156.715 114.383L156.711 111.388C156.594 111.337 156.48 111.275 156.37 111.201C155.497 110.613 155.205 109.483 155.642 108.559L155.641 108.559Z" fill="white"/>
<path fill-rule="evenodd" clip-rule="evenodd" d="M149.849 96.2961C149.565 95.1887 148.56 94.3688 147.365 94.3688L140.049 94.3758C139.339 94.3758 138.687 94.6281 138.178 95.0482C138.122 95.0862 138.068 95.1284 138.017 95.1748C137.807 95.3973 137.637 95.6568 137.517 95.9429C137.508 95.9657 134.498 101.785 134.498 101.785C134.282 102.203 134.3 102.681 134.503 103.068C134.532 103.132 134.794 103.558 134.833 103.616L139.099 109.951C139.526 110.585 140.388 110.754 141.021 110.327C141.419 110.059 141.633 109.622 141.633 109.176C141.634 108.91 141.558 108.641 141.398 108.404L137.974 103.319L137.973 103.32L137.329 102.363L138.586 99.9251L139.758 97.6399C139.886 97.3902 140.193 97.2913 140.443 97.4195C140.692 97.5476 140.791 97.8543 140.663 98.1043L138.516 102.291C138.516 102.291 141.436 106.627 142.138 107.669C142.33 107.955 142.595 108.595 142.588 108.6C142.821 109.55 142.455 110.588 141.597 111.166C141.583 111.175 141.569 111.184 141.555 111.193V114.383C141.555 114.664 141.327 114.891 141.046 114.891C140.766 114.891 140.538 114.664 140.538 114.383V111.559C139.673 111.66 138.782 111.287 138.263 110.515C138.263 110.515 133.86 104.012 133.817 103.957C133.256 103.24 133.128 102.234 133.572 101.372C133.572 101.372 136.751 95.1657 136.879 94.9704C136.997 94.7701 137.14 94.593 137.302 94.4406C137.955 93.7651 138.87 93.3447 139.883 93.3447H147.365C148.987 93.3447 150.359 94.4232 150.802 95.9019C150.804 95.9056 150.805 95.9097 150.806 95.9141C150.445 95.9965 150.127 96.1313 149.849 96.2961Z" fill="white"/>
<path fill-rule="evenodd" clip-rule="evenodd" d="M154.385 88.2822C152.294 88.2822 150.596 89.9801 150.596 92.0714C150.596 94.1628 152.294 95.8609 154.385 95.8609C156.477 95.8609 158.175 94.163 158.175 92.0714C158.175 89.9799 156.477 88.2822 154.385 88.2822ZM154.385 89.3063C155.912 89.3063 157.15 90.5455 157.15 92.0714C157.15 93.5974 155.912 94.8366 154.385 94.8366C152.859 94.8366 151.62 93.5974 151.62 92.0714C151.62 90.5455 152.859 89.3063 154.385 89.3063Z" fill="white"/>
<path fill-rule="evenodd" clip-rule="evenodd" d="M144.774 84.25C142.405 84.25 140.482 86.1733 140.482 88.5422C140.482 90.911 142.405 92.8343 144.774 92.8343C147.143 92.8343 149.066 90.911 149.066 88.5422C149.066 86.1733 147.143 84.25 144.774 84.25ZM144.774 85.2741C146.578 85.2741 148.042 86.7385 148.042 88.5422C148.042 90.3458 146.578 91.8102 144.774 91.8102C142.97 91.8102 141.506 90.3458 141.506 88.5422C141.506 86.7385 142.97 85.2741 144.774 85.2741Z" fill="white"/>
<path fill-rule="evenodd" clip-rule="evenodd" d="M149.094 100.327C147.148 100.327 145.568 101.907 145.568 103.854C145.568 105.8 147.148 107.38 149.094 107.38C151.04 107.38 152.62 105.8 152.62 103.854C152.62 101.907 151.04 100.327 149.094 100.327ZM149.094 101.252C150.53 101.252 151.696 102.418 151.696 103.854C151.696 105.29 150.53 106.455 149.094 106.455C147.658 106.455 146.492 105.289 146.492 103.854C146.492 102.418 147.658 101.252 149.094 101.252Z" fill="white"/>
<path fill-rule="evenodd" clip-rule="evenodd" d="M143.323 113.818C143.322 113.804 143.322 113.789 143.322 113.774V111.423C143.322 109.485 144.895 107.912 146.833 107.912H151.355C153.293 107.912 154.866 109.485 154.866 111.423V113.51C154.866 113.524 154.865 113.538 154.865 113.551V114.427C154.865 114.682 154.658 114.889 154.403 114.889C154.148 114.889 153.941 114.682 153.941 114.427V111.548C153.941 111.539 153.941 111.53 153.941 111.522V111.423C153.941 109.995 152.782 108.836 151.355 108.836H146.833C145.405 108.836 144.246 109.995 144.246 111.423V112.345C144.247 112.355 144.247 112.365 144.247 112.375V114.427C144.247 114.682 144.04 114.889 143.785 114.889C143.53 114.889 143.323 114.682 143.323 114.427V113.818V113.818ZM151.261 111.548V114.427C151.261 114.682 151.468 114.889 151.723 114.889C151.978 114.889 152.185 114.682 152.185 114.427V111.548C152.185 111.293 151.978 111.086 151.723 111.086C151.468 111.086 151.261 111.293 151.261 111.548ZM146.003 111.548V114.427C146.003 114.682 146.21 114.889 146.465 114.889C146.72 114.889 146.927 114.682 146.927 114.427V111.548C146.927 111.293 146.72 111.086 146.465 111.086C146.21 111.086 146.003 111.293 146.003 111.548Z" fill="white"/>
</svg>
