<svg width="62" height="150" viewBox="0 0 62 150" fill="none" xmlns="http://www.w3.org/2000/svg">
  <path d="M1.88733 128.79H2.15693V130.449H2.89026L4.52946 128.79H4.89612L3.12751 130.556L4.97161 132.462H4.59416L2.90104 130.706H2.15693V132.462H1.88733V128.79Z" fill="white" />
  <path d="M8.57312 131.455C8.57312 130.995 8.18489 130.738 7.45156 130.738H6.2006V132.215H7.53784C8.1741 132.215 8.57312 131.926 8.57312 131.466V131.455ZM8.36822 129.711C8.36822 129.304 8.04469 129.036 7.44078 129.036H6.18981V130.481H7.40843C7.95842 130.481 8.35744 130.214 8.35744 129.721L8.36822 129.711ZM5.92021 128.769H7.44078C7.86136 128.769 8.19567 128.887 8.40057 129.09C8.56234 129.25 8.63782 129.443 8.63782 129.668C8.63782 130.182 8.3143 130.428 8.01234 130.546C8.45449 130.663 8.84272 130.92 8.84272 131.423C8.84272 132.044 8.3143 132.43 7.51627 132.43H5.90942V128.758L5.92021 128.769Z" fill="white" />
  <path d="M12.4235 131.188L11.4529 129.069L10.4823 131.188H12.4343H12.4235ZM11.3235 128.769H11.5823L13.3078 132.462H13.0058L12.5313 131.434H10.3529L9.87841 132.462H9.59802L11.3235 128.769Z" fill="white" />
  <path d="M15.6481 130.845C16.3383 130.845 16.802 130.492 16.802 129.946C16.802 129.358 16.3383 129.047 15.6805 129.047H14.6344V130.845H15.6481ZM14.3648 128.801H15.702C16.5108 128.801 17.0716 129.218 17.0716 129.925C17.0716 130.706 16.403 131.102 15.6265 131.102H14.6236V132.473H14.354V128.801H14.3648Z" fill="white" />
  <path d="M19.1418 129.047H17.8585V128.79H20.7055V129.047H19.4222V132.462H19.1418V129.047Z" fill="white" />
  <path d="M23.833 131.188L22.8624 129.069L21.8919 131.188H23.8438H23.833ZM22.733 128.769H22.9919L24.7173 132.462H24.4154L23.9409 131.434H21.7625L21.288 132.462H21.0076L22.733 128.769Z" fill="white" />
  <path d="M28.9552 132.462H28.6425L27.1435 129.101L25.6337 132.462H25.3425L27.0249 128.769H27.2729L28.9552 132.462Z" fill="white" />
  <path d="M33.485 128.79H33.7654V132.462H33.485V128.79ZM31.2851 132.205C31.9645 132.205 32.439 131.852 32.439 131.316C32.439 130.728 31.9753 130.428 31.3174 130.428H30.2714V132.205H31.2851ZM30.0018 128.79H30.2714V130.182H31.339C32.1478 130.182 32.7086 130.599 32.7086 131.295C32.7086 132.076 32.0292 132.462 31.2635 132.462H29.991V128.79H30.0018Z" fill="white" />
  <path d="M37.4427 132.462L38.2299 131.188L36.6123 128.79H36.9358L38.3809 130.963L39.6642 128.79H39.977L37.7554 132.462H37.4427Z" fill="white" />
  <path d="M42.7917 128.79H43.0506L44.5388 130.963L46.0162 128.79H46.275V132.462H46.0054V129.272L44.5388 131.391H44.5172L43.0614 129.272V132.462H42.7917V128.79Z" fill="white" />
  <path d="M50.9123 130.642C50.9123 129.721 50.2437 128.983 49.3378 128.983C48.4319 128.983 47.7741 129.711 47.7741 130.621C47.7741 131.541 48.4427 132.28 49.3486 132.28C50.2544 132.28 50.9123 131.541 50.9123 130.642ZM47.4829 130.642C47.4829 129.625 48.227 128.737 49.3486 128.737C50.4701 128.737 51.2035 129.625 51.2035 130.621C51.2035 131.637 50.4593 132.526 49.3378 132.526C48.2162 132.526 47.4829 131.637 47.4829 130.642Z" fill="white" />
  <path d="M53.6839 130.845C54.3741 130.845 54.8378 130.492 54.8378 129.946C54.8378 129.358 54.3741 129.047 53.7162 129.047H52.6702V130.845H53.6839ZM52.4006 128.801H53.7378C54.5466 128.801 55.1074 129.218 55.1074 129.925C55.1074 130.706 54.4388 131.102 53.6623 131.102H52.6594V132.473H52.3898V128.801H52.4006Z" fill="white" />
  <path d="M57.3611 129.047C56.6924 129.047 56.3042 129.368 56.3042 129.85C56.3042 130.428 56.8003 130.696 57.4473 130.696H58.6336V129.047H57.3611ZM58.9032 132.462H58.6228V130.942H57.4581L56.2395 132.462H55.8944L57.1454 130.92C56.5091 130.856 56.0346 130.471 56.0346 129.85C56.0346 129.229 56.5415 128.801 57.3718 128.801H58.9032V132.473V132.462Z" fill="white" />
  <path d="M10.5142 148.678H7.45154V144.685H8.33584V147.875H9.94269V144.685H10.827V147.875H11.3446V149.492H10.5142V148.678Z" fill="white" />
  <path d="M11.9814 144.685H15.0118V145.467H12.8657V146.28H14.753V147.062H12.8657V147.897H15.0442V148.678H11.9814V144.685Z" fill="white" />
  <path d="M15.8313 144.685H16.7156V146.27H18.344V144.685H19.2283V148.678H18.344V147.072H16.7156V148.678H15.8313V144.685Z" fill="white" />
  <path d="M21.1264 145.499H19.9078V144.685H23.2402V145.499H22.0108V148.678H21.1264V145.499Z" fill="white" />
  <path d="M25.4938 146.698C25.936 146.698 26.1948 146.441 26.1948 146.088C26.1948 145.681 25.9144 145.478 25.4831 145.478H24.8037V146.698H25.5046H25.4938ZM23.9086 144.685H25.5478C26.5076 144.685 27.0899 145.242 27.0899 146.066C27.0899 147.008 26.3674 147.479 25.4615 147.479H24.7929V148.678H23.9086V144.685Z" fill="white" />
  <path d="M29.6568 147.008L29.1176 145.713L28.5892 147.008H29.6568ZM28.7294 144.664H29.549L31.2744 148.678H30.347L29.9803 147.779H28.2764L27.9098 148.678H27.0039L28.7294 144.664Z" fill="white" />
  <path d="M35.5661 148.678H34.5955L33.4739 145.895L32.3739 148.678H31.4249L33.1073 144.664H33.8837L35.5661 148.678Z" fill="white" />
  <path d="M37.7664 147.886C38.1978 147.886 38.4674 147.693 38.4674 147.308C38.4674 146.933 38.2301 146.73 37.7664 146.73H37.0654V147.897H37.7556L37.7664 147.886ZM36.1919 144.685H37.0762V145.938H37.788C38.7585 145.938 39.3732 146.398 39.3732 147.287C39.3732 148.143 38.8017 148.678 37.7556 148.678H36.1919V144.685Z" fill="white" />
  <path d="M40.0521 144.685H40.9364V146.27H42.5648V144.685H43.4491V148.678H42.5648V147.072H40.9364V148.678H40.0521V144.685Z" fill="white" />
  <path d="M48.1837 144.685H49.068V148.678H48.1837V144.685ZM45.9945 147.886C46.4259 147.886 46.6955 147.693 46.6955 147.308C46.6955 146.933 46.4583 146.73 45.9945 146.73H45.2936V147.897H45.9838L45.9945 147.886ZM44.42 144.685H45.3043V145.938H46.0161C46.9867 145.938 47.6014 146.398 47.6014 147.287C47.6014 148.143 47.0298 148.678 45.9838 148.678H44.42V144.685Z" fill="white" />
  <path d="M50.7289 143.54H51.322C51.3867 143.722 51.5269 143.819 51.8181 143.819C52.1093 143.819 52.2387 143.712 52.3142 143.54H52.9073C52.8534 144.086 52.4328 144.386 51.8181 144.386C51.2034 144.386 50.7828 144.086 50.7289 143.54ZM52.724 148.678V146.077L50.8152 148.678H50.0387V144.686H50.923V147.212L52.7671 144.686H53.6083V148.678H52.724Z" fill="white" />
  <path d="M0.916504 106.932C0.916504 104.545 2.9655 101.227 7.63505 100.863L7.67819 100.81C7.62427 100.242 7.44094 99.643 7.05271 99.5467C6.83702 99.4932 6.58899 99.4718 6.44879 99.4718C6.3733 99.4718 6.29781 99.4289 6.29781 99.354C6.29781 99.2363 6.39487 99.2042 6.61056 99.2042C7.25761 99.2042 8.48701 99.2577 8.58406 99.2577C8.68112 99.2577 9.91052 99.2042 10.4929 99.2042C10.7085 99.2042 10.8056 99.247 10.8056 99.354C10.8056 99.4289 10.7301 99.4718 10.6546 99.4718C10.5144 99.4718 10.3958 99.4932 10.1693 99.5253C9.68405 99.6216 9.54386 100.221 9.48994 100.81L9.53307 100.863C13.383 101.152 16.1546 103.304 16.1546 106.601C16.1546 109.897 13.5556 112.477 9.55464 112.905L9.5115 112.959C9.58699 113.655 9.46837 114.489 10.2772 114.607C10.5468 114.65 10.9782 114.682 11.1615 114.682C11.2801 114.682 11.3232 114.736 11.3232 114.8C11.3232 114.896 11.2262 114.95 11.0105 114.95C9.93209 114.95 8.70269 114.896 8.60563 114.896C8.50857 114.896 7.27918 114.95 6.68605 114.95C6.47036 114.95 6.3733 114.907 6.3733 114.8C6.3733 114.746 6.41644 114.682 6.53507 114.682C6.70761 114.682 6.94487 114.639 7.11741 114.607C7.69976 114.468 7.6027 113.633 7.7429 112.959L7.69976 112.905C3.07334 112.573 0.938072 109.587 0.938072 106.932H0.916504ZM7.51643 112.327C7.61349 112.37 7.71054 112.327 7.71054 112.156C7.75368 111.289 7.75368 110.176 7.75368 108.784V102.158L7.71054 101.516C7.73211 101.377 7.63505 101.377 7.54878 101.398C4.75568 101.752 2.64197 103.593 2.64197 106.708C2.64197 109.823 4.76646 111.771 7.50564 112.327H7.51643ZM9.39288 108.784C9.39288 110.24 9.37131 111.417 9.43601 112.295C9.43601 112.338 9.47915 112.37 9.5115 112.37C11.0105 112.327 14.3967 111.193 14.3967 107.093C14.3967 104.053 12.4017 102.094 10.0184 101.527C9.86738 101.484 9.72719 101.452 9.63013 101.484C9.48994 101.538 9.43601 101.58 9.41445 102.062L9.39288 102.394V108.774V108.784Z" fill="white" />
  <path d="M26.2489 99.4611C30.6488 99.4611 33.9272 102.212 33.9272 106.729C33.9272 111.246 30.8429 114.661 26.1302 114.661C20.7813 114.661 18.549 110.529 18.549 107.04C18.549 103.903 20.8568 99.4611 26.2489 99.4611ZM26.6587 113.922C28.4165 113.922 32.0508 112.916 32.0508 107.275C32.0508 102.619 29.2037 100.125 26.1087 100.125C22.8518 100.125 20.4038 102.255 20.4038 106.504C20.4038 111.021 23.143 113.933 26.6479 113.933L26.6587 113.922Z" fill="white" />
  <path d="M38.6503 105.359C38.6503 102.33 38.6503 101.794 38.6072 101.174C38.564 100.51 38.4131 100.2 37.766 100.071C37.615 100.028 37.2807 100.018 37.0974 100.018C37.0219 100.018 36.9464 99.9747 36.9464 99.8998C36.9464 99.7821 37.0435 99.7393 37.2592 99.7393C38.1327 99.7393 39.3081 99.7928 39.4699 99.7928C39.9013 99.7928 41.0336 99.7393 41.9287 99.7393C44.3659 99.7393 45.2502 100.553 45.563 100.842C45.9944 101.249 46.5443 102.126 46.5443 103.154C46.5443 105.905 44.5169 107.767 41.7346 107.767C41.6375 107.767 41.4219 107.767 41.3248 107.746C41.2277 107.746 41.1091 107.703 41.1091 107.607C41.1091 107.457 41.2277 107.435 41.6375 107.435C43.5356 107.435 45.013 106.055 45.013 104.278C45.013 103.636 44.9591 102.34 43.9238 101.291C42.8885 100.242 41.7022 100.317 41.2493 100.317C40.915 100.317 40.5807 100.36 40.4081 100.435C40.2895 100.478 40.2572 100.606 40.2572 100.799V108.763C40.2572 110.625 40.2572 112.156 40.3542 112.969C40.4081 113.537 40.5268 113.954 41.1199 114.04C41.3895 114.083 41.8209 114.115 41.9934 114.115C42.112 114.115 42.1444 114.168 42.1444 114.232C42.1444 114.329 42.0473 114.393 41.8316 114.393C40.7532 114.393 39.5238 114.34 39.4268 114.34C39.3729 114.34 38.1327 114.393 37.5503 114.393C37.3346 114.393 37.2376 114.35 37.2376 114.232C37.2376 114.179 37.2807 114.115 37.3886 114.115C37.5611 114.115 37.7984 114.072 37.9709 114.04C38.3591 113.965 38.4562 113.537 38.5425 112.969C38.6395 112.156 38.6395 110.625 38.6395 108.763V105.348L38.6503 105.359Z" fill="white" />
  <path d="M55.344 108.773C55.344 110.636 55.344 112.167 55.4411 112.98C55.495 113.547 55.6136 113.965 56.2067 114.051C56.4763 114.093 56.9077 114.126 57.0803 114.126C57.1989 114.126 57.242 114.179 57.242 114.243C57.242 114.34 57.145 114.404 56.9293 114.404C55.8509 114.404 54.6215 114.35 54.5244 114.35C54.4274 114.35 53.198 114.404 52.6156 114.404C52.3999 114.404 52.3029 114.361 52.3029 114.243C52.3029 114.19 52.346 114.126 52.4646 114.126C52.6372 114.126 52.8744 114.083 53.047 114.051C53.4352 113.976 53.5323 113.547 53.6078 112.98C53.7048 112.167 53.7048 110.636 53.7048 108.773V100.574L50.8147 100.617C49.6068 100.638 49.1323 100.767 48.8196 101.238C48.6039 101.57 48.55 101.698 48.4853 101.837C48.4313 101.998 48.3666 102.03 48.2911 102.03C48.2372 102.03 48.1941 101.976 48.1941 101.859C48.1941 101.666 48.5823 99.9962 48.6255 99.8464C48.6686 99.7286 48.7441 99.4824 48.8196 99.4824C48.9598 99.4824 49.1539 99.6751 49.6823 99.7179C50.2539 99.7714 50.9872 99.8142 51.2245 99.8142H58.5469C59.7979 99.8142 60.3263 99.6216 60.4773 99.6216C60.5743 99.6216 60.5743 99.7393 60.5743 99.8571C60.5743 100.435 60.5204 101.773 60.5204 101.987C60.5204 102.158 60.4665 102.244 60.3802 102.244C60.2832 102.244 60.24 102.191 60.2185 101.912L60.1969 101.698C60.1214 101.12 59.6685 100.671 57.792 100.628L55.3332 100.585V108.784L55.344 108.773Z" fill="white" />
  <path d="M2.07085 84.4432C2.07085 81.414 2.07085 80.8788 2.02771 80.258C1.98457 79.5943 1.83359 79.2839 1.18654 79.1554C1.03556 79.1126 0.701253 79.1019 0.517922 79.1019C0.442433 79.1019 0.366943 79.0591 0.366943 78.9842C0.366943 78.8664 0.464001 78.8236 0.679685 78.8236C1.56399 78.8236 2.70711 78.8771 2.82574 78.8771C2.99829 78.8771 4.13063 78.8236 4.72376 78.8236C4.93944 78.8236 5.0365 78.8664 5.0365 78.9842C5.0365 79.0591 4.96101 79.1019 4.88552 79.1019C4.74532 79.1019 4.6267 79.1233 4.40023 79.1554C3.87181 79.2518 3.72083 79.5836 3.67769 80.258C3.63455 80.8788 3.63455 81.4247 3.63455 84.4432V85.61H3.71004C4.04435 85.246 7.58157 81.6709 8.28254 80.9216C8.83253 80.3543 9.33939 79.8512 9.33939 79.5301C9.33939 79.2946 9.24233 79.1768 9.08057 79.1233C8.98351 79.0805 8.90802 79.0484 8.90802 78.9735C8.90802 78.8771 9.00508 78.8343 9.14528 78.8343C9.53351 78.8343 10.1374 78.8878 10.6119 78.8878C10.709 78.8878 12.0031 78.8343 12.4884 78.8343C12.7041 78.8343 12.7795 78.8771 12.7795 78.9735C12.7795 79.0698 12.7364 79.1126 12.5854 79.1126C12.2943 79.1126 11.8845 79.209 11.4962 79.3802C10.6982 79.7335 10.2668 80.2151 9.38253 81.05C8.89724 81.5103 5.50022 84.8072 5.09042 85.2995C5.59728 85.8669 9.66292 90.0307 10.4609 90.7693C12.1001 92.2786 12.4345 92.589 13.3727 92.9743C13.8795 93.1884 14.4511 93.2312 14.5805 93.2312C14.7099 93.2312 14.8285 93.274 14.8285 93.349C14.8285 93.4453 14.7315 93.5095 14.3972 93.5095H13.405C12.855 93.5095 12.4884 93.5095 12.057 93.4667C11.0217 93.3704 10.5364 92.9422 9.69527 92.2786C8.82175 91.5614 4.68062 87.1192 3.7424 85.9739H3.64534V87.8792C3.64534 89.7417 3.64534 91.2724 3.7424 92.0859C3.79632 92.6532 3.91494 93.0706 4.50807 93.1563C4.77768 93.1991 5.09042 93.2312 5.27375 93.2312C5.39238 93.2312 5.43551 93.2847 5.43551 93.349C5.43551 93.4453 5.33846 93.5095 5.12277 93.5095C4.16298 93.5095 3.03064 93.456 2.87966 93.456C2.72868 93.456 1.58556 93.5095 1.00321 93.5095C0.787527 93.5095 0.690469 93.4667 0.690469 93.349C0.690469 93.2954 0.733606 93.2312 0.841448 93.2312C1.01399 93.2312 1.25125 93.1884 1.42379 93.1563C1.81202 93.0814 1.90908 92.6532 1.98457 92.0859C2.08163 91.2724 2.08163 89.7417 2.08163 87.8792V84.4646L2.07085 84.4432Z" fill="white" />
  <path d="M16.759 84.4432C16.759 81.414 16.759 80.8788 16.7158 80.258C16.6727 79.5943 16.5217 79.2839 15.8747 79.1554C15.7237 79.1126 15.3894 79.1019 15.206 79.1019C15.1305 79.1019 15.0551 79.0591 15.0551 78.9842C15.0551 78.8664 15.1521 78.8236 15.3678 78.8236C16.2521 78.8236 17.4168 78.8771 17.5786 78.8771C18.0099 78.8771 19.1423 78.8236 20.0373 78.8236C22.4746 78.8236 23.3589 79.6371 23.6716 79.9261C24.103 80.3329 24.653 81.2106 24.653 82.2382C24.653 84.9891 22.6256 86.8516 19.8432 86.8516C19.7462 86.8516 19.5305 86.8516 19.4334 86.8302C19.3364 86.8302 19.2178 86.7874 19.2178 86.6911C19.2178 86.5412 19.3364 86.5198 19.7462 86.5198C21.6442 86.5198 23.1216 85.139 23.1216 83.3621C23.1216 82.7199 23.0677 81.4247 22.0324 80.3757C20.9971 79.3267 19.8001 79.4016 19.3579 79.4016C19.0236 79.4016 18.6893 79.4444 18.5168 79.5194C18.3982 79.5622 18.355 79.6906 18.355 79.8833V87.8471C18.355 89.7096 18.355 91.2403 18.4521 92.0538C18.506 92.6211 18.6246 93.0385 19.2178 93.1242C19.4874 93.167 19.9187 93.1991 20.1021 93.1991C20.2207 93.1991 20.253 93.2526 20.253 93.3168C20.253 93.4132 20.156 93.4774 19.9403 93.4774C18.8619 93.4774 17.6325 93.4239 17.5354 93.4239C17.4815 93.4239 16.2413 93.4774 15.659 93.4774C15.4433 93.4774 15.3462 93.4346 15.3462 93.3168C15.3462 93.2633 15.3894 93.1991 15.508 93.1991C15.6805 93.1991 15.9178 93.1563 16.0903 93.1242C16.4786 93.0492 16.5756 92.6211 16.6619 92.0538C16.759 91.2403 16.759 89.7096 16.759 87.8471V84.4325V84.4432Z" fill="white" />
  <path d="M34.7683 78.5452C39.1574 78.5452 42.4466 81.2962 42.4466 85.8133C42.4466 90.3303 39.3623 93.7449 34.6496 93.7449C29.3007 93.7449 27.0684 89.6132 27.0684 86.1237C27.0684 82.9874 29.3762 78.5452 34.7683 78.5452ZM35.1781 93.0063C36.9359 93.0063 40.5702 92.0002 40.5702 86.3592C40.5702 81.7029 37.7231 79.2089 34.6281 79.2089C31.3605 79.2089 28.9232 81.339 28.9232 85.5885C28.9232 90.1056 31.6624 93.0171 35.1781 93.0171V93.0063Z" fill="white" />
  <path d="M58.9577 87.8578C58.9577 89.7203 58.9577 91.251 59.0547 92.0645C59.1086 92.6318 59.2273 93.0492 59.8204 93.1349C60.09 93.1777 60.5214 93.2098 60.6939 93.2098C60.8125 93.2098 60.8449 93.2633 60.8449 93.3275C60.8449 93.4239 60.7478 93.4881 60.5322 93.4881C59.4537 93.4881 58.2243 93.4346 58.1273 93.4346C58.0302 93.4346 56.8008 93.4881 56.2185 93.4881C56.0028 93.4881 55.9057 93.4453 55.9057 93.3275C55.9057 93.274 55.9489 93.2098 56.0567 93.2098C56.2293 93.2098 56.4665 93.167 56.6391 93.1349C57.0273 93.0599 57.1244 92.6318 57.2106 92.0645C57.3077 91.251 57.3077 89.7203 57.3077 87.8578V86.0381C57.3077 85.9632 57.2538 85.9204 57.1891 85.9204H48.9068C48.8529 85.9204 48.7882 85.9418 48.7882 86.0381V87.8578C48.7882 89.7203 48.7882 91.251 48.8852 92.0645C48.9392 92.6318 49.0578 93.0492 49.6509 93.1349C49.9205 93.1777 50.3519 93.2098 50.5244 93.2098C50.6431 93.2098 50.6754 93.2633 50.6754 93.3275C50.6754 93.4239 50.5783 93.4881 50.3627 93.4881C49.2842 93.4881 48.0548 93.4346 47.9578 93.4346C47.8607 93.4346 46.6313 93.4881 46.0382 93.4881C45.8225 93.4881 45.7255 93.4453 45.7255 93.3275C45.7255 93.274 45.7686 93.2098 45.8764 93.2098C46.049 93.2098 46.2862 93.167 46.4588 93.1349C46.847 93.0599 46.9441 92.6318 47.0196 92.0645C47.1166 91.251 47.1166 89.7203 47.1166 87.8578V84.4432C47.1166 81.414 47.1166 80.8788 47.0735 80.2579C47.0303 79.5943 46.8794 79.2839 46.2323 79.1554C46.0813 79.1126 45.747 79.1019 45.5637 79.1019C45.4882 79.1019 45.4127 79.0591 45.4127 78.9842C45.4127 78.8664 45.5098 78.8236 45.7255 78.8236C46.6098 78.8236 47.8392 78.8771 47.9362 78.8771C48.0333 78.8771 49.2627 78.8236 49.8558 78.8236C50.0715 78.8236 50.1685 78.8664 50.1685 78.9842C50.1685 79.0591 50.0931 79.1019 50.0176 79.1019C49.8774 79.1019 49.7587 79.1233 49.5323 79.1554C49.0039 79.2518 48.8529 79.5836 48.8097 80.2579C48.7666 80.8788 48.7666 81.6388 48.7666 84.6573V85.064C48.7666 85.1604 48.8205 85.1818 48.8852 85.1818H57.1675C57.2214 85.1818 57.2861 85.1604 57.2861 85.064V84.6573C57.2861 81.6281 57.2861 80.8788 57.243 80.2579C57.1998 79.5943 57.0489 79.2839 56.4018 79.1554C56.2401 79.1126 55.9165 79.1019 55.7332 79.1019C55.6577 79.1019 55.5822 79.0591 55.5822 78.9842C55.5822 78.8664 55.6793 78.8236 55.895 78.8236C56.7793 78.8236 58.0087 78.8771 58.1057 78.8771C58.2028 78.8771 59.4322 78.8236 60.0253 78.8236C60.241 78.8236 60.338 78.8664 60.338 78.9842C60.338 79.0591 60.2626 79.1019 60.1763 79.1019C60.0361 79.1019 59.9282 79.1233 59.691 79.1554C59.1626 79.2518 59.0116 79.5836 58.9684 80.2579C58.9253 80.8788 58.9253 81.4247 58.9253 84.4432V87.8578H58.9577Z" fill="white" />
  <path d="M1.18652 136.743H59.8633" stroke="#F47422" stroke-miterlimit="10" />
  <path d="M1.18652 123.502H59.8633" stroke="#F47422" stroke-miterlimit="10" />
  <path d="M61.0169 6.15433V2.84679C54.0611 0.641766 47.1377 -1.97001 39.8152 2.48286C26.0977 10.7035 13.7283 -5.80205 0.0107842 2.31159V11.8489C12.0244 -0.856796 28.8801 12.0522 39.8152 2.94313C39.8152 5.43716 39.8152 9.87933 39.8152 12.1058C33.7329 10.2004 27.6399 8.69118 21.2449 12.5767C13.9224 16.9654 6.97737 14.3108 0.0107842 12.1165V16.0448C7.68913 16.4623 15.3351 17.9716 21.2449 13.0477V22.2103C14.2783 20.0053 7.34403 17.3721 0.0107842 21.8036V31.4265C12.0352 18.4318 28.9879 31.5014 39.977 22.3388V31.4907C33.8516 29.5533 27.6938 27.9905 21.2449 31.9082C13.9116 36.3075 6.97737 33.6422 0.0107842 31.4479V35.3656C7.68913 35.783 15.3243 37.2923 21.2449 32.3577V41.5311C14.2783 39.3368 7.33325 36.6501 0.0107842 40.9852V50.5332C12.0244 37.8168 28.8801 50.7258 39.8152 41.6167C39.8152 44.1108 39.8152 48.5422 39.8152 50.7686C33.7545 48.8633 27.6614 47.3755 21.2772 51.2503C13.9332 55.6497 6.98816 52.9737 0 50.7686V54.7077C7.68913 55.1252 15.3459 56.6452 21.2772 51.7106V60.8839C33.2153 47.9321 50.0063 60.7234 61.0169 51.9782V51.4537C53.7053 55.6711 46.7818 52.9523 39.826 50.7686C46.0701 44.0037 53.6406 44.282 61.0169 44.8279V41.5204C54.0611 39.3154 47.1377 36.7036 39.8152 41.1564C33.4202 44.9885 27.3164 43.4471 21.2449 41.5311C33.1937 28.5685 50.0171 41.4026 61.0169 32.5932V32.0794C53.7592 36.2861 46.8897 33.6636 39.9878 31.48C46.1887 24.7686 53.6945 24.9827 61.0169 25.5286V22.1782C54.1151 19.9946 47.2348 17.4471 39.977 21.8678C33.528 25.732 27.3811 24.1371 21.2449 22.1996C33.1937 9.24779 50.0171 22.0712 61.0169 13.2725V12.7587C53.7053 16.9975 46.7818 14.3001 39.8152 12.1058C46.0593 5.34083 53.6298 5.60843 61.0169 6.15433Z" fill="#F47422" />
</svg>
