<svg width="36" height="78" viewBox="0 0 36 78" fill="none" xmlns="http://www.w3.org/2000/svg">
  <path d="M0.960938 75.4785H1.22436V76.5127H1.60262L2.57189 75.4785H2.913L1.82552 76.6138L2.96366 77.8367H2.61242L1.61275 76.7519H1.22436V77.8367H0.960938V75.4785Z" fill="white" />
  <path d="M4.96838 77.1697C4.96838 76.9136 4.75899 76.7654 4.35034 76.7654H3.61747V77.5975H4.39762C4.75223 77.5975 4.96838 77.4425 4.96838 77.1764V77.1697ZM4.84004 76.1018C4.84004 75.8693 4.65767 75.7177 4.3267 75.7177H3.62085V76.5296H4.30643C4.6239 76.5296 4.84004 76.3881 4.84004 76.1085V76.1018ZM3.3608 75.4785H4.35034C4.61714 75.4785 4.82653 75.556 4.95825 75.6874C5.05619 75.7918 5.10685 75.9198 5.10685 76.0647V76.0714C5.10685 76.378 4.9211 76.5363 4.73872 76.6172C5.01566 76.698 5.23518 76.8665 5.23518 77.1865V77.1932C5.23518 77.5975 4.90083 77.8367 4.39086 77.8367H3.35742V75.4785H3.3608Z" fill="white" />
  <path d="M7.22595 76.9745L6.69909 75.7719L6.16886 76.9745H7.22932H7.22595ZM6.57751 75.4619H6.82405L7.88451 77.8369H7.60082L7.32726 77.2137H6.06079L5.78385 77.8369H5.51367L6.57413 75.4619H6.57751Z" fill="white" />
  <path d="M9.17936 76.762C9.56437 76.762 9.81766 76.5532 9.81766 76.2432V76.2365C9.81766 75.8996 9.56774 75.7244 9.19287 75.7244H8.60522V76.762H9.17936ZM8.3418 75.4785H9.21313C9.73661 75.4785 10.0845 75.7615 10.0845 76.2264V76.2331C10.0845 76.7418 9.66568 77.0046 9.1726 77.0046H8.6086V77.8367H8.34517V75.4785H8.3418Z" fill="white" />
  <path d="M11.1644 75.7244H10.3809V75.4785H12.2113V75.7244H11.4278V77.8367H11.1644V75.7244Z" fill="white" />
  <path d="M13.9095 76.9745L13.3827 75.7719L12.8525 76.9745H13.9129H13.9095ZM13.2611 75.4619H13.5076L14.5681 77.8369H14.2844L14.0109 77.2137H12.7444L12.4674 77.8369H12.1973L13.2577 75.4619H13.2611Z" fill="white" />
  <path d="M17.065 77.8369H16.7746L15.9066 75.8156L15.0454 77.8369H14.7617L15.7952 75.4619H16.0316L17.065 77.8369Z" fill="white" />
  <path d="M19.706 75.4785H19.9695V77.8367H19.706V75.4785ZM18.3551 77.5908C18.7334 77.5908 18.9934 77.3954 18.9934 77.0821V77.0753C18.9934 76.7486 18.7435 76.5734 18.372 76.5734H17.781V77.5908H18.3551ZM17.5176 75.4785H17.781V76.3308H18.3822C18.9023 76.3308 19.2602 76.5936 19.2602 77.0652V77.072C19.2602 77.5672 18.8651 77.8367 18.3484 77.8367H17.521V75.4785H17.5176Z" fill="white" />
  <path d="M21.908 77.8367L22.391 77.0214L21.4082 75.4785H21.7088L22.5362 76.789L23.2725 75.4785H23.573L22.2019 77.8367H21.908Z" fill="white" />
  <path d="M24.9766 75.4785H25.24L26.0877 76.7654L26.9354 75.4785H27.1988V77.8367H26.9388V75.9266L26.0911 77.1899H26.0776L25.2299 75.9299V77.8367H24.9766V75.4785Z" fill="white" />
  <path d="M29.8551 76.6638V76.657C29.8551 76.1214 29.4701 75.6834 28.9399 75.6834C28.4096 75.6834 28.0314 76.1146 28.0314 76.6503V76.657C28.0314 77.1927 28.4164 77.6306 28.9466 77.6306C29.4768 77.6306 29.8551 77.1994 29.8551 76.6638ZM27.7578 76.6638V76.657C27.7578 76.0068 28.2408 75.4375 28.9466 75.4375C29.6525 75.4375 30.1287 76.0001 30.1287 76.6503V76.657C30.1287 77.3072 29.6457 77.8765 28.9399 77.8765C28.234 77.8765 27.7578 77.3139 27.7578 76.6638Z" fill="white" />
  <path d="M31.5153 76.762C31.9003 76.762 32.1536 76.5532 32.1536 76.2432V76.2365C32.1536 75.8996 31.9037 75.7244 31.5288 75.7244H30.9412V76.762H31.5153ZM30.6777 75.4785H31.5491C32.0725 75.4785 32.4204 75.7615 32.4204 76.2264V76.2331C32.4204 76.7418 32.0016 77.0046 31.5085 77.0046H30.9445V77.8367H30.6811V75.4785H30.6777Z" fill="white" />
  <path d="M33.661 75.7244C33.2861 75.7244 33.07 75.9064 33.07 76.1927C33.07 76.5195 33.3368 76.6812 33.6982 76.6812H34.3804V75.7244H33.661ZM34.6438 77.8367H34.3804V76.9204H33.7387L33.0396 77.8367H32.7188L33.4449 76.8901C33.0734 76.826 32.7998 76.5835 32.7998 76.1927C32.7998 75.748 33.1375 75.4785 33.6779 75.4785H34.6404V77.8367H34.6438Z" fill="white" />
  <path d="M0.788534 62.4579C0.788534 61.0632 1.96382 59.1228 4.63524 58.9072L4.65888 58.8735C4.62511 58.5434 4.52379 58.193 4.30089 58.1357C4.17931 58.102 4.03409 58.0919 3.95303 58.0919C3.90913 58.0919 3.86522 58.0683 3.86522 58.0246C3.86522 57.9572 3.92264 57.9336 4.04422 57.9336C4.41234 57.9336 5.11819 57.9673 5.17222 57.9673C5.22626 57.9673 5.93211 57.9336 6.26646 57.9336C6.38804 57.9336 6.44545 57.9572 6.44545 58.0246C6.44545 58.0683 6.40155 58.0919 6.35764 58.0919C6.27997 58.0919 6.21242 58.102 6.07733 58.1256C5.79702 58.1829 5.71934 58.5332 5.68557 58.8735L5.70921 58.9072C7.91119 59.0756 9.4985 60.3356 9.4985 62.2625C9.4985 64.1895 8.0125 65.6988 5.71934 65.948L5.6957 65.9817C5.7396 66.3894 5.67206 66.8778 6.13137 66.9452C6.28672 66.9688 6.53326 66.989 6.63458 66.989C6.70213 66.989 6.72239 67.0227 6.72239 67.0564C6.72239 67.1137 6.66498 67.1473 6.54339 67.1473C5.92873 67.1473 5.22288 67.1137 5.16885 67.1137C5.11481 67.1137 4.40896 67.1473 4.07461 67.1473C3.95303 67.1473 3.89562 67.1238 3.89562 67.0564C3.89562 67.0227 3.91926 66.989 3.98343 66.989C4.08474 66.989 4.21984 66.9654 4.31778 66.9452C4.65213 66.8644 4.59809 66.3793 4.67577 65.9817L4.65212 65.948C2.00435 65.756 0.785156 64.0076 0.785156 62.4546L0.788534 62.4579ZM4.56769 65.6112C4.62511 65.6347 4.67914 65.6112 4.67914 65.5101C4.70278 65.0014 4.70278 64.3546 4.70278 63.536V59.6584L4.67914 59.2845C4.68927 59.2036 4.63524 59.2036 4.59133 59.2171C2.99389 59.4226 1.78483 60.4973 1.78483 62.3232C1.78483 64.1491 3.00402 65.2844 4.56769 65.6112ZM5.64166 63.536C5.64166 64.3883 5.63153 65.0789 5.6653 65.5876C5.6653 65.6112 5.68895 65.6314 5.70921 65.6314C6.57041 65.6078 8.50221 64.9408 8.50221 62.5455C8.50221 60.7634 7.36069 59.6214 5.99965 59.2912C5.91184 59.2677 5.83079 59.2474 5.77675 59.2677C5.69908 59.3013 5.6653 59.3249 5.65517 59.6079L5.64504 59.7999V63.5292L5.64166 63.536Z" fill="white" />
  <path d="M15.2868 58.0918C17.8028 58.0918 19.6806 59.7021 19.6806 62.3433C19.6806 64.9844 17.9143 66.9821 15.2192 66.9821C12.156 66.9821 10.8828 64.5667 10.8828 62.5252C10.8828 60.6892 12.2033 58.0918 15.2868 58.0918ZM15.5198 66.5509C16.5262 66.5509 18.6032 65.9614 18.6032 62.6599C18.6032 59.9379 16.972 58.4758 15.2057 58.4758C13.3381 58.4758 11.9433 59.7223 11.9433 62.2085C11.9433 64.8497 13.5069 66.5509 15.5198 66.5509Z" fill="white" />
  <path d="M22.3867 61.538C22.3867 59.7693 22.3867 59.4527 22.3631 59.0888C22.3394 58.7048 22.2516 58.5229 21.8835 58.442C21.7957 58.4184 21.6032 58.4083 21.5019 58.4083C21.458 58.4083 21.4141 58.3848 21.4141 58.341C21.4141 58.2736 21.4715 58.25 21.5931 58.25C22.0963 58.25 22.7683 58.2837 22.8562 58.2837C23.1027 58.2837 23.7511 58.25 24.2645 58.25C25.6627 58.25 26.1659 58.725 26.3449 58.8968C26.5914 59.136 26.9021 59.6447 26.9021 60.2477C26.9021 61.858 25.7403 62.9461 24.153 62.9461C24.0956 62.9461 23.974 62.9462 23.9166 62.936C23.8592 62.936 23.795 62.9125 23.795 62.8552C23.795 62.7642 23.8626 62.7541 24.0956 62.7541C25.1797 62.7541 26.0308 61.949 26.0308 60.9046C26.0308 60.5307 25.997 59.7693 25.406 59.1596C24.815 58.5465 24.1328 58.5936 23.8761 58.5936C23.687 58.5936 23.4945 58.6172 23.3965 58.661C23.329 58.6846 23.3087 58.7621 23.3087 58.8766V63.5357C23.3087 64.6238 23.3087 65.5199 23.3661 65.9949C23.3999 66.3251 23.4674 66.5744 23.8018 66.6182C23.9571 66.6418 24.2037 66.662 24.305 66.662C24.3725 66.662 24.3928 66.6957 24.3928 66.7293C24.3928 66.7866 24.3354 66.8203 24.2138 66.8203C23.5992 66.8203 22.8933 66.7866 22.8393 66.7866C22.8055 66.7866 22.103 66.8203 21.7653 66.8203C21.6437 66.8203 21.5863 66.7967 21.5863 66.7293C21.5863 66.6957 21.6099 66.662 21.6741 66.662C21.7754 66.662 21.9071 66.6384 22.0085 66.6182C22.2314 66.5744 22.2888 66.3217 22.3327 65.9949C22.3901 65.5199 22.3901 64.6238 22.3901 63.5357V61.5413L22.3867 61.538Z" fill="white" />
  <path d="M31.9448 63.5325C31.9448 64.6206 31.9448 65.5167 32.0022 65.9917C32.036 66.3218 32.1035 66.5711 32.4379 66.6149C32.5932 66.6385 32.8398 66.6587 32.9411 66.6587C33.0086 66.6587 33.0289 66.6924 33.0289 66.7261C33.0289 66.7834 32.9715 66.8171 32.8499 66.8171C32.2353 66.8171 31.5294 66.7834 31.4754 66.7834C31.4213 66.7834 30.7155 66.8171 30.3811 66.8171C30.2596 66.8171 30.2021 66.7935 30.2021 66.7261C30.2021 66.6924 30.2258 66.6587 30.2899 66.6587C30.3913 66.6587 30.523 66.6352 30.6243 66.6149C30.8472 66.5711 30.9046 66.3185 30.9485 65.9917C31.0059 65.5167 31.0059 64.6206 31.0059 63.5325V58.7352L29.3511 58.7588C28.6587 58.7689 28.3885 58.8498 28.2096 59.1227C28.088 59.3147 28.0542 59.3955 28.0204 59.473C27.9867 59.564 27.9529 59.5876 27.909 59.5876C27.8752 59.5876 27.8516 59.5539 27.8516 59.4865C27.8516 59.372 28.0745 58.3984 28.0981 58.3074C28.1217 58.24 28.1656 58.0918 28.2096 58.0918C28.2872 58.0918 28.3987 58.2063 28.7026 58.2266C29.0268 58.2602 29.4524 58.2838 29.5841 58.2838H33.7753C34.4913 58.2838 34.7918 58.1693 34.883 58.1693C34.9404 58.1693 34.9404 58.2367 34.9404 58.304C34.9404 58.6443 34.9067 59.4259 34.9067 59.5505C34.9067 59.6516 34.8729 59.6987 34.829 59.6987C34.7716 59.6987 34.7513 59.665 34.7412 59.5067L34.731 59.3821C34.6871 59.0418 34.4305 58.7824 33.3565 58.7588L31.9482 58.7352V63.5325H31.9448Z" fill="white" />
  <path d="M1.5957 49.3031C1.5957 47.5344 1.5957 47.2178 1.57206 46.8539C1.54842 46.4699 1.46061 46.288 1.09249 46.2071C1.00468 46.1835 0.812174 46.1734 0.710856 46.1734C0.666951 46.1734 0.623047 46.1498 0.623047 46.106C0.623047 46.0387 0.68046 46.0151 0.802042 46.0151C1.30525 46.0151 1.96382 46.0488 2.03137 46.0488C2.13268 46.0488 2.78112 46.0151 3.11547 46.0151C3.23705 46.0151 3.29446 46.0387 3.29446 46.106C3.29446 46.1498 3.25056 46.1734 3.20665 46.1734C3.12898 46.1734 3.06143 46.1835 2.92634 46.2071C2.62576 46.2644 2.53458 46.4564 2.51432 46.8539C2.49067 47.2178 2.49067 47.5344 2.49067 49.3031V49.9836H2.53458C2.72371 49.768 4.74669 47.6827 5.14858 47.238C5.46267 46.9078 5.75311 46.6147 5.75311 46.4227C5.75311 46.288 5.6957 46.2172 5.60789 46.1835C5.55048 46.16 5.50657 46.1397 5.50657 46.0926C5.50657 46.0353 5.56399 46.0117 5.64166 46.0117C5.86456 46.0117 6.21242 46.0454 6.47922 46.0454C6.53664 46.0454 7.27288 46.0117 7.55319 46.0117C7.67478 46.0117 7.72206 46.0353 7.72206 46.0926C7.72206 46.1498 7.69842 46.1734 7.61061 46.1734C7.44175 46.1734 7.20871 46.2307 6.98581 46.3318C6.52651 46.5373 6.27997 46.8202 5.78013 47.3054C5.49982 47.5782 3.55451 49.5052 3.32148 49.7882C3.61193 50.1183 5.93548 52.554 6.39479 52.9852C7.33367 53.8712 7.5228 54.0498 8.05978 54.2788C8.35023 54.4035 8.67445 54.4271 8.75212 54.4271C8.8298 54.4271 8.89735 54.4506 8.89735 54.4944C8.89735 54.5517 8.83993 54.5854 8.65081 54.5854H8.08005C7.76596 54.5854 7.55319 54.5854 7.31003 54.5618C6.71901 54.5045 6.4387 54.2552 5.95913 53.8712C5.45591 53.4501 3.08507 50.8561 2.55147 50.1857H2.49405V51.2974C2.49405 52.3855 2.49405 53.2817 2.55147 53.7567C2.58524 54.0868 2.65278 54.3361 2.98713 54.3799C3.14249 54.4035 3.32148 54.4237 3.4228 54.4237C3.49034 54.4237 3.51399 54.4574 3.51399 54.4911C3.51399 54.5483 3.45657 54.582 3.33499 54.582C2.78787 54.582 2.13944 54.5483 2.04825 54.5483C1.95707 54.5483 1.31201 54.582 0.974282 54.582C0.852701 54.582 0.795287 54.5584 0.795287 54.4911C0.795287 54.4574 0.818928 54.4237 0.883096 54.4237C0.984414 54.4237 1.11613 54.4001 1.21745 54.3799C1.44035 54.3361 1.49776 54.0834 1.54166 53.7567C1.59908 53.2817 1.59908 52.3855 1.59908 51.2974V49.3031H1.5957Z" fill="white" />
  <path d="M10.0019 49.3026C10.0019 47.534 10.0019 47.2173 9.97831 46.8535C9.95467 46.4694 9.86686 46.2875 9.49874 46.2067C9.41093 46.1831 9.21842 46.173 9.11711 46.173C9.0732 46.173 9.0293 46.1494 9.0293 46.1056C9.0293 46.0382 9.08671 46.0146 9.20829 46.0146C9.7115 46.0146 10.3836 46.0483 10.4714 46.0483C10.7179 46.0483 11.3664 46.0146 11.8797 46.0146C13.2779 46.0146 13.7811 46.4897 13.9601 46.6615C14.2066 46.9007 14.5174 47.4093 14.5174 48.0124C14.5174 49.6227 13.3556 50.7108 11.7683 50.7108C11.7108 50.7108 11.5893 50.7108 11.5319 50.7007C11.4744 50.7007 11.4103 50.6771 11.4103 50.6198C11.4103 50.5289 11.4778 50.5188 11.7108 50.5188C12.7949 50.5188 13.646 49.7136 13.646 48.6693C13.646 48.2953 13.6122 47.534 13.0212 46.9242C12.4302 46.3111 11.748 46.3583 11.4913 46.3583C11.3022 46.3583 11.1097 46.3819 11.0118 46.4256C10.9442 46.4492 10.9239 46.5267 10.9239 46.6413V51.3003C10.9239 52.3885 10.9239 53.2846 10.9814 53.7596C11.0151 54.0897 11.0827 54.339 11.417 54.3828C11.5724 54.4064 11.8189 54.4266 11.9202 54.4266C11.9878 54.4266 12.008 54.4603 12.008 54.494C12.008 54.5513 11.9506 54.5849 11.829 54.5849C11.2144 54.5849 10.5085 54.5513 10.4545 54.5513C10.4207 54.5513 9.71826 54.5849 9.38053 54.5849C9.25895 54.5849 9.20154 54.5614 9.20154 54.494C9.20154 54.4603 9.22518 54.4266 9.28935 54.4266C9.39066 54.4266 9.52238 54.403 9.6237 54.3828C9.8466 54.339 9.90401 54.0864 9.94791 53.7596C10.0053 53.2846 10.0053 52.3885 10.0053 51.3003V49.306L10.0019 49.3026Z" fill="white" />
  <path d="M20.3063 45.8564C22.8224 45.8564 24.7001 47.4667 24.7001 50.1079C24.7001 52.7491 22.9338 54.7468 20.2388 54.7468C17.1756 54.7468 15.9023 52.3313 15.9023 50.2898C15.9023 48.4538 17.2229 45.8564 20.3063 45.8564ZM20.5393 54.3156C21.5458 54.3156 23.6228 53.726 23.6228 50.4246C23.6228 47.7026 21.9916 46.2405 20.2252 46.2405C18.3576 46.2405 16.9628 47.487 16.9628 49.9732C16.9628 52.6143 18.5265 54.3156 20.5393 54.3156Z" fill="white" />
  <path d="M34.154 51.297C34.154 52.3851 34.154 53.2812 34.2114 53.7562C34.2452 54.0864 34.3128 54.3357 34.6471 54.3795C34.8025 54.403 35.049 54.4232 35.1503 54.4232C35.2179 54.4232 35.2415 54.4569 35.2415 54.4906C35.2415 54.5479 35.1841 54.5816 35.0625 54.5816C34.4478 54.5816 33.742 54.5479 33.688 54.5479C33.6339 54.5479 32.9281 54.5816 32.5937 54.5816C32.4721 54.5816 32.4147 54.558 32.4147 54.4906C32.4147 54.4569 32.4384 54.4232 32.5025 54.4232C32.6039 54.4232 32.7389 54.3997 32.8369 54.3795C33.0598 54.3357 33.1172 54.083 33.1611 53.7562C33.2185 53.2812 33.2185 52.3851 33.2185 51.297V50.2324C33.2185 50.1886 33.1847 50.165 33.151 50.165H28.4127C28.3789 50.165 28.3451 50.1751 28.3451 50.2324V51.297C28.3451 52.3851 28.3451 53.2812 28.4025 53.7562C28.4363 54.0864 28.5039 54.3357 28.8382 54.3795C28.9936 54.403 29.2401 54.4232 29.3414 54.4232C29.409 54.4232 29.4292 54.4569 29.4292 54.4906C29.4292 54.5479 29.3718 54.5816 29.2502 54.5816C28.6356 54.5816 27.9297 54.5479 27.8757 54.5479C27.8216 54.5479 27.1158 54.5816 26.7815 54.5816C26.6599 54.5816 26.6025 54.558 26.6025 54.4906C26.6025 54.4569 26.6261 54.4232 26.6903 54.4232C26.7916 54.4232 26.9233 54.3997 27.0246 54.3795C27.2475 54.3357 27.3049 54.083 27.3488 53.7562C27.4062 53.2812 27.4062 52.3851 27.4062 51.297V49.3026C27.4062 47.534 27.4062 47.2173 27.3826 46.8535C27.359 46.4694 27.2712 46.2875 26.903 46.2067C26.8152 46.1831 26.6227 46.173 26.5214 46.173C26.4775 46.173 26.4336 46.1494 26.4336 46.1056C26.4336 46.0382 26.491 46.0146 26.6126 46.0146C27.1158 46.0146 27.8183 46.0483 27.8757 46.0483C27.9331 46.0483 28.6356 46.0146 28.9699 46.0146C29.0915 46.0146 29.1489 46.0382 29.1489 46.1056C29.1489 46.1494 29.105 46.173 29.0611 46.173C28.9834 46.173 28.9159 46.1831 28.7808 46.2067C28.4802 46.2639 28.389 46.456 28.3688 46.8535C28.3451 47.2173 28.3451 47.6586 28.3451 49.4273V49.6665C28.3451 49.7237 28.3789 49.7338 28.4127 49.7338H33.151C33.1847 49.7338 33.2185 49.7237 33.2185 49.6665V49.4273C33.2185 47.6586 33.2185 47.2173 33.1949 46.8535C33.1712 46.4694 33.0834 46.2875 32.7153 46.2067C32.6275 46.1831 32.435 46.173 32.3371 46.173C32.2931 46.173 32.2459 46.1494 32.2459 46.1056C32.2459 46.0382 32.3033 46.0146 32.4249 46.0146C32.9281 46.0146 33.6305 46.0483 33.688 46.0483C33.7454 46.0483 34.4478 46.0146 34.7822 46.0146C34.9038 46.0146 34.9612 46.0382 34.9612 46.1056C34.9612 46.1494 34.9173 46.173 34.8734 46.173C34.7957 46.173 34.7282 46.1831 34.5931 46.2067C34.2925 46.2639 34.2013 46.456 34.181 46.8535C34.1574 47.2173 34.1574 47.534 34.1574 49.3026V51.297H34.154Z" fill="white" />
  <path d="M0.9375 70.7119H34.5244" stroke="#D38F6D" stroke-miterlimit="10" />
  <path d="M35.5122 4.51433V2.55844C31.5235 1.25793 27.5483 -0.288352 23.3492 2.33998C15.4803 7.20752 8.3846 -2.55486 0.515625 2.2444V7.88679C7.40777 0.367024 17.0744 8.00626 23.3526 2.61305C23.3526 4.08765 23.3526 6.71598 23.3526 8.03356C19.8659 6.90372 16.3655 6.01282 12.699 8.31005C8.49653 10.9077 4.51456 9.33407 0.519017 8.03698V10.3581C4.92158 10.6073 9.30717 11.5016 12.699 8.58312V14.0036C8.70343 12.7031 4.72146 11.1432 0.519017 13.7647V19.4514C7.41794 11.7644 17.1422 19.4924 23.4476 14.0787V19.4924C19.9303 18.3489 16.4028 17.4205 12.7024 19.7382C8.49993 22.3392 4.51795 20.7656 0.519017 19.4651V21.7862C4.92158 22.0354 9.30378 22.9263 12.699 20.0112V25.4352C8.70343 24.1381 4.72146 22.5474 0.519017 25.1109V30.7567C7.41116 23.2369 17.0778 30.8727 23.356 25.483C23.356 26.9576 23.356 29.5756 23.356 30.8966C19.876 29.7702 16.3859 28.8861 12.7227 31.18C8.51349 33.781 4.52473 32.1972 0.519017 30.8966V33.2246C4.92836 33.4704 9.32074 34.3715 12.7227 31.453V36.877C19.5674 29.2207 29.2035 36.7848 35.5156 31.61V31.3028C31.3234 33.798 27.3516 32.1903 23.3594 30.9001C26.9411 26.9029 31.2827 27.0634 35.5156 27.3842V25.4283C31.5269 24.1278 27.5517 22.5816 23.3526 25.2099C19.6861 27.4764 16.1857 26.565 12.699 25.4352C19.5538 17.7686 29.2035 25.3601 35.5156 20.1478V19.8474C31.3539 22.3392 27.4092 20.7827 23.451 19.4958C27.0056 15.526 31.3132 15.6557 35.5156 15.9732V13.9934C31.5574 12.6997 27.6093 11.1978 23.4442 13.8057C19.7437 16.0926 16.2163 15.1471 12.7024 14.0036C19.5572 6.34392 29.2035 13.932 35.5156 8.71966V8.41587C31.3234 10.9281 27.3482 9.32384 23.356 8.03356C26.9378 4.02962 31.2827 4.19005 35.5156 4.51433" fill="#D38F6D" />
</svg>
