<svg width="90" height="190" viewBox="0 0 90 190" fill="none" xmlns="http://www.w3.org/2000/svg">
<rect y="0.5" width="90" height="189" rx="2" fill="transparent"/>
<path d="M17.1406 153.545H17.4102V155.204H18.1436L19.7828 153.545H20.1494L18.3808 155.311L20.2249 157.216H19.8475L18.1543 155.461H17.4102V157.216H17.1406V153.545Z" fill="#ffffff"/>
<path d="M23.8278 156.21C23.8278 155.75 23.4395 155.493 22.7062 155.493H21.4552V156.97H22.7925C23.4287 156.97 23.8278 156.681 23.8278 156.221V156.21ZM23.6229 154.465C23.6229 154.058 23.2993 153.791 22.6954 153.791H21.4445V155.236H22.6631C23.2131 155.236 23.6121 154.968 23.6121 154.476L23.6229 154.465ZM21.1748 153.523H22.6954C23.116 153.523 23.4503 153.641 23.6552 153.844C23.817 154.005 23.8925 154.198 23.8925 154.422C23.8925 154.936 23.5689 155.182 23.267 155.3C23.7091 155.418 24.0974 155.675 24.0974 156.178C24.0974 156.799 23.5689 157.184 22.7709 157.184H21.1641V153.512L21.1748 153.523Z" fill="#ffffff"/>
<path d="M27.677 155.942L26.7064 153.823L25.7359 155.942H27.6878H27.677ZM26.577 153.523H26.8359L28.5613 157.216H28.2594L27.7849 156.188H25.6065L25.132 157.216H24.8516L26.577 153.523Z" fill="#ffffff"/>
<path d="M30.9015 155.6C31.5917 155.6 32.0554 155.247 32.0554 154.701C32.0554 154.112 31.5917 153.802 30.9339 153.802H29.8878V155.6H30.9015ZM29.6182 153.555H30.9554C31.7643 153.555 32.325 153.973 32.325 154.679C32.325 155.461 31.6564 155.857 30.88 155.857H29.877V157.227H29.6074V153.555H29.6182Z" fill="#ffffff"/>
<path d="M34.3966 153.802H33.1133V153.545H35.9603V153.802H34.677V157.216H34.3966V153.802Z" fill="#ffffff"/>
<path d="M39.0872 155.942L38.1166 153.823L37.146 155.942H39.098H39.0872ZM37.9872 153.523H38.246L39.9715 157.216H39.6695L39.195 156.188H37.0166L36.5421 157.216H36.2617L37.9872 153.523Z" fill="#ffffff"/>
<path d="M44.2084 157.216H43.8957L42.3967 153.855L40.8869 157.216H40.5957L42.278 153.523H42.5261L44.2084 157.216Z" fill="#ffffff"/>
<path d="M48.7382 153.545H49.0186V157.216H48.7382V153.545ZM46.5382 156.959C47.2176 156.959 47.6922 156.606 47.6922 156.071C47.6922 155.482 47.2284 155.182 46.5706 155.182H45.5245V156.959H46.5382ZM45.2549 153.545H45.5245V154.936H46.5922C47.401 154.936 47.9618 155.354 47.9618 156.049C47.9618 156.831 47.2824 157.216 46.5167 157.216H45.2441V153.545H45.2549Z" fill="#ffffff"/>
<path d="M52.6956 157.216L53.4829 155.942L51.8652 153.545H52.1888L53.6338 155.718L54.9172 153.545H55.2299L53.0084 157.216H52.6956Z" fill="#ffffff"/>
<path d="M58.0449 153.545H58.3037L59.792 155.718L61.2694 153.545H61.5282V157.216H61.2586V154.026L59.792 156.146H59.7704L58.3145 154.026V157.216H58.0449V153.545Z" fill="#ffffff"/>
<path d="M66.1657 155.396C66.1657 154.476 65.4971 153.737 64.5912 153.737C63.6853 153.737 63.0275 154.465 63.0275 155.375C63.0275 156.295 63.6961 157.034 64.602 157.034C65.5079 157.034 66.1657 156.295 66.1657 155.396ZM62.7363 155.396C62.7363 154.379 63.4804 153.491 64.602 153.491C65.7235 153.491 66.4569 154.379 66.4569 155.375C66.4569 156.392 65.7128 157.28 64.5912 157.28C63.4697 157.28 62.7363 156.392 62.7363 155.396Z" fill="#ffffff"/>
<path d="M68.9386 155.6C69.6288 155.6 70.0925 155.247 70.0925 154.701C70.0925 154.112 69.6288 153.802 68.971 153.802H67.9249V155.6H68.9386ZM67.6553 153.555H68.9926C69.8014 153.555 70.3621 153.973 70.3621 154.679C70.3621 155.461 69.6935 155.857 68.9171 155.857H67.9141V157.227H67.6445V153.555H67.6553Z" fill="#ffffff"/>
<path d="M72.6151 153.802C71.9465 153.802 71.5582 154.123 71.5582 154.604C71.5582 155.182 72.0543 155.45 72.7014 155.45H73.8876V153.802H72.6151ZM74.1572 157.216H73.8768V155.696H72.7121L71.4935 157.216H71.1484L72.3994 155.675C71.7631 155.611 71.2886 155.225 71.2886 154.604C71.2886 153.984 71.7955 153.555 72.6259 153.555H74.1572V157.227V157.216Z" fill="#ffffff"/>
<path d="M25.7678 173.433H22.7051V169.44H23.5894V172.63H25.1962V169.44H26.0805V172.63H26.5982V174.246H25.7678V173.433Z" fill="#ffffff"/>
<path d="M27.2363 169.44H30.2667V170.221H28.1206V171.035H30.0079V171.816H28.1206V172.651H30.299V173.433H27.2363V169.44Z" fill="#ffffff"/>
<path d="M31.0859 169.44H31.9702V171.024H33.5987V169.44H34.483V173.433H33.5987V171.827H31.9702V173.433H31.0859V169.44Z" fill="#ffffff"/>
<path d="M36.3807 170.253H35.1621V169.44H38.4944V170.253H37.265V173.433H36.3807V170.253Z" fill="#ffffff"/>
<path d="M40.7474 171.452C41.1895 171.452 41.4484 171.195 41.4484 170.842C41.4484 170.435 41.168 170.232 40.7366 170.232H40.0572V171.452H40.7582H40.7474ZM39.1621 169.44H40.8013C41.7611 169.44 42.3434 169.997 42.3434 170.821C42.3434 171.763 41.6209 172.234 40.715 172.234H40.0464V173.433H39.1621V169.44Z" fill="#ffffff"/>
<path d="M44.9107 171.763L44.3715 170.467L43.8431 171.763H44.9107ZM43.9833 169.418H44.8029L46.5284 173.432H45.6009L45.2342 172.533H43.5303L43.1637 173.432H42.2578L43.9833 169.418Z" fill="#ffffff"/>
<path d="M50.8208 173.432H49.8502L48.7287 170.649L47.6287 173.432H46.6797L48.362 169.418H49.1385L50.8208 173.432Z" fill="#ffffff"/>
<path d="M53.0198 172.64C53.4512 172.64 53.7208 172.448 53.7208 172.062C53.7208 171.688 53.4835 171.484 53.0198 171.484H52.3188V172.651H53.009L53.0198 172.64ZM51.4453 169.44H52.3296V170.692H53.0414C54.0119 170.692 54.6266 171.153 54.6266 172.041C54.6266 172.897 54.0551 173.433 53.009 173.433H51.4453V169.44Z" fill="#ffffff"/>
<path d="M55.3066 169.44H56.1909V171.024H57.8194V169.44H58.7037V173.433H57.8194V171.827H56.1909V173.433H55.3066V169.44Z" fill="#ffffff"/>
<path d="M63.4375 169.44H64.3218V173.433H63.4375V169.44ZM61.2483 172.64C61.6797 172.64 61.9493 172.448 61.9493 172.062C61.9493 171.688 61.712 171.484 61.2483 171.484H60.5473V172.651H61.2375L61.2483 172.64ZM59.6738 169.44H60.5581V170.692H61.2699C62.2405 170.692 62.8552 171.153 62.8552 172.041C62.8552 172.897 62.2836 173.433 61.2375 173.433H59.6738V169.44Z" fill="#ffffff"/>
<path d="M65.9832 168.295H66.5763C66.641 168.477 66.7812 168.573 67.0724 168.573C67.3635 168.573 67.4929 168.466 67.5684 168.295H68.1616C68.1076 168.841 67.6871 169.14 67.0724 169.14C66.4577 169.14 66.0371 168.841 65.9832 168.295ZM67.9782 173.433V170.832L66.0694 173.433H65.293V169.44H66.1773V171.966L68.0214 169.44H68.8625V173.433H67.9782Z" fill="#ffffff"/>
<path d="M16.1699 131.687C16.1699 129.3 18.2189 125.982 22.8885 125.618L22.9316 125.564C22.8777 124.997 22.6944 124.397 22.3061 124.301C22.0904 124.248 21.8424 124.226 21.7022 124.226C21.6267 124.226 21.5512 124.183 21.5512 124.108C21.5512 123.991 21.6483 123.958 21.864 123.958C22.511 123.958 23.7404 124.012 23.8375 124.012C23.9345 124.012 25.1639 123.958 25.7463 123.958C25.962 123.958 26.059 124.001 26.059 124.108C26.059 124.183 25.9835 124.226 25.908 124.226C25.7679 124.226 25.6492 124.248 25.4228 124.28C24.9375 124.376 24.7973 124.975 24.7434 125.564L24.7865 125.618C28.6364 125.907 31.408 128.058 31.408 131.355C31.408 134.652 28.809 137.231 24.8081 137.66L24.7649 137.713C24.8404 138.409 24.7218 139.244 25.5306 139.362C25.8002 139.404 26.2316 139.436 26.4149 139.436C26.5335 139.436 26.5767 139.49 26.5767 139.554C26.5767 139.651 26.4796 139.704 26.2639 139.704C25.1855 139.704 23.9561 139.651 23.859 139.651C23.762 139.651 22.5326 139.704 21.9395 139.704C21.7238 139.704 21.6267 139.661 21.6267 139.554C21.6267 139.501 21.6699 139.436 21.7885 139.436C21.961 139.436 22.1983 139.394 22.3708 139.362C22.9532 139.222 22.8561 138.387 22.9963 137.713L22.9532 137.66C18.3268 137.328 16.1915 134.341 16.1915 131.687H16.1699ZM22.7698 137.082C22.8669 137.124 22.964 137.082 22.964 136.91C23.0071 136.043 23.0071 134.93 23.0071 133.539V126.913L22.964 126.271C22.9855 126.131 22.8885 126.131 22.8022 126.153C20.0091 126.506 17.8954 128.347 17.8954 131.462C17.8954 134.577 20.0199 136.525 22.7591 137.082H22.7698ZM24.6463 133.539C24.6463 134.994 24.6247 136.172 24.6894 137.05C24.6894 137.092 24.7326 137.124 24.7649 137.124C26.2639 137.082 29.6502 135.947 29.6502 131.847C29.6502 128.807 27.6551 126.849 25.2718 126.281C25.1208 126.238 24.9806 126.206 24.8835 126.238C24.7434 126.292 24.6894 126.335 24.6679 126.816L24.6463 127.148V133.528V133.539Z" fill="#ffffff"/>
<path d="M41.5026 124.215C45.9026 124.215 49.181 126.966 49.181 131.483C49.181 136 46.0967 139.415 41.384 139.415C36.0351 139.415 33.8027 135.283 33.8027 131.794C33.8027 128.657 36.1106 124.215 41.5026 124.215ZM41.9124 138.676C43.6703 138.676 47.3045 137.67 47.3045 132.029C47.3045 127.373 44.4575 124.879 41.3625 124.879C38.1056 124.879 35.6576 127.009 35.6576 131.259C35.6576 135.776 38.3968 138.687 41.9017 138.687L41.9124 138.676Z" fill="#ffffff"/>
<path d="M53.9031 130.113C53.9031 127.084 53.9031 126.549 53.86 125.928C53.8168 125.264 53.6659 124.954 53.0188 124.825C52.8678 124.783 52.5335 124.772 52.3502 124.772C52.2747 124.772 52.1992 124.729 52.1992 124.654C52.1992 124.536 52.2963 124.494 52.512 124.494C53.3855 124.494 54.561 124.547 54.7227 124.547C55.1541 124.547 56.2864 124.494 57.1815 124.494C59.6187 124.494 60.503 125.307 60.8158 125.596C61.2472 126.003 61.7972 126.881 61.7972 127.908C61.7972 130.659 59.7697 132.522 56.9874 132.522C56.8903 132.522 56.6747 132.522 56.5776 132.5C56.4805 132.5 56.3619 132.457 56.3619 132.361C56.3619 132.211 56.4805 132.19 56.8903 132.19C58.7884 132.19 60.2658 130.809 60.2658 129.032C60.2658 128.39 60.2119 127.095 59.1766 126.046C58.1413 124.997 56.9551 125.072 56.5021 125.072C56.1678 125.072 55.8335 125.114 55.6609 125.189C55.5423 125.232 55.51 125.361 55.51 125.553V133.517C55.51 135.38 55.51 136.91 55.607 137.724C55.6609 138.291 55.7796 138.709 56.3727 138.794C56.6423 138.837 57.0737 138.869 57.2462 138.869C57.3648 138.869 57.3972 138.923 57.3972 138.987C57.3972 139.083 57.3001 139.147 57.0845 139.147C56.006 139.147 54.7766 139.094 54.6796 139.094C54.6257 139.094 53.3855 139.147 52.8031 139.147C52.5875 139.147 52.4904 139.105 52.4904 138.987C52.4904 138.933 52.5335 138.869 52.6414 138.869C52.8139 138.869 53.0512 138.826 53.2237 138.794C53.6119 138.719 53.709 138.291 53.7953 137.724C53.8923 136.91 53.8923 135.38 53.8923 133.517V130.103L53.9031 130.113Z" fill="#ffffff"/>
<path d="M70.5972 133.528C70.5972 135.39 70.5972 136.921 70.6942 137.735C70.7482 138.302 70.8668 138.719 71.4599 138.805C71.7295 138.848 72.1609 138.88 72.3334 138.88C72.4521 138.88 72.4952 138.933 72.4952 138.998C72.4952 139.094 72.3981 139.158 72.1825 139.158C71.104 139.158 69.8746 139.105 69.7776 139.105C69.6805 139.105 68.4511 139.158 67.8688 139.158C67.6531 139.158 67.556 139.115 67.556 138.998C67.556 138.944 67.5992 138.88 67.7178 138.88C67.8904 138.88 68.1276 138.837 68.3002 138.805C68.6884 138.73 68.7854 138.302 68.8609 137.735C68.958 136.921 68.958 135.39 68.958 133.528V125.329L66.0678 125.371C64.86 125.393 64.3855 125.521 64.0727 125.992C63.8571 126.324 63.8031 126.453 63.7384 126.592C63.6845 126.752 63.6198 126.784 63.5443 126.784C63.4904 126.784 63.4473 126.731 63.4473 126.613C63.4473 126.42 63.8355 124.751 63.8786 124.601C63.9218 124.483 63.9973 124.237 64.0727 124.237C64.2129 124.237 64.4071 124.429 64.9355 124.472C65.507 124.526 66.2404 124.569 66.4776 124.569H73.8001C75.0511 124.569 75.5795 124.376 75.7305 124.376C75.8275 124.376 75.8275 124.494 75.8275 124.611C75.8275 125.189 75.7736 126.527 75.7736 126.742C75.7736 126.913 75.7197 126.998 75.6334 126.998C75.5363 126.998 75.4932 126.945 75.4716 126.667L75.4501 126.453C75.3746 125.875 74.9216 125.425 73.0452 125.382L70.5864 125.339V133.539L70.5972 133.528Z" fill="#ffffff"/>
<path d="M17.325 109.197C17.325 106.168 17.325 105.633 17.2819 105.012C17.2387 104.349 17.0877 104.038 16.4407 103.91C16.2897 103.867 15.9554 103.856 15.7721 103.856C15.6966 103.856 15.6211 103.813 15.6211 103.738C15.6211 103.621 15.7182 103.578 15.9338 103.578C16.8181 103.578 17.9613 103.631 18.0799 103.631C18.2524 103.631 19.3848 103.578 19.9779 103.578C20.1936 103.578 20.2906 103.621 20.2906 103.738C20.2906 103.813 20.2152 103.856 20.1397 103.856C19.9995 103.856 19.8808 103.878 19.6544 103.91C19.126 104.006 18.975 104.338 18.9318 105.012C18.8887 105.633 18.8887 106.179 18.8887 109.197V110.364H18.9642C19.2985 110 22.8357 106.425 23.5367 105.676C24.0867 105.109 24.5935 104.605 24.5935 104.284C24.5935 104.049 24.4965 103.931 24.3347 103.878C24.2377 103.835 24.1622 103.803 24.1622 103.728C24.1622 103.631 24.2592 103.589 24.3994 103.589C24.7877 103.589 25.3916 103.642 25.8661 103.642C25.9631 103.642 27.2572 103.589 27.7425 103.589C27.9582 103.589 28.0337 103.631 28.0337 103.728C28.0337 103.824 27.9906 103.867 27.8396 103.867C27.5484 103.867 27.1386 103.963 26.7504 104.134C25.9523 104.488 25.521 104.969 24.6367 105.804C24.1514 106.265 20.7544 109.561 20.3446 110.054C20.8514 110.621 24.9171 114.785 25.7151 115.524C27.3543 117.033 27.6886 117.343 28.6268 117.729C29.1337 117.943 29.7052 117.985 29.8347 117.985C29.9641 117.985 30.0827 118.028 30.0827 118.103C30.0827 118.2 29.9856 118.264 29.6513 118.264H28.6592C28.1092 118.264 27.7425 118.264 27.3112 118.221C26.2759 118.125 25.7906 117.696 24.9494 117.033C24.0759 116.316 19.9348 111.873 18.9965 110.728H18.8995V112.633C18.8995 114.496 18.8995 116.027 18.9965 116.84C19.0505 117.407 19.1691 117.825 19.7622 117.911C20.0318 117.953 20.3446 117.985 20.5279 117.985C20.6465 117.985 20.6897 118.039 20.6897 118.103C20.6897 118.2 20.5926 118.264 20.3769 118.264C19.4171 118.264 18.2848 118.21 18.1338 118.21C17.9828 118.21 16.8397 118.264 16.2574 118.264C16.0417 118.264 15.9446 118.221 15.9446 118.103C15.9446 118.05 15.9878 117.985 16.0956 117.985C16.2681 117.985 16.5054 117.943 16.6779 117.911C17.0662 117.836 17.1632 117.407 17.2387 116.84C17.3358 116.027 17.3358 114.496 17.3358 112.633V109.219L17.325 109.197Z" fill="#ffffff"/>
<path d="M32.0125 109.197C32.0125 106.168 32.0125 105.633 31.9694 105.012C31.9262 104.349 31.7752 104.038 31.1282 103.91C30.9772 103.867 30.6429 103.856 30.4596 103.856C30.3841 103.856 30.3086 103.813 30.3086 103.738C30.3086 103.621 30.4057 103.578 30.6213 103.578C31.5056 103.578 32.6703 103.631 32.8321 103.631C33.2635 103.631 34.3958 103.578 35.2909 103.578C37.7281 103.578 38.6124 104.391 38.9252 104.68C39.3565 105.087 39.9065 105.965 39.9065 106.992C39.9065 109.743 37.8791 111.606 35.0968 111.606C34.9997 111.606 34.784 111.606 34.687 111.584C34.5899 111.584 34.4713 111.542 34.4713 111.445C34.4713 111.295 34.5899 111.274 34.9997 111.274C36.8977 111.274 38.3752 109.893 38.3752 108.116C38.3752 107.474 38.3212 106.179 37.286 105.13C36.2507 104.081 35.0536 104.156 34.6115 104.156C34.2772 104.156 33.9429 104.199 33.7703 104.274C33.6517 104.316 33.6086 104.445 33.6086 104.638V112.601C33.6086 114.464 33.6086 115.995 33.7056 116.808C33.7595 117.375 33.8782 117.793 34.4713 117.878C34.7409 117.921 35.1723 117.953 35.3556 117.953C35.4742 117.953 35.5066 118.007 35.5066 118.071C35.5066 118.167 35.4095 118.232 35.1938 118.232C34.1154 118.232 32.886 118.178 32.789 118.178C32.735 118.178 31.4949 118.232 30.9125 118.232C30.6968 118.232 30.5998 118.189 30.5998 118.071C30.5998 118.018 30.6429 117.953 30.7615 117.953C30.9341 117.953 31.1713 117.911 31.3439 117.878C31.7321 117.804 31.8292 117.375 31.9154 116.808C32.0125 115.995 32.0125 114.464 32.0125 112.601V109.187V109.197Z" fill="#ffffff"/>
<path d="M50.0222 103.3C54.4113 103.3 57.7005 106.05 57.7005 110.568C57.7005 115.085 54.6162 118.499 49.9036 118.499C44.5546 118.499 42.3223 114.368 42.3223 110.878C42.3223 107.742 44.6301 103.3 50.0222 103.3ZM50.432 117.761C52.1898 117.761 55.8241 116.755 55.8241 111.113C55.8241 106.457 52.977 103.963 49.882 103.963C46.6144 103.963 44.1771 106.093 44.1771 110.343C44.1771 114.86 46.9163 117.771 50.432 117.771V117.761Z" fill="#ffffff"/>
<path d="M74.211 112.612C74.211 114.475 74.211 116.005 74.308 116.819C74.3619 117.386 74.4806 117.804 75.0737 117.889C75.3433 117.932 75.7747 117.964 75.9472 117.964C76.0658 117.964 76.0982 118.018 76.0982 118.082C76.0982 118.178 76.0011 118.242 75.7855 118.242C74.707 118.242 73.4776 118.189 73.3806 118.189C73.2835 118.189 72.0541 118.242 71.4718 118.242C71.2561 118.242 71.159 118.2 71.159 118.082C71.159 118.028 71.2022 117.964 71.31 117.964C71.4826 117.964 71.7198 117.921 71.8924 117.889C72.2806 117.814 72.3776 117.386 72.4639 116.819C72.561 116.005 72.561 114.475 72.561 112.612V110.792C72.561 110.717 72.5071 110.675 72.4424 110.675H64.1601C64.1062 110.675 64.0415 110.696 64.0415 110.792V112.612C64.0415 114.475 64.0415 116.005 64.1385 116.819C64.1924 117.386 64.3111 117.804 64.9042 117.889C65.1738 117.932 65.6052 117.964 65.7777 117.964C65.8963 117.964 65.9287 118.018 65.9287 118.082C65.9287 118.178 65.8316 118.242 65.616 118.242C64.5375 118.242 63.3081 118.189 63.2111 118.189C63.114 118.189 61.8846 118.242 61.2915 118.242C61.0758 118.242 60.9788 118.2 60.9788 118.082C60.9788 118.028 61.0219 117.964 61.1297 117.964C61.3023 117.964 61.5395 117.921 61.7121 117.889C62.1003 117.814 62.1974 117.386 62.2729 116.819C62.3699 116.005 62.3699 114.475 62.3699 112.612V109.197C62.3699 106.168 62.3699 105.633 62.3268 105.012C62.2836 104.349 62.1327 104.038 61.4856 103.91C61.3346 103.867 61.0003 103.856 60.817 103.856C60.7415 103.856 60.666 103.813 60.666 103.738C60.666 103.621 60.7631 103.578 60.9788 103.578C61.8631 103.578 63.0925 103.631 63.1895 103.631C63.2866 103.631 64.516 103.578 65.1091 103.578C65.3248 103.578 65.4218 103.621 65.4218 103.738C65.4218 103.813 65.3464 103.856 65.2709 103.856C65.1307 103.856 65.012 103.878 64.7856 103.91C64.2572 104.006 64.1062 104.338 64.063 105.012C64.0199 105.633 64.0199 106.393 64.0199 109.412V109.818C64.0199 109.915 64.0738 109.936 64.1385 109.936H72.4208C72.4747 109.936 72.5394 109.915 72.5394 109.818V109.412C72.5394 106.382 72.5394 105.633 72.4963 105.012C72.4531 104.349 72.3022 104.038 71.6551 103.91C71.4933 103.867 71.1698 103.856 70.9865 103.856C70.911 103.856 70.8355 103.813 70.8355 103.738C70.8355 103.621 70.9326 103.578 71.1483 103.578C72.0326 103.578 73.262 103.631 73.359 103.631C73.4561 103.631 74.6855 103.578 75.2786 103.578C75.4943 103.578 75.5913 103.621 75.5913 103.738C75.5913 103.813 75.5158 103.856 75.4296 103.856C75.2894 103.856 75.1815 103.878 74.9443 103.91C74.4159 104.006 74.2649 104.338 74.2217 105.012C74.1786 105.633 74.1786 106.179 74.1786 109.197V112.612H74.211Z" fill="#ffffff"/>
<path d="M16.4414 161.498H75.1182" stroke="#F47422" stroke-miterlimit="10"/>
<path d="M16.4414 148.257H75.1182" stroke="#F47422" stroke-miterlimit="10"/>
<path d="M76.2709 30.9087V27.6012C69.3151 25.3962 62.3916 22.7844 55.0691 27.2372C41.3516 35.4579 28.9822 18.9523 15.2647 27.066V36.6033C27.2783 23.8976 44.134 36.8066 55.0691 27.6975C55.0691 30.1916 55.0691 34.6337 55.0691 36.8602C48.9869 34.9548 42.8938 33.4456 36.4988 37.3311C29.1763 41.7198 22.2313 39.0652 15.2647 36.8709V40.7992C22.943 41.2167 30.589 42.726 36.4988 37.8021V46.9647C29.5322 44.7597 22.5979 42.1265 15.2647 46.558V56.1809C27.2891 43.1862 44.2418 56.2558 55.2309 47.0932V56.2451C49.1055 54.3077 42.9477 52.7449 36.4988 56.6626C29.1655 61.0619 22.2313 58.3966 15.2647 56.2023V60.12C22.943 60.5374 30.5782 62.0467 36.4988 57.1121V66.2855C29.5322 64.0912 22.5872 61.4045 15.2647 65.7396V75.2876C27.2783 62.5712 44.134 75.4802 55.0691 66.3711C55.0691 68.8652 55.0691 73.2966 55.0691 75.523C49.0084 73.6177 42.9154 72.1299 36.5311 76.0047C29.1871 80.4041 22.2421 77.7281 15.2539 75.523V79.4621C22.943 79.8796 30.5998 81.3995 36.5311 76.465V85.6383C48.4692 72.6865 65.2602 85.4778 76.2709 76.7326V76.2081C68.9592 80.4255 62.0357 77.7067 55.0799 75.523C61.324 68.7581 68.8945 69.0364 76.2709 69.5823V66.2748C69.3151 64.0698 62.3916 61.458 55.0691 65.9108C48.6741 69.7429 42.5703 68.2015 36.4988 66.2855C48.4476 53.3229 65.271 66.157 76.2709 57.3476V56.8338C69.0131 61.0405 62.1436 58.418 55.2417 56.2344C61.4426 49.523 68.9484 49.7371 76.2709 50.283V46.9326C69.369 44.749 62.4887 42.2015 55.2309 46.6222C48.782 50.4864 42.635 48.8915 36.4988 46.954C48.4476 34.0022 65.271 46.8256 76.2709 38.0269V37.5131C68.9592 41.7519 62.0357 39.0545 55.0691 36.8602C61.3132 30.0952 68.8837 30.3628 76.2709 30.9087Z" fill="#F47422"/>
</svg>
