
<svg width="91" height="190" viewBox="0 0 91 190" fill="none" xmlns="http://www.w3.org/2000/svg">
  <rect x="0.300781" y="0.876953" width="90" height="189" rx="2" fill="white"/>
  <path d="M17.4414 153.921H17.711V155.58H18.4443L20.0835 153.921H20.4502L18.6816 155.687L20.5257 157.592H20.1482L18.4551 155.837H17.711V157.592H17.4414V153.921Z" fill="#1D1D1B"/>
  <path d="M24.1285 156.586C24.1285 156.126 23.7403 155.869 23.007 155.869H21.756V157.346H23.0933C23.7295 157.346 24.1285 157.057 24.1285 156.597V156.586ZM23.9236 154.841C23.9236 154.435 23.6001 154.167 22.9962 154.167H21.7452V155.612H22.9638C23.5138 155.612 23.9129 155.344 23.9129 154.852L23.9236 154.841ZM21.4756 153.899H22.9962C23.4168 153.899 23.7511 154.017 23.956 154.22C24.1178 154.381 24.1932 154.574 24.1932 154.799C24.1932 155.312 23.8697 155.558 23.5678 155.676C24.0099 155.794 24.3981 156.051 24.3981 156.554C24.3981 157.175 23.8697 157.56 23.0717 157.56H21.4648V153.889L21.4756 153.899Z" fill="#1D1D1B"/>
  <path d="M27.9778 156.319L27.0072 154.199L26.0366 156.319H27.9886H27.9778ZM26.8778 153.899H27.1366L28.8621 157.592H28.5601L28.0856 156.565H25.9072L25.4327 157.592H25.1523L26.8778 153.899Z" fill="#1D1D1B"/>
  <path d="M31.2043 155.976C31.8944 155.976 32.3582 155.623 32.3582 155.077C32.3582 154.488 31.8944 154.178 31.2366 154.178H30.1905V155.976H31.2043ZM29.9209 153.932H31.2582C32.067 153.932 32.6278 154.349 32.6278 155.056C32.6278 155.837 31.9592 156.233 31.1827 156.233H30.1798V157.603H29.9102V153.932H29.9209Z" fill="#1D1D1B"/>
  <path d="M34.6974 154.178H33.4141V153.921H36.2611V154.178H34.9778V157.592H34.6974V154.178Z" fill="#1D1D1B"/>
  <path d="M39.388 156.319L38.4174 154.199L37.4468 156.319H39.3987H39.388ZM38.288 153.899H38.5468L40.2723 157.592H39.9703L39.4958 156.565H37.3174L36.8429 157.592H36.5625L38.288 153.899Z" fill="#1D1D1B"/>
  <path d="M44.5111 157.592H44.1984L42.6994 154.231L41.1896 157.592H40.8984L42.5808 153.899H42.8288L44.5111 157.592Z" fill="#1D1D1B"/>
  <path d="M49.041 153.921H49.3213V157.592H49.041V153.921ZM46.841 157.335C47.5204 157.335 47.9949 156.982 47.9949 156.447C47.9949 155.858 47.5312 155.559 46.8733 155.559H45.8273V157.335H46.841ZM45.5577 153.921H45.8273V155.312H46.8949C47.7037 155.312 48.2645 155.73 48.2645 156.426C48.2645 157.207 47.5851 157.592 46.8194 157.592H45.5469V153.921H45.5577Z" fill="#1D1D1B"/>
  <path d="M52.9984 157.592L53.7856 156.319L52.168 153.921H52.4915L53.9366 156.094L55.2199 153.921H55.5326L53.3111 157.592H52.9984Z" fill="#1D1D1B"/>
  <path d="M58.3477 153.921H58.6065L60.0947 156.094L61.5721 153.921H61.831V157.592H61.5613V154.403L60.0947 156.522H60.0731L58.6173 154.403V157.592H58.3477V153.921Z" fill="#1D1D1B"/>
  <path d="M66.4684 155.773C66.4684 154.852 65.7998 154.113 64.8939 154.113C63.9881 154.113 63.3302 154.841 63.3302 155.751C63.3302 156.672 63.9989 157.41 64.9047 157.41C65.8106 157.41 66.4684 156.672 66.4684 155.773ZM63.0391 155.773C63.0391 154.756 63.7832 153.867 64.9047 153.867C66.0263 153.867 66.7596 154.756 66.7596 155.751C66.7596 156.768 66.0155 157.656 64.8939 157.656C63.7724 157.656 63.0391 156.768 63.0391 155.773Z" fill="#1D1D1B"/>
  <path d="M69.2394 155.976C69.9296 155.976 70.3933 155.623 70.3933 155.077C70.3933 154.488 69.9296 154.178 69.2718 154.178H68.2257V155.976H69.2394ZM67.9561 153.932H69.2933C70.1022 153.932 70.6629 154.349 70.6629 155.056C70.6629 155.837 69.9943 156.233 69.2178 156.233H68.2149V157.603H67.9453V153.932H67.9561Z" fill="#1D1D1B"/>
  <path d="M72.9159 154.178C72.2472 154.178 71.859 154.499 71.859 154.981C71.859 155.559 72.3551 155.826 73.0021 155.826H74.1884V154.178H72.9159ZM74.458 157.592H74.1776V156.072H73.0129L71.7943 157.592H71.4492L72.7002 156.051C72.0639 155.987 71.5894 155.601 71.5894 154.981C71.5894 154.36 72.0963 153.932 72.9267 153.932H74.458V157.603V157.592Z" fill="#1D1D1B"/>
  <path d="M26.0705 173.809H23.0078V169.816H23.8921V173.006H25.499V169.816H26.3833V173.006H26.9009V174.623H26.0705V173.809Z" fill="#1D1D1B"/>
  <path d="M27.5352 169.816H30.5655V170.598H28.4195V171.411H30.3067V172.193H28.4195V173.028H30.5979V173.809H27.5352V169.816Z" fill="#1D1D1B"/>
  <path d="M31.3867 169.816H32.271V171.401H33.8994V169.816H34.7837V173.809H33.8994V172.203H32.271V173.809H31.3867V169.816Z" fill="#1D1D1B"/>
  <path d="M36.6795 170.63H35.4609V169.816H38.7933V170.63H37.5639V173.809H36.6795V170.63Z" fill="#1D1D1B"/>
  <path d="M41.0501 171.829C41.4923 171.829 41.7511 171.572 41.7511 171.219C41.7511 170.812 41.4707 170.609 41.0393 170.609H40.3599V171.829H41.0609H41.0501ZM39.4648 169.816H41.104C42.0638 169.816 42.6462 170.373 42.6462 171.197C42.6462 172.139 41.9236 172.61 41.0178 172.61H40.3491V173.809H39.4648V169.816Z" fill="#1D1D1B"/>
  <path d="M45.2115 172.139L44.6723 170.844L44.1439 172.139H45.2115ZM44.2841 169.795H45.1037L46.8291 173.809H45.9017L45.535 172.91H43.8311L43.4645 173.809H42.5586L44.2841 169.795Z" fill="#1D1D1B"/>
  <path d="M51.1216 173.809H50.151L49.0295 171.026L47.9295 173.809H46.9805L48.6628 169.795H49.4393L51.1216 173.809Z" fill="#1D1D1B"/>
  <path d="M53.3206 173.017C53.752 173.017 54.0216 172.824 54.0216 172.439C54.0216 172.064 53.7843 171.861 53.3206 171.861H52.6196V173.028H53.3098L53.3206 173.017ZM51.7461 169.816H52.6304V171.069H53.3422C54.3127 171.069 54.9274 171.529 54.9274 172.417C54.9274 173.274 54.3559 173.809 53.3098 173.809H51.7461V169.816Z" fill="#1D1D1B"/>
  <path d="M55.6055 169.816H56.4898V171.401H58.1182V169.816H59.0025V173.809H58.1182V172.203H56.4898V173.809H55.6055V169.816Z" fill="#1D1D1B"/>
  <path d="M63.7402 169.816H64.6245V173.809H63.7402V169.816ZM61.5511 173.017C61.9824 173.017 62.252 172.824 62.252 172.439C62.252 172.064 62.0148 171.861 61.5511 171.861H60.8501V173.028H61.5403L61.5511 173.017ZM59.9766 169.816H60.8609V171.069H61.5726C62.5432 171.069 63.1579 171.529 63.1579 172.417C63.1579 173.274 62.5863 173.809 61.5403 173.809H59.9766V169.816Z" fill="#1D1D1B"/>
  <path d="M66.2839 168.671H66.8771C66.9418 168.853 67.082 168.949 67.3731 168.949C67.6643 168.949 67.7937 168.842 67.8692 168.671H68.4623C68.4084 169.217 67.9878 169.517 67.3731 169.517C66.7584 169.517 66.3379 169.217 66.2839 168.671ZM68.279 173.809V171.208L66.3702 173.809H65.5938V169.816H66.4781V172.342L68.3221 169.816H69.1633V173.809H68.279Z" fill="#1D1D1B"/>
  <path d="M16.4727 132.063C16.4727 129.676 18.5217 126.358 23.1912 125.994L23.2343 125.941C23.1804 125.373 22.9971 124.774 22.6089 124.677C22.3932 124.624 22.1451 124.603 22.0049 124.603C21.9295 124.603 21.854 124.56 21.854 124.485C21.854 124.367 21.951 124.335 22.1667 124.335C22.8138 124.335 24.0432 124.388 24.1402 124.388C24.2373 124.388 25.4667 124.335 26.049 124.335C26.2647 124.335 26.3618 124.378 26.3618 124.485C26.3618 124.56 26.2863 124.603 26.2108 124.603C26.0706 124.603 25.952 124.624 25.7255 124.656C25.2402 124.752 25.1 125.352 25.0461 125.941L25.0892 125.994C28.9392 126.283 31.7107 128.435 31.7107 131.731C31.7107 135.028 29.1117 137.608 25.1108 138.036L25.0677 138.09C25.1431 138.785 25.0245 139.62 25.8333 139.738C26.1029 139.781 26.5343 139.813 26.7176 139.813C26.8363 139.813 26.8794 139.866 26.8794 139.931C26.8794 140.027 26.7823 140.081 26.5667 140.081C25.4882 140.081 24.2588 140.027 24.1618 140.027C24.0647 140.027 22.8353 140.081 22.2422 140.081C22.0265 140.081 21.9295 140.038 21.9295 139.931C21.9295 139.877 21.9726 139.813 22.0912 139.813C22.2638 139.813 22.501 139.77 22.6736 139.738C23.2559 139.599 23.1589 138.764 23.299 138.09L23.2559 138.036C18.6295 137.704 16.4942 134.718 16.4942 132.063H16.4727ZM23.0726 137.458C23.1696 137.501 23.2667 137.458 23.2667 137.287C23.3098 136.42 23.3098 135.307 23.3098 133.915V127.289L23.2667 126.647C23.2883 126.508 23.1912 126.508 23.1049 126.529C20.3118 126.883 18.1981 128.724 18.1981 131.838C18.1981 134.953 20.3226 136.901 23.0618 137.458H23.0726ZM24.949 133.915C24.949 135.371 24.9275 136.548 24.9922 137.426C24.9922 137.469 25.0353 137.501 25.0677 137.501C26.5667 137.458 29.9529 136.323 29.9529 132.224C29.9529 129.184 27.9578 127.225 25.5745 126.658C25.4235 126.615 25.2833 126.583 25.1863 126.615C25.0461 126.668 24.9922 126.711 24.9706 127.193L24.949 127.525V133.904V133.915Z" fill="#1D1D1B"/>
  <path d="M41.8054 124.592C46.2053 124.592 49.4837 127.343 49.4837 131.86C49.4837 136.377 46.3994 139.791 41.6868 139.791C36.3378 139.791 34.1055 135.66 34.1055 132.17C34.1055 129.034 36.4133 124.592 41.8054 124.592ZM42.2152 139.053C43.973 139.053 47.6073 138.047 47.6073 132.406C47.6073 127.749 44.7602 125.255 41.6652 125.255C38.4084 125.255 35.9603 127.386 35.9603 131.635C35.9603 136.152 38.6995 139.064 42.2044 139.064L42.2152 139.053Z" fill="#1D1D1B"/>
  <path d="M54.2078 130.49C54.2078 127.46 54.2078 126.925 54.1647 126.304C54.1215 125.641 53.9706 125.33 53.3235 125.202C53.1725 125.159 52.8382 125.148 52.6549 125.148C52.5794 125.148 52.5039 125.106 52.5039 125.031C52.5039 124.913 52.601 124.87 52.8166 124.87C53.6902 124.87 54.8656 124.924 55.0274 124.924C55.4588 124.924 56.5911 124.87 57.4862 124.87C59.9234 124.87 60.8077 125.684 61.1205 125.973C61.5518 126.379 62.1018 127.257 62.1018 128.285C62.1018 131.036 60.0744 132.898 57.2921 132.898C57.195 132.898 56.9793 132.898 56.8823 132.877C56.7852 132.877 56.6666 132.834 56.6666 132.738C56.6666 132.588 56.7852 132.566 57.195 132.566C59.093 132.566 60.5705 131.185 60.5705 129.409C60.5705 128.766 60.5166 127.471 59.4813 126.422C58.446 125.373 57.2597 125.448 56.8068 125.448C56.4725 125.448 56.1382 125.491 55.9656 125.566C55.847 125.609 55.8147 125.737 55.8147 125.93V133.894C55.8147 135.756 55.8147 137.287 55.9117 138.1C55.9656 138.668 56.0843 139.085 56.6774 139.171C56.947 139.213 57.3784 139.246 57.5509 139.246C57.6695 139.246 57.7019 139.299 57.7019 139.363C57.7019 139.46 57.6048 139.524 57.3891 139.524C56.3107 139.524 55.0813 139.47 54.9843 139.47C54.9303 139.47 53.6902 139.524 53.1078 139.524C52.8921 139.524 52.7951 139.481 52.7951 139.363C52.7951 139.31 52.8382 139.246 52.9461 139.246C53.1186 139.246 53.3559 139.203 53.5284 139.171C53.9166 139.096 54.0137 138.668 54.1 138.1C54.197 137.287 54.197 135.756 54.197 133.894V130.479L54.2078 130.49Z" fill="#1D1D1B"/>
  <path d="M70.8999 133.904C70.8999 135.767 70.8999 137.298 70.997 138.111C71.0509 138.678 71.1695 139.096 71.7627 139.181C72.0323 139.224 72.4636 139.256 72.6362 139.256C72.7548 139.256 72.7979 139.31 72.7979 139.374C72.7979 139.47 72.7009 139.535 72.4852 139.535C71.4068 139.535 70.1774 139.481 70.0803 139.481C69.9833 139.481 68.7539 139.535 68.1715 139.535C67.9558 139.535 67.8588 139.492 67.8588 139.374C67.8588 139.321 67.9019 139.256 68.0205 139.256C68.1931 139.256 68.4303 139.214 68.6029 139.181C68.9911 139.107 69.0882 138.678 69.1637 138.111C69.2607 137.298 69.2607 135.767 69.2607 133.904V125.705L66.3706 125.748C65.1627 125.769 64.6882 125.898 64.3755 126.369C64.1598 126.701 64.1059 126.829 64.0412 126.968C63.9873 127.129 63.9225 127.161 63.8471 127.161C63.7931 127.161 63.75 127.107 63.75 126.99C63.75 126.797 64.1382 125.127 64.1814 124.977C64.2245 124.859 64.3 124.613 64.3755 124.613C64.5157 124.613 64.7098 124.806 65.2382 124.849C65.8098 124.902 66.5431 124.945 66.7804 124.945H74.1028C75.3538 124.945 75.8822 124.752 76.0332 124.752C76.1302 124.752 76.1302 124.87 76.1302 124.988C76.1302 125.566 76.0763 126.904 76.0763 127.118C76.0763 127.289 76.0224 127.375 75.9361 127.375C75.8391 127.375 75.7959 127.321 75.7744 127.043L75.7528 126.829C75.6773 126.251 75.2244 125.801 73.3479 125.759L70.8891 125.716V133.915L70.8999 133.904Z" fill="#1D1D1B"/>
  <path d="M17.6258 109.574C17.6258 106.544 17.6258 106.009 17.5826 105.388C17.5395 104.725 17.3885 104.414 16.7415 104.286C16.5905 104.243 16.2562 104.232 16.0729 104.232C15.9974 104.232 15.9219 104.19 15.9219 104.115C15.9219 103.997 16.0189 103.954 16.2346 103.954C17.1189 103.954 18.262 104.008 18.3807 104.008C18.5532 104.008 19.6856 103.954 20.2787 103.954C20.4944 103.954 20.5914 103.997 20.5914 104.115C20.5914 104.19 20.5159 104.232 20.4405 104.232C20.3003 104.232 20.1816 104.254 19.9552 104.286C19.4267 104.382 19.2758 104.714 19.2326 105.388C19.1895 106.009 19.1895 106.555 19.1895 109.574V110.74H19.265C19.5993 110.377 23.1365 106.801 23.8375 106.052C24.3875 105.485 24.8943 104.982 24.8943 104.661C24.8943 104.425 24.7973 104.307 24.6355 104.254C24.5384 104.211 24.463 104.179 24.463 104.104C24.463 104.008 24.56 103.965 24.7002 103.965C25.0884 103.965 25.6924 104.018 26.1669 104.018C26.2639 104.018 27.558 103.965 28.0433 103.965C28.259 103.965 28.3345 104.008 28.3345 104.104C28.3345 104.2 28.2913 104.243 28.1404 104.243C27.8492 104.243 27.4394 104.339 27.0512 104.511C26.2531 104.864 25.8218 105.346 24.9375 106.181C24.4522 106.641 21.0552 109.938 20.6454 110.43C21.1522 110.997 25.2178 115.161 26.0159 115.9C27.6551 117.409 27.9894 117.719 28.9276 118.105C29.4345 118.319 30.006 118.362 30.1354 118.362C30.2648 118.362 30.3835 118.405 30.3835 118.479C30.3835 118.576 30.2864 118.64 29.9521 118.64H28.96C28.41 118.64 28.0433 118.64 27.6119 118.597C26.5767 118.501 26.0914 118.073 25.2502 117.409C24.3767 116.692 20.2356 112.25 19.2973 111.104H19.2003V113.01C19.2003 114.872 19.2003 116.403 19.2973 117.216C19.3512 117.784 19.4699 118.201 20.063 118.287C20.3326 118.33 20.6454 118.362 20.8287 118.362C20.9473 118.362 20.9904 118.415 20.9904 118.479C20.9904 118.576 20.8934 118.64 20.6777 118.64C19.7179 118.64 18.5856 118.586 18.4346 118.586C18.2836 118.586 17.1405 118.64 16.5581 118.64C16.3425 118.64 16.2454 118.597 16.2454 118.479C16.2454 118.426 16.2885 118.362 16.3964 118.362C16.5689 118.362 16.8062 118.319 16.9787 118.287C17.367 118.212 17.464 117.784 17.5395 117.216C17.6366 116.403 17.6366 114.872 17.6366 113.01V109.595L17.6258 109.574Z" fill="#1D1D1B"/>
  <path d="M32.3133 109.574C32.3133 106.544 32.3133 106.009 32.2701 105.388C32.227 104.725 32.076 104.414 31.429 104.286C31.278 104.243 30.9437 104.232 30.7604 104.232C30.6849 104.232 30.6094 104.19 30.6094 104.115C30.6094 103.997 30.7064 103.954 30.9221 103.954C31.8064 103.954 32.9711 104.008 33.1329 104.008C33.5642 104.008 34.6966 103.954 35.5917 103.954C38.0289 103.954 38.9132 104.768 39.2259 105.057C39.6573 105.463 40.2073 106.341 40.2073 107.369C40.2073 110.12 38.1799 111.982 35.3976 111.982C35.3005 111.982 35.0848 111.982 34.9878 111.961C34.8907 111.961 34.7721 111.918 34.7721 111.822C34.7721 111.672 34.8907 111.65 35.3005 111.65C37.1985 111.65 38.676 110.269 38.676 108.493C38.676 107.85 38.622 106.555 37.5867 105.506C36.5515 104.457 35.3544 104.532 34.9123 104.532C34.578 104.532 34.2436 104.575 34.0711 104.65C33.9525 104.693 33.9093 104.821 33.9093 105.014V112.978C33.9093 114.84 33.9093 116.371 34.0064 117.184C34.0603 117.752 34.1789 118.169 34.7721 118.255C35.0417 118.297 35.473 118.33 35.6564 118.33C35.775 118.33 35.8074 118.383 35.8074 118.447C35.8074 118.544 35.7103 118.608 35.4946 118.608C34.4162 118.608 33.1868 118.554 33.0897 118.554C33.0358 118.554 31.7956 118.608 31.2133 118.608C30.9976 118.608 30.9005 118.565 30.9005 118.447C30.9005 118.394 30.9437 118.33 31.0623 118.33C31.2349 118.33 31.4721 118.287 31.6447 118.255C32.0329 118.18 32.1299 117.752 32.2162 117.184C32.3133 116.371 32.3133 114.84 32.3133 112.978V109.563V109.574Z" fill="#1D1D1B"/>
  <path d="M50.3249 103.676C54.7141 103.676 58.0033 106.427 58.0033 110.944C58.0033 115.461 54.919 118.875 50.2063 118.875C44.8573 118.875 42.625 114.744 42.625 111.254C42.625 108.118 44.9328 103.676 50.3249 103.676ZM50.7347 118.137C52.4925 118.137 56.1268 117.131 56.1268 111.49C56.1268 106.833 53.2798 104.339 50.1847 104.339C46.9171 104.339 44.4799 106.47 44.4799 110.719C44.4799 115.236 47.2191 118.148 50.7347 118.148V118.137Z" fill="#1D1D1B"/>
  <path d="M74.5137 112.988C74.5137 114.851 74.5137 116.381 74.6108 117.195C74.6647 117.762 74.7833 118.18 75.3764 118.265C75.646 118.308 76.0774 118.34 76.25 118.34C76.3686 118.34 76.4009 118.394 76.4009 118.458C76.4009 118.554 76.3039 118.619 76.0882 118.619C75.0098 118.619 73.7804 118.565 73.6833 118.565C73.5863 118.565 72.3569 118.619 71.7745 118.619C71.5588 118.619 71.4618 118.576 71.4618 118.458C71.4618 118.405 71.5049 118.34 71.6127 118.34C71.7853 118.34 72.0225 118.297 72.1951 118.265C72.5833 118.19 72.6804 117.762 72.7667 117.195C72.8637 116.381 72.8637 114.851 72.8637 112.988V111.169C72.8637 111.094 72.8098 111.051 72.7451 111.051H64.4628C64.4089 111.051 64.3442 111.072 64.3442 111.169V112.988C64.3442 114.851 64.3442 116.381 64.4413 117.195C64.4952 117.762 64.6138 118.18 65.2069 118.265C65.4765 118.308 65.9079 118.34 66.0805 118.34C66.1991 118.34 66.2314 118.394 66.2314 118.458C66.2314 118.554 66.1344 118.619 65.9187 118.619C64.8403 118.619 63.6109 118.565 63.5138 118.565C63.4168 118.565 62.1874 118.619 61.5942 118.619C61.3786 118.619 61.2815 118.576 61.2815 118.458C61.2815 118.405 61.3246 118.34 61.4325 118.34C61.605 118.34 61.8423 118.297 62.0148 118.265C62.403 118.19 62.5001 117.762 62.5756 117.195C62.6727 116.381 62.6727 114.851 62.6727 112.988V109.574C62.6727 106.544 62.6727 106.009 62.6295 105.388C62.5864 104.725 62.4354 104.414 61.7884 104.286C61.6374 104.243 61.3031 104.232 61.1197 104.232C61.0442 104.232 60.9688 104.19 60.9688 104.115C60.9688 103.997 61.0658 103.954 61.2815 103.954C62.1658 103.954 63.3952 104.008 63.4923 104.008C63.5893 104.008 64.8187 103.954 65.4118 103.954C65.6275 103.954 65.7246 103.997 65.7246 104.115C65.7246 104.19 65.6491 104.232 65.5736 104.232C65.4334 104.232 65.3148 104.254 65.0883 104.286C64.5599 104.382 64.4089 104.714 64.3658 105.388C64.3226 106.009 64.3226 106.769 64.3226 109.788V110.195C64.3226 110.291 64.3766 110.312 64.4413 110.312H72.7235C72.7774 110.312 72.8421 110.291 72.8421 110.195V109.788C72.8421 106.759 72.8421 106.009 72.799 105.388C72.7559 104.725 72.6049 104.414 71.9578 104.286C71.7961 104.243 71.4726 104.232 71.2892 104.232C71.2137 104.232 71.1382 104.19 71.1382 104.115C71.1382 103.997 71.2353 103.954 71.451 103.954C72.3353 103.954 73.5647 104.008 73.6617 104.008C73.7588 104.008 74.9882 103.954 75.5813 103.954C75.797 103.954 75.8941 103.997 75.8941 104.115C75.8941 104.19 75.8186 104.232 75.7323 104.232C75.5921 104.232 75.4843 104.254 75.247 104.286C74.7186 104.382 74.5676 104.714 74.5245 105.388C74.4813 106.009 74.4813 106.555 74.4813 109.574V112.988H74.5137Z" fill="#1D1D1B"/>
  <path d="M16.7422 161.874H75.419" stroke="#F47422" stroke-miterlimit="10"/>
  <path d="M16.7422 148.633H75.419" stroke="#F47422" stroke-miterlimit="10"/>
  <path d="M76.5716 31.2852V27.9777C69.6158 25.7726 62.6924 23.1608 55.3699 27.6137C41.6524 35.8344 29.283 19.3288 15.5655 27.4425V36.9797C27.5791 24.2741 44.4347 37.1831 55.3699 28.074C55.3699 30.568 55.3699 35.0102 55.3699 37.2366C49.2876 35.3313 43.1946 33.822 36.7995 37.7076C29.4771 42.0962 22.5321 39.4416 15.5655 37.2473V41.1757C23.2438 41.5932 30.8898 43.1024 36.7995 38.1786V47.3412C29.833 45.1362 22.8987 42.503 15.5655 46.9345V56.5574C27.5898 43.5627 44.5426 56.6323 55.5317 47.4697V56.6216C49.4063 54.6842 43.2485 53.1214 36.7995 57.039C29.4663 61.4384 22.5321 58.7731 15.5655 56.5788V60.4964C23.2438 60.9139 30.879 62.4232 36.7995 57.4886V66.6619C29.833 64.4676 22.8879 61.7809 15.5655 66.116V75.664C27.5791 62.9477 44.4347 75.8567 55.3699 66.7476C55.3699 69.2416 55.3699 73.6731 55.3699 75.8995C49.3092 73.9942 43.2161 72.5063 36.8319 76.3812C29.4879 80.7805 22.5428 78.1045 15.5547 75.8995V79.8386C23.2438 80.256 30.9006 81.776 36.8319 76.8415V86.0148C48.77 73.0629 65.561 85.8542 76.5716 77.1091V76.5846C69.26 80.8019 62.3365 78.0831 55.3807 75.8995C61.6247 69.1346 69.1953 69.4129 76.5716 69.9588V66.6512C69.6158 64.4462 62.6924 61.8344 55.3699 66.2873C48.9749 70.1193 42.871 68.578 36.7995 66.6619C48.7484 53.6994 65.5718 66.5335 76.5716 57.7241V57.2103C69.3139 61.417 62.4443 58.7945 55.5425 56.6109C61.7434 49.8995 69.2492 50.1135 76.5716 50.6595V47.3091C69.6698 45.1255 62.7894 42.5779 55.5317 46.9987C49.0827 50.8628 42.9357 49.2679 36.7995 47.3305C48.7484 34.3786 65.5718 47.2021 76.5716 38.4034V37.8896C69.26 42.1284 62.3365 39.4309 55.3699 37.2366C61.614 30.4717 69.1845 30.7393 76.5716 31.2852Z" fill="#F47422"/>
</svg>
