<svg width="56" height="58" viewBox="0 0 56 58" fill="none" xmlns="http://www.w3.org/2000/svg">
<path d="M0 0H56V54C56 56.2091 54.2091 58 52 58H4C1.79086 58 0 56.2091 0 54V0Z" fill="white"/>
<path d="M48 16.0433V13.8703C43.4401 12.4216 38.9014 10.7057 34.1011 13.6312C25.1085 19.0321 16.9996 8.18813 8.00707 13.5187V19.7846C15.8826 11.4371 26.9325 19.9182 34.1011 13.9336C34.1011 15.5721 34.1011 18.4906 34.1011 19.9533C30.1138 18.7016 26.1195 17.71 21.9272 20.2628C17.1269 23.146 12.5741 21.402 8.00707 19.9604V22.5413C13.0407 22.8155 18.053 23.8071 21.9272 20.5722V26.5919C17.3602 25.1432 12.8144 23.4133 8.00707 26.3247V32.6468C15.8897 24.1095 27.0032 32.6961 34.2071 26.6763V32.689C30.1916 31.4162 26.1548 30.3894 21.9272 32.9633C17.1198 35.8536 12.5741 34.1025 8.00707 32.6609V35.2348C13.0407 35.509 18.046 36.5006 21.9272 33.2586V39.2854C17.3602 37.8438 12.8074 36.0786 8.00707 38.9268V45.1997C15.8826 36.8452 26.9325 45.3262 34.1011 39.3417C34.1011 40.9802 34.1011 43.8916 34.1011 45.3544C30.128 44.1026 26.1336 43.1251 21.9484 45.6708C17.134 48.5612 12.5811 46.8031 8 45.3544V47.9423C13.0407 48.2166 18.0601 49.2152 21.9484 45.9732V52C29.7745 43.4908 40.7819 51.8945 48 46.149V45.8045C43.2068 48.5752 38.6681 46.789 34.1082 45.3544C38.2015 40.9099 43.1644 41.0927 48 41.4514V39.2784C43.4401 37.8297 38.9014 36.1138 34.1011 39.0393C29.9088 41.5569 25.9074 40.5442 21.9272 39.2854C29.7603 30.7692 40.789 39.201 48 33.4134V33.0758C43.2421 35.8395 38.7388 34.1166 34.2142 32.682C38.2792 28.2727 43.1997 28.4133 48 28.772V26.5708C43.4754 25.1362 38.965 23.4625 34.2071 26.3669C29.9795 28.9056 25.9498 27.8578 21.9272 26.5849C29.7603 18.0757 40.789 26.5005 48 20.7199V20.3823C43.2068 23.1671 38.6681 21.395 34.1011 19.9533C38.1944 15.5089 43.1573 15.6847 48 16.0433Z" fill="#D38F6D"/>
</svg>
