<svg width="92" height="206" viewBox="0 0 92 206" fill="none" xmlns="http://www.w3.org/2000/svg">
<g clip-path="url(#clip0_1238_43362)">
<path d="M1.17578 199.114H1.87126V201.868H2.86991L5.42893 199.114H6.32949L3.45839 202.137L6.46324 205.392H5.53593L2.89666 202.504H1.87126V205.392H1.17578V199.114Z" fill="white"/>
<path d="M11.761 203.617C11.761 202.935 11.2081 202.54 10.1293 202.54H8.19438V204.756H10.2541C11.1903 204.756 11.761 204.343 11.761 203.635V203.617ZM11.4221 200.773C11.4221 200.155 10.9406 199.751 10.0668 199.751H8.2033V201.913H10.0133C10.8515 201.913 11.4221 201.536 11.4221 200.791V200.773ZM7.51673 199.114H10.1293C10.8337 199.114 11.3865 199.321 11.7342 199.67C11.9928 199.948 12.1265 200.289 12.1265 200.675V200.693C12.1265 201.509 11.6361 201.93 11.1546 202.146C11.8858 202.361 12.4654 202.809 12.4654 203.661V203.679C12.4654 204.756 11.5826 205.392 10.2362 205.392H7.50781V199.114H7.51673Z" fill="white"/>
<path d="M17.716 203.096L16.325 199.894L14.9251 203.096H17.7249H17.716ZM16.004 199.069H16.6549L19.4547 205.392H18.7057L17.9834 203.733H14.6398L13.9086 205.392H13.1953L15.9951 199.069H16.004Z" fill="white"/>
<path d="M22.8714 202.531C23.8879 202.531 24.5566 201.975 24.5566 201.15V201.132C24.5566 200.235 23.8968 199.769 22.9071 199.769H21.3556V202.531H22.8714ZM20.6602 199.114H22.9606C24.3427 199.114 25.261 199.868 25.261 201.105V201.123C25.261 202.478 24.1554 203.177 22.8536 203.177H21.3646V205.392H20.6691V199.114H20.6602Z" fill="white"/>
<path d="M28.1155 199.769H26.0469V199.114H30.8796V199.769H28.811V205.392H28.1155V199.769Z" fill="white"/>
<path d="M35.3644 203.096L33.9734 199.894L32.5735 203.096H35.3733H35.3644ZM33.6524 199.069H34.3033L37.1031 205.392H36.3541L35.6319 203.733H32.2882L31.5571 205.392H30.8438L33.6435 199.069H33.6524Z" fill="white"/>
<path d="M43.6904 205.392H42.9236L40.6321 200.011L38.3584 205.392H37.6094L40.3378 199.069H40.962L43.6904 205.392Z" fill="white"/>
<path d="M50.6724 199.114H51.3679V205.392H50.6724V199.114ZM47.1058 204.738C48.1045 204.738 48.791 204.218 48.791 203.383V203.365C48.791 202.496 48.1312 202.029 47.1504 202.029H45.59V204.738H47.1058ZM44.8945 199.114H45.59V201.383H47.1771C48.5503 201.383 49.4954 202.083 49.4954 203.339V203.356C49.4954 204.675 48.4522 205.392 47.088 205.392H44.9034V199.114H44.8945Z" fill="white"/>
<path d="M56.4759 205.392L57.7509 203.222L55.1562 199.114H55.9498L58.1343 202.603L60.0781 199.114H60.8717L57.2516 205.392H56.4759Z" fill="white"/>
<path d="M64.582 199.114H65.2775L67.5155 202.54L69.7536 199.114H70.4491V205.392H69.7625V200.307L67.5245 203.67H67.4888L65.2508 200.316V205.392H64.582V199.114Z" fill="white"/>
<path d="M77.459 202.271V202.253C77.459 200.827 76.4425 199.661 75.0426 199.661C73.6428 199.661 72.6441 200.809 72.6441 202.235V202.253C72.6441 203.679 73.6606 204.845 75.0605 204.845C76.4603 204.845 77.459 203.697 77.459 202.271ZM71.9219 202.271V202.253C71.9219 200.522 73.1969 199.007 75.0605 199.007C76.924 199.007 78.1812 200.504 78.1812 202.235V202.253C78.1812 203.984 76.9062 205.5 75.0426 205.5C73.1791 205.5 71.9219 204.002 71.9219 202.271Z" fill="white"/>
<path d="M81.8441 202.531C82.8606 202.531 83.5293 201.975 83.5293 201.15V201.132C83.5293 200.235 82.8695 199.769 81.8798 199.769H80.3283V202.531H81.8441ZM79.6328 199.114H81.9333C83.3153 199.114 84.2337 199.868 84.2337 201.105V201.123C84.2337 202.478 83.1281 203.177 81.8263 203.177H80.3372V205.392H79.6417V199.114H79.6328Z" fill="white"/>
<path d="M87.5072 199.769C86.5175 199.769 85.9468 200.253 85.9468 201.016C85.9468 201.886 86.6512 202.316 87.6053 202.316H89.4064V199.769H87.5072ZM90.1019 205.392H89.4064V202.953H87.7123L85.8666 205.392H85.0195L86.9366 202.872C85.9558 202.702 85.2335 202.056 85.2335 201.016C85.2335 199.832 86.1252 199.114 87.5518 199.114H90.093V205.392H90.1019Z" fill="white"/>
<path d="M0.72376 164.45C0.72376 160.737 3.82669 155.571 10.8796 154.997L10.942 154.907C10.8529 154.028 10.5854 153.095 9.99687 152.943C9.67588 152.853 9.29247 152.826 9.07848 152.826C8.96257 152.826 8.84665 152.763 8.84665 152.647C8.84665 152.467 8.99823 152.405 9.31922 152.405C10.2911 152.405 12.1547 152.494 12.2973 152.494C12.44 152.494 14.3035 152.405 15.1863 152.405C15.5072 152.405 15.6588 152.467 15.6588 152.647C15.6588 152.763 15.5429 152.826 15.427 152.826C15.2219 152.826 15.0436 152.853 14.6869 152.916C13.9469 153.068 13.7418 154.001 13.6526 154.907L13.715 154.997C19.5286 155.445 23.7193 158.799 23.7193 163.929C23.7193 169.06 19.7961 173.078 13.7418 173.741L13.6794 173.831C13.7953 174.916 13.617 176.217 14.8296 176.396C15.2398 176.459 15.8907 176.513 16.1581 176.513C16.3365 176.513 16.39 176.602 16.39 176.692C16.39 176.845 16.2384 176.934 15.9174 176.934C14.2946 176.934 12.4311 176.845 12.2884 176.845C12.1457 176.845 10.2822 176.934 9.39947 176.934C9.07848 176.934 8.9269 176.871 8.9269 176.692C8.9269 176.602 8.98932 176.513 9.15873 176.513C9.42622 176.513 9.78288 176.45 10.0415 176.396C10.9242 176.181 10.7815 174.889 10.9866 173.831L10.9242 173.741C3.93368 173.23 0.714844 168.575 0.714844 164.441L0.72376 164.45ZM10.7013 172.844C10.8529 172.907 10.9955 172.844 10.9955 172.575C11.0579 171.221 11.0579 169.499 11.0579 167.32V156.997L10.9955 156.001C11.0223 155.786 10.8796 155.786 10.7637 155.822C6.54621 156.369 3.35412 159.23 3.35412 164.091C3.35412 168.952 6.57296 171.974 10.7013 172.844ZM13.5367 167.32C13.5367 169.589 13.51 171.427 13.5991 172.782C13.5991 172.844 13.6615 172.898 13.715 172.898C15.9887 172.835 21.0889 171.06 21.0889 164.683C21.0889 159.938 18.0752 156.898 14.4819 156.019C14.25 155.956 14.036 155.902 13.8934 155.956C13.6883 156.046 13.5991 156.109 13.5724 156.862L13.5456 157.373V167.302L13.5367 167.32Z" fill="white"/>
<path d="M39.0021 152.826C45.6448 152.826 50.6024 157.113 50.6024 164.145C50.6024 171.176 45.9391 176.495 38.8237 176.495C30.7365 176.495 27.375 170.064 27.375 164.629C27.375 159.741 30.8613 152.826 39.0021 152.826ZM39.6173 175.347C42.2744 175.347 47.758 173.777 47.758 164.988C47.758 157.741 43.4514 153.849 38.7881 153.849C33.8573 153.849 30.1748 157.167 30.1748 163.786C30.1748 170.818 34.3031 175.347 39.6173 175.347Z" fill="white"/>
<path d="M57.7437 162.001C57.7437 157.292 57.7437 156.449 57.6813 155.481C57.6189 154.458 57.3871 153.974 56.4152 153.759C56.1833 153.696 55.6751 153.669 55.4076 153.669C55.2917 153.669 55.1758 153.606 55.1758 153.49C55.1758 153.31 55.3274 153.248 55.6484 153.248C56.9769 153.248 58.7513 153.337 58.9831 153.337C59.634 153.337 61.346 153.248 62.7013 153.248C66.3927 153.248 67.7212 154.512 68.1938 154.97C68.8447 155.606 69.665 156.961 69.665 158.566C69.665 162.853 66.5978 165.75 62.407 165.75C62.2554 165.75 61.9345 165.75 61.7829 165.723C61.6313 165.723 61.4619 165.66 61.4619 165.508C61.4619 165.266 61.6402 165.239 62.2554 165.239C65.1176 165.239 67.3646 163.095 67.3646 160.315C67.3646 159.319 67.2754 157.292 65.715 155.669C64.1546 154.037 62.3535 154.162 61.6759 154.162C61.1766 154.162 60.6683 154.225 60.4097 154.342C60.2314 154.405 60.1779 154.611 60.1779 154.916V167.32C60.1779 170.217 60.1779 172.602 60.3295 173.867C60.4187 174.746 60.597 175.409 61.4797 175.526C61.8899 175.589 62.5408 175.643 62.8083 175.643C62.9866 175.643 63.0401 175.732 63.0401 175.822C63.0401 175.975 62.8885 176.064 62.5675 176.064C60.9447 176.064 59.0812 175.975 58.9385 175.975C58.8494 175.975 56.9947 176.064 56.1031 176.064C55.7821 176.064 55.6305 176.001 55.6305 175.822C55.6305 175.732 55.6929 175.643 55.8623 175.643C56.1298 175.643 56.4776 175.58 56.7451 175.526C57.3336 175.409 57.4851 174.737 57.6011 173.867C57.7526 172.602 57.7526 170.217 57.7526 167.32V162.01L57.7437 162.001Z" fill="white"/>
<path d="M82.9786 167.311C82.9786 170.208 82.9786 172.593 83.1302 173.858C83.2194 174.737 83.3977 175.401 84.2804 175.517C84.6906 175.58 85.3415 175.634 85.609 175.634C85.7873 175.634 85.8408 175.724 85.8408 175.813C85.8408 175.966 85.6892 176.055 85.3682 176.055C83.7454 176.055 81.8819 175.966 81.7392 175.966C81.5966 175.966 79.733 176.055 78.8503 176.055C78.5293 176.055 78.3777 175.993 78.3777 175.813C78.3777 175.724 78.4401 175.634 78.6096 175.634C78.8771 175.634 79.2248 175.571 79.4923 175.517C80.0808 175.401 80.2324 174.728 80.3483 173.858C80.4998 172.593 80.4998 170.208 80.4998 167.311V154.539L76.1308 154.602C74.3029 154.629 73.5896 154.844 73.117 155.571C72.796 156.082 72.7069 156.297 72.6177 156.503C72.5285 156.746 72.4394 156.808 72.3235 156.808C72.2343 156.808 72.1719 156.719 72.1719 156.539C72.1719 156.234 72.7604 153.642 72.8228 153.4C72.8852 153.221 73.0011 152.826 73.117 152.826C73.3221 152.826 73.6163 153.131 74.4188 153.185C75.2748 153.275 76.3983 153.337 76.746 153.337H87.8113C89.7016 153.337 90.4952 153.032 90.7359 153.032C90.8875 153.032 90.8875 153.212 90.8875 153.391C90.8875 154.297 90.7984 156.378 90.7984 156.71C90.7984 156.979 90.7092 157.104 90.5933 157.104C90.4417 157.104 90.3882 157.015 90.3614 156.593L90.3347 156.261C90.2188 155.355 89.5411 154.665 86.7057 154.602L82.9875 154.539V167.311H82.9786Z" fill="white"/>
<path d="M2.8531 129.427C2.8531 124.718 2.8531 123.875 2.79068 122.906C2.72827 121.884 2.49644 121.4 1.52454 121.184C1.29272 121.121 0.784478 121.095 0.516984 121.095C0.40107 121.095 0.285156 121.032 0.285156 120.915C0.285156 120.736 0.436736 120.673 0.757728 120.673C2.08628 120.673 3.82499 120.763 4.00332 120.763C4.27081 120.763 5.98277 120.673 6.8655 120.673C7.18649 120.673 7.33807 120.736 7.33807 120.915C7.33807 121.032 7.22216 121.095 7.10625 121.095C6.90117 121.095 6.72284 121.121 6.36618 121.184C5.57261 121.337 5.33187 121.848 5.27837 122.906C5.21596 123.875 5.21596 124.718 5.21596 129.427V131.238H5.33187C5.83119 130.664 11.1721 125.113 12.2332 123.929C13.0624 123.05 13.8293 122.269 13.8293 121.758C13.8293 121.4 13.6777 121.211 13.4458 121.121C13.2943 121.059 13.1784 121.005 13.1784 120.879C13.1784 120.727 13.3299 120.664 13.535 120.664C14.1235 120.664 15.0419 120.754 15.7463 120.754C15.8979 120.754 17.8417 120.664 18.5817 120.664C18.9027 120.664 19.0275 120.727 19.0275 120.879C19.0275 121.032 18.9651 121.095 18.7333 121.095C18.2875 121.095 17.6722 121.247 17.0838 121.516C15.8711 122.063 15.2202 122.817 13.9006 124.108C13.1605 124.835 8.02464 129.965 7.4094 130.718C8.17622 131.597 14.3107 138.081 15.5234 139.229C18.0022 141.588 18.5015 142.064 19.9192 142.674C20.686 143.005 21.542 143.068 21.7471 143.068C21.9521 143.068 22.1305 143.131 22.1305 143.248C22.1305 143.4 21.9789 143.49 21.4796 143.49H19.9727C19.1435 143.49 18.5817 143.49 17.9397 143.427C16.3794 143.274 15.6393 142.611 14.3732 141.588C13.0446 140.467 6.78525 133.561 5.37645 131.776H5.22487V134.736C5.22487 137.633 5.22487 140.019 5.37645 141.283C5.46562 142.162 5.64395 142.826 6.52668 142.943C6.93683 143.005 7.4094 143.059 7.6769 143.059C7.85523 143.059 7.91764 143.149 7.91764 143.239C7.91764 143.391 7.76606 143.481 7.44507 143.481C6.00061 143.481 4.28864 143.391 4.0479 143.391C3.80716 143.391 2.10411 143.481 1.21247 143.481C0.891475 143.481 0.739895 143.418 0.739895 143.239C0.739895 143.149 0.802311 143.059 0.971723 143.059C1.23922 143.059 1.58696 142.996 1.85445 142.943C2.44294 142.826 2.59452 142.153 2.71043 141.283C2.86201 140.019 2.86201 137.633 2.86201 134.736V129.427H2.8531Z" fill="white"/>
<path d="M25.0445 129.427C25.0445 124.718 25.0445 123.875 24.9821 122.906C24.9197 121.884 24.6878 121.4 23.716 121.184C23.4841 121.122 22.9759 121.095 22.7084 121.095C22.5925 121.095 22.4766 121.032 22.4766 120.915C22.4766 120.736 22.6281 120.673 22.9491 120.673C24.2777 120.673 26.0521 120.763 26.2839 120.763C26.9348 120.763 28.6468 120.673 30.0021 120.673C33.6935 120.673 35.022 121.938 35.4946 122.395C36.1455 123.032 36.9658 124.386 36.9658 125.992C36.9658 130.279 33.8985 133.176 29.7078 133.176C29.5562 133.176 29.2352 133.176 29.0837 133.149C28.9321 133.149 28.7627 133.086 28.7627 132.933C28.7627 132.691 28.941 132.664 29.5562 132.664C32.4184 132.664 34.6654 130.521 34.6654 127.741C34.6654 126.745 34.5762 124.718 33.0158 123.095C31.4554 121.462 29.6543 121.588 28.9767 121.588C28.4773 121.588 27.9691 121.651 27.7105 121.767C27.5322 121.83 27.4787 122.036 27.4787 122.341V134.745C27.4787 137.642 27.4787 140.028 27.6303 141.292C27.7194 142.171 27.8978 142.835 28.7805 142.952C29.1907 143.014 29.8416 143.068 30.1091 143.068C30.2874 143.068 30.3409 143.158 30.3409 143.248C30.3409 143.4 30.1893 143.49 29.8683 143.49C28.2455 143.49 26.382 143.4 26.2393 143.4C26.1501 143.4 24.2955 143.49 23.4039 143.49C23.0829 143.49 22.9313 143.427 22.9313 143.248C22.9313 143.158 22.9937 143.068 23.1631 143.068C23.4306 143.068 23.7784 143.005 24.0459 142.952C24.6343 142.835 24.7859 142.162 24.9018 141.292C25.0534 140.028 25.0534 137.642 25.0534 134.745V129.436L25.0445 129.427Z" fill="white"/>
<path d="M52.2521 120.251C58.8948 120.251 63.8524 124.539 63.8524 131.57C63.8524 138.602 59.1891 143.92 52.0737 143.92C43.9865 143.92 40.625 137.489 40.625 132.054C40.625 127.166 44.1113 120.251 52.2521 120.251ZM52.8673 142.772C55.5244 142.772 61.008 141.203 61.008 132.413C61.008 125.166 56.7014 121.274 52.0381 121.274C47.1073 121.274 43.4248 124.592 43.4248 131.211C43.4248 138.243 47.5531 142.772 52.8673 142.772Z" fill="white"/>
<path d="M88.8166 134.736C88.8166 137.633 88.8166 140.019 88.9682 141.283C89.0574 142.162 89.2357 142.826 90.1184 142.943C90.5286 143.005 91.1795 143.059 91.447 143.059C91.6253 143.059 91.6877 143.149 91.6877 143.239C91.6877 143.391 91.5361 143.481 91.2151 143.481C89.5924 143.481 87.7288 143.391 87.5861 143.391C87.4435 143.391 85.5799 143.481 84.6972 143.481C84.3762 143.481 84.2246 143.418 84.2246 143.239C84.2246 143.149 84.2871 143.059 84.4565 143.059C84.724 143.059 85.0806 142.996 85.3392 142.943C85.9277 142.826 86.0793 142.153 86.1952 141.283C86.3468 140.019 86.3468 137.633 86.3468 134.736V131.902C86.3468 131.785 86.2576 131.723 86.1684 131.723H73.6586C73.5695 131.723 73.4803 131.75 73.4803 131.902V134.736C73.4803 137.633 73.4803 140.019 73.6319 141.283C73.7211 142.162 73.8994 142.826 74.7821 142.943C75.1923 143.005 75.8432 143.059 76.1107 143.059C76.289 143.059 76.3425 143.149 76.3425 143.239C76.3425 143.391 76.1909 143.481 75.8699 143.481C74.2471 143.481 72.3836 143.391 72.2409 143.391C72.0983 143.391 70.2347 143.481 69.352 143.481C69.031 143.481 68.8794 143.418 68.8794 143.239C68.8794 143.149 68.9418 143.059 69.1112 143.059C69.3787 143.059 69.7265 142.996 69.994 142.943C70.5825 142.826 70.734 142.153 70.85 141.283C71.0015 140.019 71.0015 137.633 71.0015 134.736V129.427C71.0015 124.718 71.0015 123.875 70.9391 122.906C70.8767 121.884 70.6449 121.4 69.673 121.184C69.4412 121.122 68.9329 121.095 68.6654 121.095C68.5495 121.095 68.4336 121.032 68.4336 120.915C68.4336 120.736 68.5852 120.673 68.9062 120.673C70.2347 120.673 72.0893 120.763 72.2409 120.763C72.3925 120.763 74.2471 120.673 75.1299 120.673C75.4508 120.673 75.6024 120.736 75.6024 120.915C75.6024 121.032 75.4865 121.095 75.3706 121.095C75.1655 121.095 74.9872 121.122 74.6305 121.184C73.837 121.337 73.5962 121.848 73.5427 122.906C73.4803 123.875 73.4803 125.05 73.4803 129.758V130.395C73.4803 130.548 73.5695 130.575 73.6586 130.575H86.1684C86.2576 130.575 86.3468 130.548 86.3468 130.395V129.758C86.3468 125.05 86.3468 123.875 86.2843 122.906C86.2219 121.884 85.9901 121.4 85.0182 121.184C84.7864 121.122 84.2781 121.095 84.0196 121.095C83.9037 121.095 83.7788 121.032 83.7788 120.915C83.7788 120.736 83.9304 120.673 84.2514 120.673C85.5799 120.673 87.4346 120.763 87.5861 120.763C87.7377 120.763 89.5923 120.673 90.4751 120.673C90.7961 120.673 90.9476 120.736 90.9476 120.915C90.9476 121.032 90.8317 121.095 90.7158 121.095C90.5107 121.095 90.3324 121.122 89.9758 121.184C89.1822 121.337 88.9414 121.848 88.8879 122.906C88.8255 123.875 88.8255 124.718 88.8255 129.427V134.736H88.8166Z" fill="white"/>
<path d="M1.11328 186.423H89.7874" stroke="#D38F6D" stroke-miterlimit="10"/>
<path d="M92 10.0607V4.92155C81.5142 1.50443 71.0642 -2.55844 60.0256 4.34754C39.3394 17.1371 20.6862 -8.51372 0 4.09642V18.9219C18.1182 -0.836427 43.5301 19.2358 60.0345 5.06505C60.0345 8.93957 60.0345 15.8456 60.0345 19.3075C50.8684 16.3388 41.6666 13.998 32.0279 20.034C20.9804 26.8592 10.5125 22.7246 0.00891646 19.3165V25.4153C11.5825 26.07 23.1115 28.4198 32.0279 20.7515V34.9939C21.5243 31.5768 11.0564 27.4781 0.00891646 34.3661V49.3082C18.145 29.1104 43.7085 49.4158 60.2842 35.1913V49.4158C51.0378 46.4112 41.7647 43.9717 32.0368 50.0615C20.9893 56.8958 10.5214 52.7612 0.00891646 49.344V55.4428C11.5825 56.0975 23.1025 58.4384 32.0279 50.779V65.0305C21.5243 61.6223 11.0564 57.4429 0.00891646 64.1784V79.0129C18.1272 59.2546 43.5391 79.3178 60.0434 65.156C60.0434 69.0306 60.0434 75.9096 60.0434 79.3806C50.8951 76.4209 41.7201 74.0979 32.0903 80.125C21.025 86.9592 10.5393 82.7977 0.00891646 79.3806V85.4973C11.6003 86.1431 23.1471 88.5108 32.0903 80.8425V95.0939C50.0837 74.9769 75.4154 94.8518 92.0089 81.2551V80.4479C80.9882 87.0041 70.547 82.7797 60.0523 79.3895C69.4681 68.8871 80.8812 69.3086 92.0089 70.1517V65.0126C81.5232 61.5954 71.0731 57.5326 60.0345 64.4385C50.3958 70.3938 41.194 67.9992 32.0279 65.0305C50.0481 44.8865 75.4154 64.8332 92.0089 51.1378V50.3485C81.0684 56.8958 70.6986 52.806 60.2931 49.4248C69.6375 38.994 80.9614 39.3349 92.0089 40.169V34.967C81.6034 31.5679 71.2247 27.6216 60.2752 34.4738C50.5474 40.4829 41.2743 37.9985 32.0368 34.9939C50.057 14.868 75.4154 34.8056 92.0089 21.1102V20.312C80.9882 26.9131 70.5381 22.6977 60.0434 19.3075C69.4592 8.7871 80.8812 9.20864 92.0089 10.0607" fill="#D38F6D"/>
</g>
<defs>
<clipPath id="clip0_1238_43362">
<rect width="92" height="205" fill="white" transform="translate(0 0.5)"/>
</clipPath>
</defs>
</svg>
