<svg width="28" viewBox="0 0 28 28" fill="none" xmlns="http://www.w3.org/2000/svg">
<path d="M13.6102 0.599854C6.20449 0.599854 0.201172 6.60317 0.201172 14.0089C0.201172 21.4145 6.20449 27.4179 13.6102 27.4179C21.0159 27.4179 27.0192 21.4145 27.0192 14.0089C27.0192 6.60317 21.0159 0.599854 13.6102 0.599854ZM21.069 18.9285C21.0518 19.7768 20.4972 20.2347 19.682 20.2363C15.6218 20.2438 11.5617 20.2445 7.50179 20.2367C6.64668 20.2352 6.14309 19.7105 6.13268 18.7512C6.10896 16.5232 6.12514 14.2948 6.12514 11.9648C7.58513 13.0403 8.97863 14.0714 10.3774 15.0945C11.0444 15.5823 11.7011 16.0919 12.3984 16.5263C13.375 17.1345 14.3434 16.9266 15.2255 16.2825C17.1106 14.9054 20.9913 11.9974 21.095 11.9205C21.095 14.2646 21.1158 16.6343 21.0688 18.9288L21.069 18.9285ZM20.7634 10.3486C20.4819 10.8295 20.0801 11.2706 19.6476 11.6053C18.1078 12.7973 16.5353 13.9424 14.9669 15.0925C13.8429 15.9168 13.3712 15.917 12.2475 15.092C10.6796 13.9413 9.08524 12.8253 7.5787 11.5894C7.00774 11.1208 6.49662 10.4255 6.22998 9.71798C5.84232 8.68932 6.53873 7.79386 7.58912 7.785C9.59326 7.76793 11.5974 7.78012 13.6015 7.7799C15.5341 7.7799 17.4666 7.77436 19.3994 7.78145C20.8935 7.78677 21.5547 8.9963 20.7634 10.3488V10.3486Z" fill="currentColor"/>
</svg>
