<svg width="25" height="24" viewBox="0 0 25 24" fill="none" xmlns="http://www.w3.org/2000/svg">
<path d="M4.81409 2.40704C4.81409 3.73684 3.73684 4.81409 2.40704 4.81409C1.07725 4.81409 0 3.73684 0 2.40704C0 1.07725 1.07725 0 2.40704 0C3.73684 0 4.81409 1.07867 4.81409 2.40704Z"/>
<path d="M14.4437 2.40704C14.4437 3.73684 13.3665 4.81409 12.0367 4.81409C10.7069 4.81409 9.62964 3.73684 9.62964 2.40704C9.62964 1.07725 10.7069 0 12.0367 0C13.3665 0 14.4437 1.07867 14.4437 2.40704Z"/>
<path d="M24.0734 2.40704C24.0734 3.73684 22.9961 4.81409 21.6663 4.81409C20.3365 4.81409 19.2593 3.73684 19.2593 2.40704C19.2593 1.07725 20.3365 0 21.6649 0C22.9933 0 24.0719 1.07867 24.0719 2.40704H24.0734Z"/>
<path d="M4.81409 11.7822C4.81409 13.112 3.73684 14.1892 2.40704 14.1892C1.07725 14.1892 0 13.1134 0 11.7822C0 10.4509 1.07725 9.37512 2.40704 9.37512C3.73684 9.37512 4.81409 10.4538 4.81409 11.7822Z"/>
<path d="M12.0367 14.1892C13.3661 14.1892 14.4437 13.1115 14.4437 11.7822C14.4437 10.4528 13.3661 9.37512 12.0367 9.37512C10.7073 9.37512 9.62964 10.4528 9.62964 11.7822C9.62964 13.1115 10.7073 14.1892 12.0367 14.1892Z"/>
<path d="M24.0734 11.7822C24.0734 13.112 22.9961 14.1892 21.6663 14.1892C20.3365 14.1892 19.2593 13.112 19.2593 11.7822C19.2593 10.4524 20.338 9.37512 21.6663 9.37512C22.9947 9.37512 24.0734 10.4538 24.0734 11.7822Z"/>
<path d="M4.81409 21.1578C4.81409 22.4876 3.73684 23.5649 2.40704 23.5649C1.07725 23.5649 0 22.4876 0 21.1578C0 19.828 1.07725 18.7508 2.40704 18.7508C3.73684 18.7508 4.81409 19.8295 4.81409 21.1578Z"/>
<path d="M14.4437 21.1578C14.4437 22.4876 13.3665 23.5649 12.0367 23.5649C10.7069 23.5649 9.62964 22.4876 9.62964 21.1578C9.62964 19.828 10.7069 18.7508 12.0367 18.7508C13.3665 18.7508 14.4437 19.8295 14.4437 21.1578Z"/>
<path d="M24.0734 21.1578C24.0734 22.4876 22.9961 23.5649 21.6663 23.5649C20.3365 23.5649 19.2593 22.4876 19.2593 21.1578C19.2593 19.828 20.338 18.7508 21.6663 18.7508C22.9947 18.7508 24.0734 19.8295 24.0734 21.1578Z"/>
</svg>
