<svg width="24" height="24" viewBox="0 0 24 24" fill="none" xmlns="http://www.w3.org/2000/svg">
<path d="M16.2857 5.33442C16.2857 6.43961 15.3273 7.33333 14.143 7.33333C12.9586 7.33333 12 6.43961 12 5.33442C12 4.22923 12.9607 3.33333 14.143 3.33333C15.3252 3.33333 16.2857 4.22923 16.2857 5.33442ZM10.6437 6C10.9737 7.5214 12.416 8.66667 14.143 8.66667C15.8699 8.66667 17.312 7.5214 17.642 6H21.2857C21.6813 6 22 5.70209 22 5.33442C22 4.96674 21.6813 4.66667 21.2857 4.66667H17.642C17.312 3.14527 15.8699 2 14.143 2C12.416 2 10.9737 3.14527 10.6437 4.66667H2.71432C2.321 4.66667 2 4.96458 2 5.33442C2 5.70426 2.321 6 2.71432 6H10.6437ZM9.14272 12.0011C9.14272 13.1041 8.18435 14 7 14C5.81565 14 4.85704 13.1041 4.85704 12.0011C4.85704 10.8981 5.81774 10 7 10C8.18227 10 9.14272 10.8959 9.14272 12.0011ZM3.50072 12.6667C3.83308 14.1881 5.27307 15.3333 7 15.3333C8.72693 15.3333 10.169 14.1881 10.4991 12.6667H21.2857C21.6813 12.6667 22 12.3688 22 12.0011C22 11.6334 21.6813 11.3333 21.2857 11.3333H10.4991C10.169 9.81194 8.72925 8.66667 7 8.66667C5.27076 8.66667 3.83308 9.81194 3.50072 11.3333H2.71432C2.321 11.3333 2 11.6312 2 12.0011C2 12.3709 2.321 12.6667 2.71432 12.6667H3.50072ZM19.143 18.6678C19.143 19.7708 18.1823 20.6667 17 20.6667C15.8177 20.6667 14.8573 19.7708 14.8573 18.6678C14.8573 17.5647 15.8177 16.6667 17 16.6667C18.1823 16.6667 19.143 17.5626 19.143 18.6678ZM13.501 19.3333C13.831 20.8547 15.2708 22 17 22C18.7292 22 20.1669 20.8547 20.4993 19.3333H21.2857C21.6813 19.3333 22 19.0354 22 18.6678C22 18.3001 21.6813 18 21.2857 18H20.4993C20.1669 16.4786 18.7269 15.3333 17 15.3333C15.2731 15.3333 13.831 16.4786 13.501 18H2.71432C2.321 18 2 18.2979 2 18.6678C2 19.0376 2.321 19.3333 2.71432 19.3333H13.501Z" fill="white"/>
</svg>
