<svg width="25" height="26" viewBox="0 0 25 26" fill="none" xmlns="http://www.w3.org/2000/svg">
<path fill-rule="evenodd" clip-rule="evenodd" d="M12.5 0.417969C19.4034 0.417969 25 6.01426 25 12.918C25 19.8217 19.4037 25.418 12.5 25.418C5.5963 25.418 0 19.8214 0 12.918C0 6.01454 5.5963 0.417969 12.5 0.417969ZM7.21135 6.65516H14.9041C15.7855 6.65516 16.5066 7.37624 16.5066 8.25768V13.386C16.5066 14.2674 15.7855 14.9885 14.9041 14.9885H11.4387L8.2693 16.9758V14.9885H7.21162C6.33018 14.9885 5.6091 14.2674 5.6091 13.386V8.25768C5.6091 7.37624 6.33018 6.65516 7.21162 6.65516H7.21135ZM8.71308 10.0253C9.15297 10.0253 9.50961 10.3819 9.50961 10.8218C9.50961 11.2617 9.15297 11.6184 8.71308 11.6184C8.2732 11.6184 7.91655 11.2617 7.91655 10.8218C7.91655 10.3819 8.2732 10.0253 8.71308 10.0253ZM11.0576 10.0253C11.4974 10.0253 11.8541 10.3819 11.8541 10.8218C11.8541 11.2617 11.4974 11.6184 11.0576 11.6184C10.6177 11.6184 10.261 11.2617 10.261 10.8218C10.261 10.3819 10.6177 10.0253 11.0576 10.0253ZM13.402 10.0253C13.8419 10.0253 14.1986 10.3819 14.1986 10.8218C14.1986 11.2617 13.8419 11.6184 13.402 11.6184C12.9622 11.6184 12.6055 11.2617 12.6055 10.8218C12.6055 10.3819 12.9622 10.0253 13.402 10.0253ZM18.2091 11.5663H17.2758V13.386C17.2758 14.692 16.2101 15.7577 14.9041 15.7577H11.66L11.3521 15.951V16.5317C11.3521 17.1821 11.8842 17.7141 12.5345 17.7141H15.0909L17.4292 19.1802V17.7141H18.2096C18.86 17.7141 19.392 17.1821 19.392 16.5317V12.7484C19.392 12.0981 18.86 11.566 18.2096 11.566L18.2091 11.5663Z" fill="currentColor"/>
</svg>
