<svg width="28" viewBox="0 0 28 28" fill="none" xmlns="http://www.w3.org/2000/svg">
<path d="M13.6111 0.399902C6.20547 0.399902 0.202148 6.40322 0.202148 13.8089C0.202148 21.2146 6.20547 27.2179 13.6111 27.2179C21.0168 27.2179 27.0201 21.2146 27.0201 13.8089C27.0201 6.40322 21.0168 0.399902 13.6111 0.399902ZM18.6946 20.7072C18.6946 21.2984 18.2154 21.7773 17.6245 21.7773H9.598C9.00687 21.7773 8.52789 21.2981 8.52789 20.7072V6.91057C8.52789 6.31944 9.00709 5.84046 9.598 5.84046H17.6245C18.2157 5.84046 18.6946 6.31966 18.6946 6.91057V20.7072Z" fill="currentColor"/>
<path d="M17.6261 7.88623H9.59961V18.0532H17.6261V7.88623Z" fill="currentColor"/>
<path d="M13.7227 19.207C13.2566 19.207 12.8789 19.5854 12.8789 20.0515C12.8789 20.5176 13.2566 20.896 13.7227 20.896C14.1888 20.896 14.5672 20.5176 14.5672 20.0515C14.5672 19.5854 14.1895 19.207 13.7227 19.207Z" fill="currentColor"/>
</svg>
