<svg width="30" height="30" viewBox="0 0 30 30" fill="none" xmlns="http://www.w3.org/2000/svg">
<path d="M15.0521 29.9474C23.3075 29.9186 29.9764 23.2029 29.9476 14.9476C29.9188 6.69227 23.2031 0.0233704 14.9477 0.0521892C6.69232 0.0810079 0.023359 6.79663 0.0521738 15.052C0.0809886 23.3073 6.79667 29.9762 15.0521 29.9474Z" fill="white"/>
<path fill-rule="evenodd" clip-rule="evenodd" d="M14.846 23.371C14.8877 23.3688 14.93 23.366 14.9718 23.3625L14.846 23.371ZM18.0651 21.2774L18.0907 21.2261C18.1649 21.2911 18.2399 21.3549 18.3163 21.416L18.3144 21.4228C21.0605 23.5714 23.3535 22.5316 25.0323 25.1404C25.1594 25.3376 25.2781 25.5411 25.3869 25.7487C22.9482 28.1019 19.7444 29.5929 16.2785 29.8897H13.7206C10.2528 29.5929 7.04057 28.0984 4.59668 25.7326C4.7467 25.453 4.91526 25.1819 5.1021 24.9214C6.68926 22.7081 8.81457 23.3314 11.1524 21.419L11.1515 21.416C11.1881 21.3868 11.2244 21.3571 11.2601 21.3265L11.2628 21.3325C11.4366 21.1244 11.5642 20.8786 11.6354 20.6124L11.6545 19.7676C11.0896 19.1885 10.7282 18.6997 10.5692 18.3007C10.4328 17.6135 10.3785 16.9128 10.4069 16.2131C9.91296 16.053 9.53628 15.6498 9.40945 15.146C9.30771 14.9581 9.23789 14.7554 9.20106 14.547C9.06687 13.7784 8.61846 13.3861 8.80639 12.6755C8.80611 12.5367 8.89612 12.4134 9.02868 12.3711C9.16042 12.3291 9.32926 12.4129 9.48337 12.5351C9.2788 11.95 9.22125 8.56212 9.31644 8.0594C9.31017 6.94921 10.0458 5.97132 11.1144 5.67018C11.6128 5.42196 12.1746 5.32949 12.7264 5.40341C13.4179 3.50218 16.1727 4.29868 17.5397 4.88132C18.786 5.24929 19.9007 5.92168 20.2438 7.19962C20.4498 7.96638 20.4855 8.77052 20.3464 9.55556C20.1623 10.5122 20.0682 11.4841 20.0663 12.4587C20.1882 12.3815 20.3123 12.3384 20.4143 12.3711C20.5466 12.4134 20.6366 12.5364 20.6366 12.6755C20.8248 13.3861 20.3761 13.7784 20.2417 14.547C20.2051 14.7554 20.1353 14.9581 20.0333 15.146C19.9067 15.6498 19.5298 16.053 19.0358 16.2131C19.0642 16.9131 19.0096 17.6138 18.8735 18.3007C18.715 18.6994 18.3536 19.1885 17.789 19.7676L17.8079 20.6124C17.8567 20.8478 17.9437 21.0723 18.0643 21.2772L18.0651 21.2774ZM11.4085 21.5846L11.409 21.5854L11.4098 21.5862L11.4085 21.5846Z" fill="url(#paint0_linear_1415_2914)"/>
<defs>
<linearGradient id="paint0_linear_1415_2914" x1="-2.39788" y1="12.5" x2="24.6021" y2="39.5" gradientUnits="userSpaceOnUse">
<stop stop-color="#D38F6D"/>
<stop offset="1" stop-color="#11627D"/>
</linearGradient>
</defs>
</svg>
