<svg width="28" viewBox="0 0 28 27" fill="none" xmlns="http://www.w3.org/2000/svg">
<path d="M7.79005 22.1975L8.24483 22.4682C9.91539 23.4619 11.8172 23.9864 13.7423 23.9864C19.6803 23.9864 24.5111 19.1675 24.5111 13.244C24.5111 7.32056 19.679 2.5042 13.7423 2.5042C7.80556 2.5042 2.97348 7.32185 2.97348 13.2453C2.97348 15.2018 3.51871 17.1273 4.54843 18.8144L4.8275 19.2719L3.75127 23.2776L7.78876 22.1975M0.202148 26.818L2.12981 19.6444C1.03807 17.6802 0.464424 15.4802 0.464424 13.2453C0.464424 5.94151 6.42053 0 13.7423 0C21.064 0 27.0201 5.94151 27.0201 13.2453C27.0201 20.5491 21.064 26.4906 13.7423 26.4906C11.5446 26.4906 9.37404 25.9377 7.43088 24.886L0.202148 26.818Z" fill="currentColor"/>
<path fill-rule="evenodd" clip-rule="evenodd" d="M18.6818 15.0876C18.1353 14.7615 17.4247 14.398 16.7799 14.6597C16.2864 14.8607 15.9712 15.6327 15.6507 16.0271C15.4867 16.2295 15.2903 16.2604 15.0383 16.1599C13.1843 15.424 11.7631 14.188 10.7399 12.4867C10.5667 12.2225 10.5977 12.0137 10.807 11.7688C11.1158 11.4054 11.5047 10.9929 11.5874 10.5045C11.6714 10.0147 11.4414 9.44377 11.2386 9.00815C10.9789 8.45137 10.6895 7.65745 10.1313 7.34298C9.61711 7.05299 8.9401 7.21539 8.48274 7.58786C7.69203 8.2297 7.3109 9.23627 7.32252 10.2325C7.32511 10.5161 7.35999 10.7983 7.42718 11.0716C7.58609 11.7289 7.891 12.3424 8.23467 12.9275C8.49307 13.3683 8.77473 13.7949 9.07706 14.206C10.0693 15.5503 11.3032 16.7179 12.7308 17.5905C13.4453 18.0261 14.214 18.4089 15.0099 18.6718C15.9027 18.9657 16.6986 19.2724 17.6624 19.0894C18.6714 18.8986 19.6676 18.2748 20.0681 17.3044C20.1869 17.0169 20.2464 16.6973 20.1792 16.3932C20.0422 15.7655 19.1908 15.393 18.6818 15.0889" fill="currentColor"/>
</svg>
