<svg width="25" height="25" viewBox="0 0 25 25" fill="none" xmlns="http://www.w3.org/2000/svg">
<path fill-rule="evenodd" clip-rule="evenodd" d="M12.5 0C19.4034 0 25 5.5963 25 12.5C25 19.4037 19.4037 25 12.5 25C5.5963 25 0 19.4034 0 12.5C0 5.59657 5.5963 0 12.5 0ZM19.1732 16.9807L16.0077 13.9444C15.8053 13.7503 15.484 13.7537 15.2858 13.9519L13.8531 15.3846C12.0234 14.2852 10.5854 12.8914 9.61568 11.1472L11.0484 9.71452C11.2466 9.51629 11.2499 9.19501 11.0559 8.99261L8.01957 5.8271C7.9199 5.72325 7.79656 5.6698 7.65262 5.6684C7.50869 5.66701 7.38424 5.71768 7.28234 5.81958C6.93823 6.16369 6.73387 6.36805 6.26392 6.838C2.89128 10.2106 14.7899 22.1093 18.1626 18.7366C18.6325 18.2667 18.8369 18.0623 19.181 17.7182C19.2829 17.6163 19.3335 17.4919 19.3322 17.3479C19.3308 17.204 19.2773 17.0807 19.1735 16.981L19.1732 16.9807Z" fill="currentColor"/>
</svg>
