<svg width="36" height="45" viewBox="0 0 36 45" fill="none" xmlns="http://www.w3.org/2000/svg">
  <circle cx="18" cy="18" r="15" fill="black" fill-opacity="0.5" />
  <path d="M17.9432 0C27.8368 0 35.8867 8.12599 35.8867 18.1119C35.8867 28.0978 29.8762 33.6319 20.7788 42.2996C19.8621 43.1739 18.9218 44.0698 17.9576 45C16.7878 43.8388 15.6494 42.7307 14.5397 41.6503C6.09861 33.4304 -0.000785828 27.4918 -0.000785828 18.1119C-0.00101852 8.12599 8.0491 0 17.9432 0ZM17.9427 31.403C25.5035 31.403 31.6339 25.2157 31.6339 17.5841C31.6339 9.95259 25.5035 3.7643 17.943 3.7643C10.3824 3.7643 4.2523 9.95003 4.2523 17.5841C4.2523 25.2183 10.3826 31.403 17.943 31.403H17.9427Z" fill="white" />
  <path d="M12.1484 10.0127H12.7109C19.6076 10.0127 25.1984 15.6035 25.1984 22.5002H12.1484V10.0127Z" fill="rgba(211, 143, 109, 1)" />
</svg>
