<svg width="52" height="51" viewBox="0 0 132 132" fill="none" xmlns="http://www.w3.org/2000/svg">
<mask id="path-1-inside-1_443_58181" fill="white">
<path fill-rule="evenodd" clip-rule="evenodd" d="M129.131 65.8949H131.812C131.177 65.8949 130.545 65.8859 129.915 65.8681C130.545 65.8503 131.177 65.8413 131.812 65.8413H129.131C93.9745 64.4351 65.9058 35.4954 65.9058 0C65.9058 35.4955 37.8367 64.4354 2.68028 65.8413H0.000301652C0.634447 65.8413 1.2665 65.8503 1.89634 65.8681C1.2664 65.8859 0.634246 65.8948 0 65.8948H2.68058C37.837 67.3008 65.9061 96.2406 65.9061 131.736C65.9061 96.2408 93.9748 67.3011 129.131 65.8949Z"/>
</mask>
<path d="M129.131 65.8949V63.8949H129.091L129.051 63.8965L129.131 65.8949ZM129.915 65.8681L129.859 63.8689L129.859 67.8673L129.915 65.8681ZM129.131 65.8413L129.051 67.8397L129.091 67.8413H129.131V65.8413ZM2.68028 65.8413V67.8413H2.72026L2.7602 67.8397L2.68028 65.8413ZM1.89634 65.8681L1.95281 67.8673L1.95281 63.8689L1.89634 65.8681ZM2.68058 65.8948L2.7605 63.8964L2.72056 63.8948H2.68058V65.8948ZM131.812 63.8949H129.131V67.8949H131.812V63.8949ZM129.859 67.8673C130.507 67.8856 131.158 67.8949 131.812 67.8949V63.8949C131.196 63.8949 130.583 63.8862 129.972 63.8689L129.859 67.8673ZM131.812 63.8413C131.159 63.8413 130.507 63.8506 129.859 63.8689L129.972 67.8673C130.583 67.85 131.196 67.8413 131.812 67.8413V63.8413ZM129.131 67.8413H131.812V63.8413H129.131V67.8413ZM63.9058 0C63.9058 36.5734 92.8266 66.3908 129.051 67.8397L129.211 63.8429C95.1225 62.4794 67.9058 34.4173 67.9058 0H63.9058ZM2.7602 67.8397C38.9846 66.3911 67.9058 36.5736 67.9058 0H63.9058C63.9058 34.4174 36.6888 62.4797 2.60037 63.8429L2.7602 67.8397ZM0.000301652 67.8413H2.68028V63.8413H0.000301652V67.8413ZM1.95281 63.8689C1.30416 63.8506 0.65328 63.8413 0.000301652 63.8413V67.8413C0.615613 67.8413 1.22884 67.85 1.83987 67.8673L1.95281 63.8689ZM0 67.8948C0.653077 67.8948 1.30405 67.8856 1.95281 67.8673L1.83988 63.8689C1.22875 63.8861 0.615416 63.8948 0 63.8948V67.8948ZM2.68058 63.8948H0V67.8948H2.68058V63.8948ZM67.9061 131.736C67.9061 95.1625 38.9849 65.3451 2.7605 63.8964L2.60067 67.8932C36.6891 69.2565 63.9061 97.3187 63.9061 131.736H67.9061ZM129.051 63.8965C92.8269 65.3454 63.9061 95.1627 63.9061 131.736H67.9061C67.9061 97.3189 95.1228 69.2568 129.211 67.8933L129.051 63.8965Z" fill="white" mask="url(#path-1-inside-1_443_58181)"/>
</svg>
