<svg width="13" height="10" viewBox="0 0 13 10" fill="none" xmlns="http://www.w3.org/2000/svg">
<path fill-rule="evenodd" clip-rule="evenodd" d="M1.92747 7.50271L0 5.0009H1.15817V5C1.15817 3.61936 1.70815 2.36936 2.59732 1.46452C3.48649 0.559678 4.71483 0 6.07156 0C7.42829 0 8.65664 0.559678 9.5458 1.46452C9.56444 1.48348 9.5828 1.50253 9.60108 1.52176L8.6892 2.70549C8.6333 2.63949 8.57501 2.57566 8.51451 2.51408C7.88937 1.87793 7.02567 1.48447 6.07156 1.48447C5.11745 1.48447 4.25375 1.87793 3.62862 2.51408C3.00349 3.15023 2.61675 4.02916 2.61675 5.00009V5.00099H3.85486L1.92747 7.50271ZM6.07156 8.51562C5.11745 8.51562 4.25375 8.12216 3.62862 7.48601C3.56829 7.42461 3.51026 7.36105 3.45455 7.29532L2.54267 8.47896C2.56077 8.49792 2.57895 8.51688 2.59732 8.53557C3.48649 9.44032 4.71483 10 6.07156 10C7.42829 10 8.65664 9.44032 9.5458 8.53548C10.4345 7.63109 10.9843 6.382 10.985 5.00235H12.1429L10.2154 2.50054L8.28791 5.00235H9.52629C9.52566 5.97228 9.1391 6.85031 8.51451 7.48601C7.88937 8.12216 7.02567 8.51562 6.07156 8.51562Z" fill="#A5B7BF"/>
</svg>
