<svg width="25" height="24" viewBox="0 0 25 24" fill="none" xmlns="http://www.w3.org/2000/svg">
<path d="M22.5835 4.66663V10.1666H17.0835" stroke="white" stroke-width="1.5" stroke-linecap="round" stroke-linejoin="round"/>
<path d="M2.4165 19.3334V13.8334H7.9165" stroke="white" stroke-width="1.5" stroke-linecap="round" stroke-linejoin="round"/>
<path d="M4.01031 8.99974C3.87213 9.39023 4.07666 9.8188 4.46715 9.95698C4.85763 10.0952 5.2862 9.89062 5.42438 9.50014L4.01031 8.99974ZM18.3298 6.16994L17.7994 6.70014C17.8049 6.70568 17.8106 6.71114 17.8163 6.71651L18.3298 6.16994ZM22.0696 10.7132C22.3715 10.9968 22.8461 10.982 23.1297 10.6802C23.4134 10.3783 23.3986 9.90369 23.0968 9.62004L22.0696 10.7132ZM2.93009 13.2867C2.62823 13.0031 2.15358 13.0178 1.86994 13.3197C1.5863 13.6216 1.60106 14.0962 1.90292 14.3798L2.93009 13.2867ZM6.66984 17.8299L7.2003 17.2997C7.19476 17.2942 7.18913 17.2887 7.18342 17.2834L6.66984 17.8299ZM20.9894 15.0001C21.1276 14.6097 20.923 14.1811 20.5325 14.0429C20.142 13.9047 19.7135 14.1093 19.5753 14.4997L20.9894 15.0001ZM5.42438 9.50014C6.28345 7.07248 8.32794 5.25532 10.8396 4.68702L10.5086 3.224C7.49458 3.90596 5.04119 6.08656 4.01031 8.99974L5.42438 9.50014ZM10.8396 4.68702C13.3513 4.11872 15.9789 4.87876 17.7994 6.70014L18.8603 5.63974C16.6758 3.45409 13.5226 2.54204 10.5086 3.224L10.8396 4.68702ZM17.8163 6.71651L22.0696 10.7132L23.0968 9.62004L18.8434 5.62338L17.8163 6.71651ZM1.90292 14.3798L6.15625 18.3765L7.18342 17.2834L2.93009 13.2867L1.90292 14.3798ZM6.13937 18.3601C8.32393 20.5458 11.4771 21.4578 14.4911 20.7759L14.1601 19.3129C11.6484 19.8812 9.02077 19.1211 7.2003 17.2997L6.13937 18.3601ZM14.4911 20.7759C17.5051 20.0939 19.9585 17.9133 20.9894 15.0001L19.5753 14.4997C18.7162 16.9274 16.6717 18.7446 14.1601 19.3129L14.4911 20.7759Z" fill="white"/>
</svg>
