<svg width="28" height="28" viewBox="0 0 28 28" fill="none" xmlns="http://www.w3.org/2000/svg">
  <path d="M21.3945 27.2704C21.0746 27.2704 20.7668 27.1686 20.5013 26.9747L13.8057 22.0826L7.11009 26.9747C6.83248 27.1775 6.50857 27.2799 6.1728 27.2698C5.86652 27.2608 5.57164 27.1595 5.32029 26.9767C5.06882 26.7937 4.88138 26.5444 4.77825 26.2556C4.66529 25.9391 4.66205 25.5991 4.76902 25.2721L7.34777 17.3858L0.630945 12.523C0.352371 12.3213 0.155343 12.0444 0.0609658 11.722C-0.0251367 11.4276 -0.0199801 11.1156 0.0760757 10.8197C0.172131 10.5238 0.351052 10.2683 0.59365 10.0808C0.859272 9.87554 1.18186 9.7669 1.52519 9.7681L9.81452 9.78623L12.3589 1.8887C12.4644 1.56122 12.6666 1.288 12.9438 1.09844C13.1969 0.925459 13.4949 0.833984 13.8057 0.833984C14.1165 0.833984 14.4145 0.925459 14.6676 1.09844C14.9447 1.288 15.147 1.56122 15.2525 1.8887L17.7969 9.78623L26.0862 9.7681C26.43 9.76726 26.7521 9.87554 27.0177 10.0808C27.2603 10.2683 27.4393 10.5238 27.5353 10.8197C27.6314 11.1156 27.6366 11.4276 27.5504 11.722C27.456 12.0444 27.2589 12.3215 26.9804 12.523L20.2635 17.3858L22.8423 25.2721C22.9492 25.5991 22.9461 25.9391 22.833 26.2556C22.7299 26.5444 22.5425 26.7937 22.2911 26.9767C22.0396 27.1595 21.7449 27.2608 21.4385 27.2698C21.4238 27.2702 21.4091 27.2704 21.3945 27.2704ZM13.8057 20.3927C14.1198 20.3927 14.4338 20.4905 14.702 20.6864L21.1396 25.3902L18.6602 17.8076C18.4537 17.1762 18.6762 16.4904 19.2141 16.1011L25.6722 11.4256L17.7021 11.443C17.7011 11.443 17.6999 11.443 17.6988 11.443C17.0365 11.443 16.4553 11.0195 16.2519 10.3883L13.8057 2.79492L11.3593 10.3883C11.1559 11.0195 10.5748 11.4429 9.91262 11.443C9.91142 11.443 9.91034 11.443 9.90926 11.443L1.93915 11.4256L8.39731 16.1011C8.93515 16.4904 9.15772 17.1762 8.95122 17.8076L6.47176 25.3902L12.9094 20.6864C13.1774 20.4907 13.4915 20.3927 13.8057 20.3927Z" fill="#D38F6D" />
</svg>
