<svg width="48" height="48" viewBox="0 0 48 48" fill="none" xmlns="http://www.w3.org/2000/svg">
<path d="M0 24C0 10.7452 10.7452 0 24 0C37.2548 0 48 10.7452 48 24C48 37.2548 37.2548 48 24 48C10.7452 48 0 37.2548 0 24Z" fill="#11627D" fill-opacity="0.08"/>
<path d="M30.6667 15.875H17.3333C16.9472 15.8772 16.5776 16.0315 16.3046 16.3046C16.0315 16.5776 15.8772 16.9472 15.875 17.3333V30.6667C15.8772 31.0528 16.0315 31.4224 16.3046 31.6954C16.5776 31.9685 16.9472 32.1228 17.3333 32.125H30.6667C31.0528 32.1228 31.4224 31.9685 31.6954 31.6954C31.9685 31.4224 32.1228 31.0528 32.125 30.6667V17.3333C32.1228 16.9472 31.9685 16.5776 31.6954 16.3046C31.4224 16.0315 31.0528 15.8772 30.6667 15.875ZM22.125 25.875V22.125H25.875V25.875H22.125ZM25.875 27.125V30.875H22.125V27.125H25.875ZM17.125 22.125H20.875V25.875H17.125V22.125ZM22.125 20.875V17.125H25.875V20.875H22.125ZM27.125 22.125H30.875V25.875H27.125V22.125ZM30.875 17.3333V20.875H27.125V17.125H30.6667C30.7219 17.125 30.7749 17.1469 30.814 17.186C30.8531 17.2251 30.875 17.2781 30.875 17.3333ZM17.3333 17.125H20.875V20.875H17.125V17.3333C17.125 17.2781 17.1469 17.2251 17.186 17.186C17.2251 17.1469 17.2781 17.125 17.3333 17.125ZM17.125 30.6667V27.125H20.875V30.875H17.3333C17.2781 30.875 17.2251 30.8531 17.186 30.814C17.1469 30.7749 17.125 30.7219 17.125 30.6667ZM30.6667 30.875H27.125V27.125H30.875V30.6667C30.875 30.7219 30.8531 30.7749 30.814 30.814C30.7749 30.8531 30.7219 30.875 30.6667 30.875Z" fill="#11627D"/>
</svg>
