<svg width="40" height="40" viewBox="0 0 40 40" fill="none" xmlns="http://www.w3.org/2000/svg">
<rect width="40" height="40" fill="#D38F6D"/>
<path d="M10.667 32.1333V7.86664H20.5817C23.4474 7.86664 25.7123 8.64086 27.3763 10.1893C29.0403 11.7377 29.8723 13.7831 29.8723 16.3253C29.8723 19.0293 28.9479 21.1324 27.099 22.6346C25.2501 24.1138 22.9043 24.8533 20.0617 24.8533H16.0057V32.1333H10.667ZM16.0057 20.104H20.235C21.5523 20.104 22.5808 19.7573 23.3203 19.064C24.083 18.3706 24.4643 17.4693 24.4643 16.36C24.4643 15.1813 24.083 14.28 23.3203 13.656C22.5577 13.0089 21.4945 12.6853 20.131 12.6853H16.0057V20.104Z" fill="white"/>
</svg>
