<svg width="15" height="15" viewBox="0 0 15 15" fill="none" xmlns="http://www.w3.org/2000/svg">
<path d="M13.4364 7.14767C13.1294 7.14767 12.8797 7.39743 12.8797 7.70445V12.1127C12.8797 12.5396 12.5323 12.887 12.1053 12.887H2.8879C2.46094 12.887 2.11357 12.5396 2.11357 12.1127V2.89523C2.11357 2.46827 2.46094 2.1209 2.8879 2.1209H7.2961C7.60313 2.1209 7.85288 1.87115 7.85288 1.56412C7.85288 1.25709 7.60313 1.00745 7.2961 1.00745H2.8879C1.84688 1.00745 1 1.85433 1 2.89523V12.1127C1 13.1537 1.84688 14.0006 2.8879 14.0006H12.1053C13.1463 14.0006 13.9932 13.1537 13.9932 12.1127V7.70445C13.9932 7.39743 13.7435 7.14767 13.4364 7.14767Z" fill="#555555" stroke="#555555" stroke-width="0.5"/>
<path d="M13.3685 1H10.2381C10.0913 1 9.95274 1.05661 9.84798 1.1595C9.74344 1.26218 9.6843 1.39948 9.68144 1.5459C9.67858 1.69397 9.7352 1.83468 9.84062 1.94219C9.94736 2.05102 10.0956 2.11346 10.2472 2.11346H12.1037L7.11155 7.11813C6.89478 7.33535 6.89511 7.68854 7.11254 7.90565C7.21774 8.01041 7.35735 8.06812 7.50565 8.06812C7.65394 8.06812 7.79475 8.00997 7.89985 7.90455L12.8887 2.90329V4.94244C12.8887 5.08931 12.9453 5.22781 13.0482 5.33257C13.1509 5.43712 13.2882 5.49626 13.4346 5.49911C13.5824 5.50208 13.7234 5.44547 13.8309 5.33994C13.9397 5.2332 14.0021 5.08491 14.0021 4.93332V1.63384C14.0021 1.28438 13.7178 1 13.3683 1H13.3685Z" fill="#555555" stroke="#555555" stroke-width="0.5"/>
</svg>
