<svg width="49" height="48" viewBox="0 0 49 48" fill="none" xmlns="http://www.w3.org/2000/svg">
<path d="M0.333313 24C0.333313 10.7452 11.0785 0 24.3333 0C37.5881 0 48.3333 10.7452 48.3333 24C48.3333 37.2548 37.5881 48 24.3333 48C11.0785 48 0.333313 37.2548 0.333313 24Z" fill="#11627D" fill-opacity="0.08"/>
<g clip-path="url(#clip0_5588_452)">
<path d="M35.5833 17H13.0833C12.6691 17 12.3333 17.3358 12.3333 17.75C12.3333 18.1642 12.6691 18.5 13.0833 18.5H35.5833C35.9975 18.5 36.3333 18.1642 36.3333 17.75C36.3333 17.3358 35.9975 17 35.5833 17ZM34.8333 20.75H13.8333C13.4191 20.75 13.0833 21.0858 13.0833 21.5V24.5C13.0833 24.9142 13.4191 25.25 13.8333 25.25H34.8333C35.2475 25.25 35.5833 24.9142 35.5833 24.5V21.5C35.5833 21.0858 35.2475 20.75 34.8333 20.75ZM34.0833 23.75H14.5833V22.25H34.0833L34.0833 23.75ZM24.3333 26.75C23.9191 26.75 23.5833 27.0858 23.5833 27.5V28.25C23.5833 28.6642 23.9191 29 24.3333 29C24.7475 29 25.0833 28.6642 25.0833 28.25V27.5C25.0833 27.0858 24.7475 26.75 24.3333 26.75ZM19.3031 26.2198L18.5531 26.9698C18.2551 27.2575 18.2469 27.7323 18.5346 28.0303C18.8224 28.3282 19.2972 28.3365 19.5951 28.0487C19.6014 28.0427 19.6075 28.0365 19.6136 28.0303L20.3636 27.2803C20.6513 26.9823 20.6431 26.5075 20.3451 26.2198C20.0545 25.9391 19.5937 25.9391 19.3031 26.2198ZM30.1136 26.9698L29.3636 26.2198C29.0656 25.932 28.5908 25.9403 28.3031 26.2382C28.0224 26.5289 28.0224 26.9896 28.3031 27.2803L29.0531 28.0303C29.351 28.318 29.8258 28.3098 30.1136 28.0118C30.3943 27.7212 30.3943 27.2604 30.1136 26.9698Z" fill="#11627D"/>
</g>
<defs>
<clipPath id="clip0_5588_452">
<rect width="20" height="20" fill="white" transform="translate(14.3333 14)"/>
</clipPath>
</defs>
</svg>
