<svg width="30" height="30" viewBox="0 0 30 30" fill="none" xmlns="http://www.w3.org/2000/svg">
<path d="M27.8672 15.7837V22.3402C27.8672 26.2329 24.7009 29.3998 20.809 29.3998H16.9789C14.3895 29.3998 12.1608 28.1133 10.8643 25.8702L6.51041 18.3269C6.0985 17.6148 6.34278 16.6989 7.0551 16.2855C8.67727 15.35 10.6627 15.8568 11.5763 17.4386L12.7286 19.4344V6.41783C12.7286 5.1856 13.7318 4.18312 14.965 4.18312C16.1982 4.18312 17.1998 5.1856 17.1998 6.41783V12.4196C17.5854 12.1036 18.078 11.9138 18.6144 11.9138C19.5269 11.9138 20.3135 12.4636 20.6602 13.2493C21.067 12.8301 21.6363 12.5693 22.2654 12.5693C23.2853 12.5693 24.1478 13.256 24.4148 14.1913C24.7806 13.8785 25.2551 13.6894 25.7728 13.6894C26.9277 13.6894 27.8672 14.6288 27.8672 15.7837ZM3.44227 7.57974H8.2799C8.7653 7.57974 9.15881 7.18622 9.15881 6.70083C9.15881 6.21544 8.7653 5.82193 8.2799 5.82193H3.4977L4.05293 5.27689C4.39934 4.93687 4.40449 4.3804 4.06442 4.034C3.7244 3.68759 3.16793 3.68243 2.82153 4.02245L0.732014 6.07365C0.649629 6.1545 0.583979 6.25078 0.538814 6.35701C0.493649 6.46323 0.469854 6.57732 0.468788 6.69274C0.467721 6.80817 0.489404 6.92267 0.532599 7.02971C0.575793 7.13675 0.639653 7.23424 0.720529 7.31659L2.7702 9.40435C2.85194 9.4878 2.94953 9.55407 3.05725 9.59926C3.16497 9.64445 3.28063 9.66765 3.39744 9.66749C3.61963 9.66749 3.84205 9.58376 4.01315 9.41577C4.35949 9.0757 4.36465 8.51923 4.02457 8.17288L3.44227 7.57974ZM29.2683 6.07388L27.1805 4.02269C26.8342 3.68249 26.2777 3.68747 25.9376 4.0337C25.5974 4.37999 25.6023 4.93646 25.9486 5.2766L26.5037 5.82187H21.7202C21.2348 5.82187 20.8413 6.21538 20.8413 6.70078C20.8413 7.18617 21.2348 7.57968 21.7202 7.57968H26.5579L25.9755 8.17277C25.6355 8.51917 25.6406 9.07564 25.987 9.41566C26.1511 9.57724 26.3723 9.66767 26.6027 9.66738C26.8303 9.66738 27.0579 9.57949 27.2299 9.40423L29.2796 7.31648C29.6196 6.97019 29.6145 6.41396 29.2683 6.07388Z" fill="#CDD0D3"/>
</svg>
