<svg width="12" height="7" viewBox="0 0 12 7" fill="none" xmlns="http://www.w3.org/2000/svg">
<path d="M5.99953 4.94665L10.0726 0.873576C10.2111 0.735109 10.3851 0.664276 10.5947 0.661076C10.8043 0.657859 10.9816 0.728692 11.1264 0.873576C11.2713 1.01844 11.3437 1.19408 11.3437 1.40048C11.3437 1.60688 11.2713 1.78251 11.1264 1.92738L6.6322 6.4216C6.53862 6.5152 6.4399 6.58123 6.33605 6.61968C6.23222 6.65814 6.12004 6.67738 5.99953 6.67738C5.87901 6.67738 5.76683 6.65814 5.663 6.61968C5.55915 6.58123 5.46043 6.5152 5.36685 6.4216L0.872625 1.92737C0.734158 1.78892 0.663325 1.61489 0.660126 1.40527C0.656909 1.19567 0.727742 1.01844 0.872625 0.873575C1.01749 0.728692 1.19313 0.65625 1.39953 0.65625C1.60593 0.65625 1.78156 0.728692 1.92642 0.873575L5.99953 4.94665Z" fill="white"/>
</svg>
