<svg width="28" viewBox="0 0 28 28" fill="none" xmlns="http://www.w3.org/2000/svg">
<path fill-rule="evenodd" clip-rule="evenodd" d="M17.4022 9.97196C16.9409 10.0949 13.3314 12.4086 12.8419 12.7162C12.088 13.1904 11.3469 13.6337 10.6071 14.115C9.35589 14.9283 9.68847 14.9206 8.10405 14.3801C7.1539 14.0565 5.37199 13.7399 6.0037 13.0836C6.42312 12.648 12.9693 10.3213 13.8126 9.99641C15.5881 9.3118 17.3526 8.7385 19.1378 8.05517C19.7444 7.82289 20.1876 7.7637 20.1625 8.55576C20.1227 9.8066 18.1716 17.6462 17.8563 18.9202C17.7303 19.4285 17.4736 19.8918 16.82 19.6595C16.6154 19.5868 16.4469 19.3976 16.3041 19.2837L14.7505 18.1558C14.4495 17.9415 14.0017 17.5709 13.6872 17.4255L13.0567 17.9364C12.5595 18.3282 11.3083 19.9252 11.1391 19.1512L11.2581 17.6185C11.4472 15.5724 11.1951 16.0209 11.9233 15.3138L12.6978 14.597C12.7956 14.5037 12.831 14.4451 12.9294 14.355L15.4787 12.02C15.8853 11.6578 17.2452 10.4861 17.4022 9.97325V9.97196ZM26.9937 14.4548C27.5887 4.45258 17.6646 -2.37554 8.70359 1.13053C7.78948 1.48828 6.26101 2.29836 5.49228 2.92443C4.9725 3.34845 4.10727 4.07617 3.72709 4.55296C2.79818 5.71758 2.51963 5.88487 1.67499 7.50311C-1.09824 12.8153 0.136879 19.5405 4.58395 23.5015L5.48456 24.2671C5.97218 24.6963 6.84448 25.222 7.51865 25.5669C10.9545 27.326 14.8985 27.4663 18.5337 26.0932C19.3443 25.7869 20.0847 25.3957 20.7454 24.9704C22.3858 23.9145 23.013 23.2602 24.2674 21.7616C25.7811 19.9536 26.8431 16.9912 26.9937 14.4541V14.4548Z" fill="currentColor"/>
</svg>
