<svg width="48" height="48" viewBox="0 0 48 48" fill="none" xmlns="http://www.w3.org/2000/svg">
  <path d="M0 24C0 10.7452 10.7452 0 24 0C37.2548 0 48 10.7452 48 24C48 37.2548 37.2548 48 24 48C10.7452 48 0 37.2548 0 24Z" fill="#11627D" fill-opacity="0.08"/>
  <g clip-path="url(#clip0_5255_20774)">
    <path d="M12.5971 23.309L18.1148 25.3665L20.2658 32.287C20.3593 32.7546 20.9204 32.8481 21.2945 32.5675L24.3807 30.0425C24.6612 29.7619 25.1288 29.7619 25.5029 30.0425L31.0206 34.0639C31.3947 34.3444 31.9558 34.1574 32.0493 33.6898L36.1642 14.0505C36.2578 13.5829 35.7902 13.1153 35.3226 13.3024L12.5971 22.0933C12.036 22.2803 12.036 23.122 12.5971 23.309ZM19.9852 24.3377L30.8336 17.6978C31.0206 17.6043 31.2077 17.8849 31.0206 17.9784L22.1362 26.3017C21.8556 26.5822 21.5751 26.9563 21.5751 27.4239L21.2945 29.6684C21.2945 29.949 20.8269 30.0425 20.7334 29.6684L19.6111 25.5535C19.3306 25.0859 19.5176 24.5248 19.9852 24.3377Z" fill="#277B97"/>
  </g>
  <defs>
    <clipPath id="clip0_5255_20774">
      <rect width="24" height="24" fill="white" transform="translate(12 12)"/>
    </clipPath>
  </defs>
</svg>
