<svg width="45" height="45" viewBox="0 0 45 45" fill="none" xmlns="http://www.w3.org/2000/svg">
  <path fill-rule="evenodd" clip-rule="evenodd" d="M28.8629 16.3972C28.089 16.6034 22.0323 20.4859 21.2108 21.002C19.9457 21.7977 18.7022 22.5416 17.4609 23.3492C15.3614 24.7139 15.9195 24.7009 13.2608 23.794C11.6665 23.251 8.67651 22.7198 9.73651 21.6185C10.4403 20.8876 21.4246 16.9835 22.8397 16.4382C25.8189 15.2895 28.7798 14.3275 31.7752 13.1809C32.7931 12.7911 33.5368 12.6918 33.4947 14.0209C33.4278 16.1197 30.1539 29.2744 29.625 31.4122C29.4134 32.2651 28.9827 33.0425 27.886 32.6527C27.5428 32.5307 27.26 32.2133 27.0203 32.0222L24.4135 30.1295C23.9083 29.77 23.157 29.1481 22.6292 28.9041L21.5714 29.7613C20.737 30.4189 18.6375 33.0986 18.3536 31.7998L18.5533 29.228C18.8706 25.7946 18.4475 26.5472 19.6694 25.3606L20.969 24.1579C21.1331 24.0013 21.1925 23.9031 21.3576 23.7519L25.6354 19.8338C26.3176 19.2259 28.5995 17.2599 28.8629 16.3994V16.3972ZM44.9572 23.9193C45.9557 7.13582 29.3033 -4.32162 14.2669 1.56149C12.733 2.16179 10.1683 3.52109 8.87836 4.57161C8.00618 5.28311 6.55435 6.50421 5.91641 7.30425C4.35772 9.25845 3.89032 9.53916 2.47303 12.2545C-2.18039 21.1683 -0.107883 32.453 7.35421 39.0994L8.86541 40.3842C9.68362 41.1043 11.1473 41.9864 12.2786 42.5651C18.0438 45.5169 24.6618 45.7523 30.7616 43.4483C32.1217 42.9344 33.3641 42.2779 34.4727 41.5643C37.2252 39.7925 38.2777 38.6945 40.3826 36.18C42.9225 33.1461 44.7046 28.1753 44.9572 23.9182V23.9193Z" fill="white" />
</svg>
