<svg width="48" height="48" viewBox="0 0 48 48" fill="none" xmlns="http://www.w3.org/2000/svg">
  <path d="M0 24C0 10.7452 10.7452 0 24 0C37.2548 0 48 10.7452 48 24C48 37.2548 37.2548 48 24 48C10.7452 48 0 37.2548 0 24Z" fill="#11627D" fill-opacity="0.08"/>
  <path d="M35.7771 29.1339C35.7771 29.0367 35.6816 29.0367 35.6816 28.9396C35.2996 28.1625 34.4402 27.1912 33.2943 26.1227C32.7214 25.637 32.4349 25.2484 32.2439 25.0542C31.9575 24.6656 31.9575 24.3742 32.053 23.9857C32.1485 23.6943 32.5304 23.2086 33.1988 22.3344C33.5808 21.8487 33.7718 21.5573 34.0582 21.2659C35.4906 19.3232 36.159 18.0604 35.968 17.4776L35.8726 17.3804C35.7771 17.2833 35.6816 17.1862 35.4906 17.1862C35.2996 17.089 35.0131 17.089 34.7267 17.1862H31.0981C31.0026 17.1862 31.0026 17.1862 30.8116 17.1862C30.7161 17.1862 30.6206 17.1862 30.6206 17.1862H30.5251H30.4296L30.3341 17.2833C30.2386 17.3804 30.2386 17.3804 30.2386 17.4776C29.8567 18.5461 29.3792 19.4203 28.9018 20.3916C28.6153 20.8773 28.3288 21.363 28.0424 21.7516C27.7559 22.1401 27.5649 22.4315 27.3739 22.6258C27.1829 22.82 26.992 22.9172 26.8965 23.1115C26.801 23.2086 26.61 23.3057 26.61 23.2086C26.5145 23.2086 26.419 23.2086 26.419 23.1115C26.3235 23.0143 26.228 22.9172 26.1326 22.82C26.0371 22.7229 26.0371 22.5286 25.9416 22.3344C25.9416 22.1401 25.9416 21.9458 25.9416 21.8487C25.9416 21.7515 25.9416 21.4601 25.9416 21.2659C25.9416 20.9745 25.9416 20.7802 25.9416 20.6831C25.9416 20.3916 25.9416 20.0031 25.9416 19.6146C25.9416 19.226 25.9416 18.9346 25.9416 18.7403C25.9416 18.5461 25.9416 18.2547 25.9416 18.0604C25.9416 17.769 25.9416 17.5747 25.9416 17.4776C25.9416 17.3804 25.8461 17.1862 25.8461 17.089C25.7506 16.9919 25.6551 16.8948 25.5596 16.7976C25.4641 16.7005 25.2731 16.7005 25.1777 16.6034C24.7002 16.5062 24.1273 16.4091 23.4588 16.4091C21.931 16.4091 20.8806 16.5062 20.4986 16.7005C20.3077 16.7976 20.1167 16.8948 20.0212 17.089C19.8302 17.2833 19.8302 17.3804 19.9257 17.3804C20.4031 17.4776 20.7851 17.6718 20.9761 17.9633L21.0716 18.1575C21.1671 18.2547 21.1671 18.4489 21.2625 18.7403C21.358 19.0317 21.358 19.3232 21.358 19.7117C21.358 20.2945 21.358 20.8773 21.358 21.2659C21.358 21.7516 21.2625 22.043 21.2625 22.3344C21.2625 22.6258 21.1671 22.82 21.0716 22.9172C20.9761 23.1115 20.9761 23.2086 20.8806 23.2086C20.8806 23.2086 20.8806 23.3057 20.7851 23.3057C20.6896 23.3057 20.5941 23.4029 20.4031 23.4029C20.3077 23.4029 20.1167 23.3057 20.0212 23.2086C19.8302 23.1115 19.6392 22.9172 19.5437 22.7229C19.3528 22.5286 19.1618 22.2372 18.9708 21.8487C18.7798 21.4601 18.4933 21.0716 18.3023 20.4888L18.1114 20.1003C18.0159 19.906 17.8249 19.5174 17.6339 19.0318C17.443 18.5461 17.252 18.1575 17.061 17.6719C16.9655 17.4776 16.87 17.3804 16.7745 17.2833H16.679C16.679 17.2833 16.5835 17.1862 16.488 17.1862C16.3925 17.1862 16.2971 17.089 16.2016 17.089H12.7639C12.382 17.089 12.191 17.1862 12.0955 17.2833L12 17.3804C12 17.3804 12 17.4776 12 17.5747C12 17.6719 12 17.769 12.0955 17.9633C12.5729 19.1289 13.1459 20.2945 13.7188 21.4601C14.2918 22.5286 14.8647 23.5 15.2467 24.18C15.7241 24.8599 16.1061 25.5399 16.5835 26.1227C17.061 26.7055 17.3474 27.094 17.4429 27.2883C17.6339 27.4826 17.7294 27.5797 17.8249 27.6768L18.1114 27.9682C18.3024 28.1625 18.5888 28.4539 18.9708 28.7453C19.3528 29.0367 19.8302 29.3281 20.3076 29.6195C20.7851 29.911 21.3581 30.1052 21.931 30.2995C22.5994 30.4938 23.1724 30.5909 23.7453 30.4938H25.1777C25.4641 30.4938 25.6551 30.3966 25.8461 30.2024L25.9416 30.1052C25.9416 30.0081 26.0371 30.0081 26.0371 29.911C26.0371 29.8138 26.0371 29.7167 26.0371 29.5224C26.0371 29.1339 26.0371 28.8425 26.1326 28.5511C26.228 28.2597 26.2281 28.0654 26.3235 27.8711C26.419 27.6768 26.5145 27.5797 26.61 27.4826C26.7055 27.3854 26.801 27.2883 26.801 27.2883H26.8965C27.0874 27.1912 27.3739 27.2883 27.5649 27.4826C27.8514 27.6768 28.1378 27.9682 28.3288 28.2597C28.5198 28.5511 28.8063 28.8425 29.1883 29.231C29.5702 29.6196 29.8567 29.911 30.0477 30.0081L30.3341 30.2024C30.5251 30.2995 30.7161 30.3966 31.0026 30.4938C31.289 30.5909 31.48 30.5909 31.671 30.5909L34.9177 30.4938C35.2041 30.4938 35.4906 30.3966 35.6816 30.2995C35.8726 30.2024 35.968 30.1052 35.968 29.911C35.968 29.8138 35.968 29.6196 35.968 29.5224C35.7771 29.3281 35.7771 29.231 35.7771 29.1339Z" fill="#277B97"/>
</svg>
