<svg width="45" height="45" viewBox="0 0 45 45" fill="none" xmlns="http://www.w3.org/2000/svg">
  <path d="M22.4991 0C10.0727 0 0 10.0727 0 22.4991C0 34.9255 10.0727 45 22.4991 45C34.9255 45 45 34.9273 45 22.4991C45 10.0708 34.9255 0 22.4991 0ZM36.0827 32.7413H32.9556C32.5363 32.7413 32.1357 32.5662 31.8524 32.2568C30.8759 31.1964 28.4719 28.6619 26.6567 27.3779C25.9747 26.8934 25.028 27.3742 25.0261 28.2072C25.0242 29.3123 25.0186 30.7436 25 31.6772C24.9907 32.2083 24.549 32.6295 24.016 32.6183C20.0373 32.5326 16.7443 31.748 12.6183 26.3902C9.57137 22.4338 8.27991 18.6303 7.76742 16.6195C7.57548 15.8703 8.14387 15.1454 8.91539 15.1454H12.568C13.0936 15.1454 13.5594 15.492 13.7048 15.9989C15.1137 20.9448 17.322 23.688 18.5557 24.9143C18.8949 25.2516 19.4707 25.0112 19.4707 24.5341V18.6862C19.4707 18.2426 19.3179 17.814 19.0365 17.4711L18.1644 16.4051C17.8345 15.8498 18.237 15.1472 18.8874 15.1472H24.1521C24.6739 15.1472 25.0969 15.5703 25.0969 16.0902V23.0097C25.0969 23.552 25.7492 23.8353 26.1405 23.4588C29.0775 20.6392 30.5479 17.1692 31.0529 15.7715C31.1908 15.3951 31.5468 15.1454 31.9474 15.1454H35.9262C36.6045 15.1454 37.0704 15.8349 36.8058 16.4611C35.546 19.4577 33.1886 22.6668 32.1487 24.0123C31.8692 24.3738 31.9102 24.8919 32.2475 25.2013C34.1614 26.953 35.9299 29.2173 37.076 30.8069C37.6593 31.6157 37.0779 32.7432 36.0827 32.7432V32.7413Z" fill="white" />
</svg>
