<svg width="48" height="48" viewBox="0 0 48 48" fill="none" xmlns="http://www.w3.org/2000/svg">
  <path d="M0 24C0 10.7452 10.7452 0 24 0C37.2548 0 48 10.7452 48 24C48 37.2548 37.2548 48 24 48C10.7452 48 0 37.2548 0 24Z" fill="#11627D" fill-opacity="0.08"/>
  <path d="M31.0732 16.9167C29.1916 15.0417 26.6829 14 24.0348 14C18.5296 14 14.0697 18.4444 14.0697 23.9306C14.0697 25.6667 14.5575 27.4028 15.3937 28.8611L14 34L19.2962 32.6111C20.7596 33.375 22.3624 33.7917 24.0348 33.7917C29.5401 33.7917 34 29.3472 34 23.8611C33.9303 21.2917 32.9547 18.7917 31.0732 16.9167ZM28.8432 27.4722C28.6341 28.0278 27.6585 28.5833 27.1707 28.6528C26.7526 28.7222 26.1951 28.7222 25.6376 28.5833C25.2892 28.4444 24.8014 28.3056 24.2439 28.0278C21.7352 26.9861 20.1324 24.4861 19.993 24.2778C19.8537 24.1389 18.9477 22.9583 18.9477 21.7083C18.9477 20.4583 19.5749 19.9028 19.784 19.625C19.993 19.3472 20.2718 19.3472 20.4808 19.3472C20.6202 19.3472 20.8293 19.3472 20.9686 19.3472C21.108 19.3472 21.3171 19.2778 21.5261 19.7639C21.7352 20.25 22.223 21.5 22.2927 21.5694C22.3624 21.7083 22.3624 21.8472 22.2927 21.9861C22.223 22.125 22.1533 22.2639 22.0139 22.4028C21.8746 22.5417 21.7352 22.75 21.6655 22.8194C21.5261 22.9583 21.3868 23.0972 21.5261 23.3056C21.6655 23.5833 22.1533 24.3472 22.9199 25.0417C23.8955 25.875 24.662 26.1528 24.9408 26.2917C25.2195 26.4306 25.3589 26.3611 25.4983 26.2222C25.6376 26.0833 26.1254 25.5278 26.2648 25.25C26.4042 24.9722 26.6132 25.0417 26.8223 25.1111C27.0314 25.1806 28.2857 25.8056 28.4948 25.9444C28.7735 26.0833 28.9129 26.1528 28.9826 26.2222C29.0523 26.4306 29.0523 26.9167 28.8432 27.4722Z" fill="#277B97"/>
</svg>
