<svg width="60" height="60" viewBox="0 0 60 60" fill="none" xmlns="http://www.w3.org/2000/svg">
<circle cx="30" cy="30" r="30" fill="currentColor"/>
<path d="M36.5322 20.4777C36.5322 22.0565 35.2316 23.3333 33.6243 23.3333C32.0169 23.3333 30.716 22.0565 30.716 20.4777C30.716 18.8988 32.0198 17.619 33.6243 17.619C35.2288 17.619 36.5322 18.8988 36.5322 20.4777ZM28.8752 21.4285C29.3231 23.6019 31.2806 25.238 33.6243 25.238C35.9679 25.238 37.9251 23.6019 38.373 21.4285H43.318C43.8549 21.4285 44.2874 21.0029 44.2874 20.4777C44.2874 19.9524 43.8549 19.5238 43.318 19.5238H38.373C37.9251 17.3503 35.9679 15.7142 33.6243 15.7142C31.2806 15.7142 29.3231 17.3503 28.8752 19.5238H18.114C17.5802 19.5238 17.1445 19.9493 17.1445 20.4777C17.1445 21.006 17.5802 21.4285 18.114 21.4285H28.8752ZM26.8382 30.0015C26.8382 31.5772 25.5376 32.8571 23.9302 32.8571C22.3229 32.8571 21.0219 31.5772 21.0219 30.0015C21.0219 28.4257 22.3257 27.1428 23.9302 27.1428C25.5347 27.1428 26.8382 28.4227 26.8382 30.0015ZM19.1812 30.9523C19.6323 33.1258 21.5866 34.7619 23.9302 34.7619C26.2739 34.7619 28.231 33.1258 28.679 30.9523H43.318C43.8549 30.9523 44.2874 30.5267 44.2874 30.0015C44.2874 29.4762 43.8549 29.0476 43.318 29.0476H28.679C28.231 26.8741 26.2771 25.238 23.9302 25.238C21.5834 25.238 19.6323 26.8741 19.1812 29.0476H18.114C17.5802 29.0476 17.1445 29.4732 17.1445 30.0015C17.1445 30.5298 17.5802 30.9523 18.114 30.9523H19.1812ZM40.41 39.5253C40.41 41.1011 39.1062 42.3809 37.5017 42.3809C35.8972 42.3809 34.5937 41.1011 34.5937 39.5253C34.5937 37.9496 35.8972 36.6666 37.5017 36.6666C39.1062 36.6666 40.41 37.9465 40.41 39.5253ZM32.753 40.4761C33.2009 42.6496 35.1548 44.2857 37.5017 44.2857C39.8485 44.2857 41.7996 42.6496 42.2507 40.4761H43.318C43.8549 40.4761 44.2874 40.0506 44.2874 39.5253C44.2874 39.0001 43.8549 38.5714 43.318 38.5714H42.2507C41.7996 36.398 39.8454 34.7619 37.5017 34.7619C35.158 34.7619 33.2009 36.398 32.753 38.5714H18.114C17.5802 38.5714 17.1445 38.997 17.1445 39.5253C17.1445 40.0536 17.5802 40.4761 18.114 40.4761H32.753Z" fill="white"/>
</svg>
