<svg width="20" height="20" viewBox="0 0 20 20" fill="none" xmlns="http://www.w3.org/2000/svg">
<path d="M18.777 17.0411L16.004 14.3233C17.1623 12.8905 17.8566 11.0817 17.8566 9.11581C17.8566 4.48317 14.0113 0.714355 9.28456 0.714355C4.55785 0.714355 0.712891 4.48317 0.712891 9.11542C0.712891 13.7477 4.55824 17.5165 9.28456 17.5165C10.8252 17.5165 12.2708 17.114 13.5214 16.414L16.4687 19.3026C17.1062 19.9274 18.1391 19.9274 18.7766 19.3026C19.414 18.6779 19.414 17.6655 18.7766 17.0407M3.08361 9.11542C3.08361 5.76428 5.86536 3.0375 9.28496 3.0375C12.7045 3.0375 15.4863 5.76389 15.4863 9.11542C15.4863 12.467 12.7045 15.1933 9.28496 15.1933C5.86536 15.1933 3.08361 12.467 3.08361 9.11542Z" fill="url(#paint0_linear_301_69848)"/>
<path d="M10.4741 5.07672H8.10339V7.95793H5.16406V10.2811H8.10339V13.1545H10.4737V10.2811H13.4055L13.4059 7.95754L10.4741 7.95793V5.07672Z" fill="url(#paint1_linear_301_69848)"/>
<defs>
<linearGradient id="paint0_linear_301_69848" x1="0.712891" y1="1.40316" x2="0.712891" y2="19.7712" gradientUnits="userSpaceOnUse">
<stop offset="0.0001" stop-color="#F0F8FC"/>
<stop offset="1" stop-color="white"/>
</linearGradient>
<linearGradient id="paint1_linear_301_69848" x1="5.16406" y1="5.36869" x2="5.16406" y2="13.1545" gradientUnits="userSpaceOnUse">
<stop offset="0.0001" stop-color="#F0F8FC"/>
<stop offset="1" stop-color="white"/>
</linearGradient>
</defs>
</svg>
