<svg width="29" height="20" viewBox="0 0 29 20" fill="none" xmlns="http://www.w3.org/2000/svg">
<path d="M19.52 1.24L21.128 15.976C21.224 16.84 21.392 18.184 22.424 18.52C23.12 18.736 23.744 18.736 23.984 18.736C24.104 18.736 24.176 18.76 24.176 18.856C24.176 19 23.96 19.072 23.672 19.072C23.336 19.072 22.232 19.072 21.224 19.072C20.6 19.072 20 19.096 19.664 19.072C19.112 19.024 18.92 18.976 18.92 18.784C18.92 18.688 19.088 18.64 19.208 18.616C19.328 18.592 19.304 18.088 19.256 17.656L18.104 5.272H18.032L12.152 17.752C11.648 18.808 11.576 19.024 11.36 19.024C11.192 19.024 11.072 18.784 10.616 17.92C9.992 16.744 7.928 12.592 7.808 12.352C7.592 11.92 4.904 6.16 4.64 5.512H4.544L3.584 16.648C3.56 17.032 3.56 17.464 3.56 17.872C3.56 18.232 3.824 18.544 4.184 18.616C4.592 18.712 4.952 18.736 5.096 18.736C5.192 18.736 5.288 18.784 5.288 18.856C5.288 19.024 5.144 19.072 4.856 19.072C3.968 19.072 2.816 19 2.624 19C2.408 19 1.256 19.072 0.608 19.072C0.368 19.072 0.2 19.024 0.2 18.856C0.2 18.784 0.32 18.736 0.44 18.736C0.632 18.736 0.8 18.736 1.16 18.664C1.952 18.52 2.024 17.584 2.12 16.672L3.848 1.024C3.896 0.759999 3.968 0.592 4.112 0.592C4.256 0.592 4.352 0.688 4.472 0.951999L11.816 16.048L18.872 0.975999C18.968 0.759999 19.064 0.592 19.232 0.592C19.4 0.592 19.472 0.783998 19.52 1.24ZM27.1713 19C26.2593 19 25.8753 18.28 25.8753 17.68C25.8753 17.128 26.2593 16.36 27.1953 16.36C27.9393 16.36 28.5153 16.84 28.5153 17.608C28.5153 18.376 27.9873 19 27.1713 19Z" fill="white"/>
</svg>
