<svg width="37" height="20" viewBox="0 0 37 20" fill="none" xmlns="http://www.w3.org/2000/svg">
<path d="M19.52 1.24L21.128 15.976C21.224 16.84 21.392 18.184 22.424 18.52C23.12 18.736 23.744 18.736 23.984 18.736C24.104 18.736 24.176 18.76 24.176 18.856C24.176 19 23.96 19.072 23.672 19.072C23.336 19.072 22.232 19.072 21.224 19.072C20.6 19.072 20 19.096 19.664 19.072C19.112 19.024 18.92 18.976 18.92 18.784C18.92 18.688 19.088 18.64 19.208 18.616C19.328 18.592 19.304 18.088 19.256 17.656L18.104 5.272H18.032L12.152 17.752C11.648 18.808 11.576 19.024 11.36 19.024C11.192 19.024 11.072 18.784 10.616 17.92C9.992 16.744 7.928 12.592 7.808 12.352C7.592 11.92 4.904 6.16 4.64 5.512H4.544L3.584 16.648C3.56 17.032 3.56 17.464 3.56 17.872C3.56 18.232 3.824 18.544 4.184 18.616C4.592 18.712 4.952 18.736 5.096 18.736C5.192 18.736 5.288 18.784 5.288 18.856C5.288 19.024 5.144 19.072 4.856 19.072C3.968 19.072 2.816 19 2.624 19C2.408 19 1.256 19.072 0.608 19.072C0.368 19.072 0.2 19.024 0.2 18.856C0.2 18.784 0.32 18.736 0.44 18.736C0.632 18.736 0.8 18.736 1.16 18.664C1.952 18.52 2.024 17.584 2.12 16.672L3.848 1.024C3.896 0.759999 3.968 0.592 4.112 0.592C4.256 0.592 4.352 0.688 4.472 0.951999L11.816 16.048L18.872 0.975999C18.968 0.759999 19.064 0.592 19.232 0.592C19.4 0.592 19.472 0.783998 19.52 1.24ZM34.2033 19H25.1073C24.9393 19 24.7713 18.856 24.7713 18.664C24.7713 18.472 25.0113 18.256 25.2033 18.088C30.0033 13.816 33.5793 10.504 33.5793 5.896C33.5793 2.464 31.3713 1.456 29.7633 1.456C28.6113 1.456 27.8913 1.72 27.1953 2.368C26.6193 2.92 26.3553 3.76 26.3553 4.696C26.3553 4.912 26.2593 5.056 26.1393 5.056C26.0433 5.056 25.9713 4.96 25.9473 4.744C25.9233 4.528 25.8033 2.536 25.8033 1.792C25.8033 1.648 25.8273 1.576 26.0433 1.432C26.9313 1.024 28.3233 0.592 30.2673 0.592C33.8913 0.592 35.6913 2.896 35.6913 5.44C35.6913 10.408 30.3153 14.848 27.3393 17.392C27.2193 17.488 27.2673 17.56 27.3873 17.56H29.1393C29.5473 17.56 32.3793 17.536 33.2433 17.44C34.9953 17.272 35.7633 16.408 36.0513 15.136C36.1233 14.872 36.1953 14.776 36.3393 14.776C36.4593 14.776 36.4833 14.992 36.4833 15.136C36.4833 15.592 36.0033 17.464 35.7633 18.28C35.5713 18.928 35.2113 19 34.2033 19Z" fill="#555555"/>
</svg>
