<svg width="40" height="40" viewBox="0 0 40 40" fill="none" xmlns="http://www.w3.org/2000/svg">
<path d="M0 20C0 8.95431 8.95431 0 20 0C31.0457 0 40 8.95431 40 20C40 31.0457 31.0457 40 20 40C8.95431 40 0 31.0457 0 20Z" fill="white"/>
<path d="M2 20C2 10.0589 10.0589 2 20 2C29.9411 2 38 10.0589 38 20C38 29.9411 29.9411 38 20 38C10.0589 38 2 29.9411 2 20Z" fill="#277B97"/>
<path d="M29.3269 23.7692C28.7418 23.7692 28.1679 23.5172 27.6672 23.0402C27.29 22.6811 26.6994 22.6813 26.3224 23.0404C25.822 23.5171 25.2483 23.7691 24.6633 23.7691C24.0783 23.7691 23.5046 23.5172 23.0039 23.0405C22.6271 22.6817 22.0366 22.6817 21.6596 23.0405C21.159 23.5172 20.5853 23.769 20.0003 23.769C19.4153 23.769 18.8413 23.517 18.3407 23.0402C17.9636 22.681 17.3729 22.6811 16.9958 23.0402C16.4955 23.517 15.9217 23.769 15.3367 23.769C14.7516 23.769 14.1777 23.517 13.6771 23.0402C13.2999 22.6809 12.7091 22.6809 12.3322 23.0402C11.8318 23.5172 11.258 23.7692 10.673 23.7692C10.3014 23.7692 10 24.0705 10 24.4422C10 24.814 10.3014 25.1153 10.6731 25.1153C11.5066 25.1153 12.3064 24.8145 13.0047 24.2417C13.7032 24.8145 14.5032 25.1153 15.3367 25.1153C16.1702 25.1153 16.9701 24.8145 17.6683 24.2417C18.3668 24.8145 19.1667 25.1153 20.0003 25.1153C20.8336 25.1153 21.6335 24.8146 22.3318 24.242C23.0301 24.8147 23.83 25.1153 24.6633 25.1153C25.4968 25.1153 26.2967 24.8145 26.9949 24.2417C27.6934 24.8145 28.4934 25.1153 29.3269 25.1153C29.6986 25.1153 30 24.814 30 24.4422C30 24.0705 29.6986 23.7692 29.3269 23.7692ZM29.3269 19.826C28.7418 19.826 28.1679 19.574 27.6671 19.0971C27.29 18.738 26.6993 18.7381 26.3223 19.0973C25.822 19.574 25.2482 19.826 24.6633 19.826C24.0783 19.826 23.5045 19.5741 23.0039 19.0974C22.627 18.7387 22.0365 18.7387 21.6595 19.0974C21.159 19.5741 20.5852 19.826 20.0003 19.826C19.4152 19.826 18.8413 19.574 18.3406 19.0971C17.9635 18.738 17.3729 18.738 16.9958 19.0972C16.4954 19.574 15.9217 19.826 15.3366 19.826C14.7516 19.826 14.1776 19.5739 13.677 19.0971C13.2999 18.7379 12.7092 18.738 12.3322 19.0971C11.8317 19.574 11.258 19.826 10.673 19.826C10.3014 19.826 10 20.1274 10 20.4991C10 20.8708 10.3014 21.1722 10.6731 21.1722C11.5066 21.1722 12.3064 20.8713 13.0047 20.2985C13.7032 20.8713 14.5032 21.1722 15.3367 21.1722C16.1702 21.1722 16.9701 20.8713 17.6683 20.2985C18.3667 20.8713 19.1668 21.1722 20.0003 21.1722C20.8336 21.1722 21.6335 20.8714 22.3318 20.2989C23.0301 20.8715 23.83 21.1722 24.6633 21.1722C25.4968 21.1722 26.2967 20.8713 26.9949 20.2985C27.6933 20.8713 28.4934 21.1722 29.3269 21.1722C29.6986 21.1722 30 20.8708 30 20.4991C30 20.1274 29.6986 19.826 29.3269 19.826ZM29.327 15.8829C28.7419 15.8829 28.168 15.6309 27.6672 15.1539C27.2901 14.7949 26.6996 14.795 26.3224 15.1541C25.8221 15.6309 25.2483 15.8829 24.6634 15.8829C24.0784 15.8829 23.5047 15.631 23.004 15.1542C22.6271 14.7956 22.0367 14.7955 21.6597 15.1543C21.1591 15.631 20.5853 15.8829 20.0004 15.8829C19.4153 15.8829 18.8414 15.6308 18.3407 15.154C17.9636 14.7949 17.373 14.795 16.9959 15.1541C16.4955 15.6308 15.9217 15.8829 15.3368 15.8829C14.7517 15.8829 14.1778 15.6308 13.6771 15.154C13.3 14.7948 12.7093 14.7949 12.3323 15.1541C11.8318 15.6308 11.2581 15.8828 10.6731 15.8828C10.3014 15.8829 10 16.1843 10 16.556C10 16.9277 10.3014 17.2291 10.6731 17.2291C11.5066 17.2291 12.3064 16.9283 13.0047 16.3555C13.7032 16.9283 14.5032 17.2291 15.3367 17.2291C16.1702 17.2291 16.9701 16.9282 17.6683 16.3555C18.3667 16.9282 19.1668 17.2291 20.0003 17.2291C20.8336 17.2291 21.6335 16.9283 22.3318 16.3558C23.0301 16.9283 23.83 17.2291 24.6633 17.2291C25.4968 17.2291 26.2967 16.9282 26.9949 16.3554C27.6934 16.9282 28.4934 17.2291 29.3269 17.2291C29.6986 17.2291 30 16.9277 30 16.556C30 16.1843 29.6986 15.8829 29.327 15.8829Z" fill="white"/>
</svg>
