<svg width="60" height="61" viewBox="0 0 60 61" fill="none" xmlns="http://www.w3.org/2000/svg">
<rect x="1.5" y="1.75" width="57" height="57" rx="28.5" fill="#FD7628"/>
<rect x="1.5" y="1.75" width="57" height="57" rx="28.5" stroke="white" stroke-width="3"/>
<path d="M42 20.801V19.4972C39.2641 18.628 36.5408 17.5984 33.6607 19.3537C28.2651 22.5943 23.3998 16.0879 18.0042 19.2862V23.0457C22.7296 18.0373 29.3595 23.1259 33.6607 19.5352C33.6607 20.5183 33.6607 22.2694 33.6607 23.147C31.2683 22.3959 28.8717 21.801 26.3563 23.3327C23.4761 25.0626 20.7444 24.0162 18.0042 23.1512V24.6998C21.0244 24.8643 24.0318 25.4593 26.3563 23.5183V27.1302C23.6161 26.2609 20.8887 25.223 18.0042 26.9698V30.7631C22.7338 25.6407 29.4019 30.7926 33.7243 27.1808V30.7884C31.315 30.0247 28.8929 29.4087 26.3563 30.953C23.4719 32.6872 20.7444 31.6365 18.0042 30.7715V32.3159C21.0244 32.4804 24.0276 33.0753 26.3563 31.1302V34.7462C23.6161 33.8813 20.8844 32.8222 18.0042 34.5311V38.2948C22.7296 33.2821 29.3595 38.3708 33.6607 34.78C33.6607 35.7631 33.6607 37.51 33.6607 38.3876C31.2768 37.6366 28.8802 37.0501 26.369 38.5775C23.4804 40.3117 20.7487 39.2568 18 38.3876V39.9404C21.0244 40.1049 24.0361 40.7041 26.369 38.7589V42.375C31.0647 37.2695 37.6691 42.3117 42 38.8644V38.6577C39.1241 40.3201 36.4008 39.2484 33.6649 38.3876C36.1209 35.7209 39.0986 35.8306 42 36.0458V34.742C39.2641 33.8728 36.5408 32.8433 33.6607 34.5986C31.1453 36.1091 28.7444 35.5015 26.3563 34.7462C31.0562 29.6365 37.6734 34.6956 42 31.223V31.0205C39.1453 32.6787 36.4433 31.645 33.7285 30.7842C36.1676 28.1386 39.1198 28.223 42 28.4382V27.1175C39.2853 26.2567 36.579 25.2525 33.7243 26.9951C31.1877 28.5184 28.7699 27.8897 26.3563 27.1259C31.0562 22.0204 37.6734 27.0753 42 23.6069V23.4044C39.1241 25.0753 36.4008 24.012 33.6607 23.147C36.1166 20.4803 39.0944 20.5858 42 20.801Z" fill="white"/>
</svg>
