<svg width="60" height="61" viewBox="0 0 60 61" fill="none" xmlns="http://www.w3.org/2000/svg">
<rect x="1.5" y="1.75" width="57" height="57" rx="28.5" fill="#D36281"/>
<rect x="1.5" y="1.75" width="57" height="57" rx="28.5" stroke="white" stroke-width="3"/>
<path d="M43 20.801V19.4972C40.2641 18.628 37.5408 17.5984 34.6607 19.3537C29.2651 22.5943 24.3998 16.0879 19.0042 19.2862V23.0457C23.7296 18.0373 30.3595 23.1259 34.6607 19.5352C34.6607 20.5183 34.6607 22.2694 34.6607 23.147C32.2683 22.3959 29.8717 21.801 27.3563 23.3327C24.4761 25.0626 21.7444 24.0162 19.0042 23.1512V24.6998C22.0244 24.8643 25.0318 25.4593 27.3563 23.5183V27.1302C24.6161 26.2609 21.8887 25.223 19.0042 26.9698V30.7631C23.7338 25.6407 30.4019 30.7926 34.7243 27.1808V30.7884C32.315 30.0247 29.8929 29.4087 27.3563 30.953C24.4719 32.6872 21.7444 31.6365 19.0042 30.7715V32.3159C22.0244 32.4804 25.0276 33.0753 27.3563 31.1302V34.7462C24.6161 33.8813 21.8844 32.8222 19.0042 34.5311V38.2948C23.7296 33.2821 30.3595 38.3708 34.6607 34.78C34.6607 35.7631 34.6607 37.51 34.6607 38.3876C32.2768 37.6366 29.8802 37.0501 27.369 38.5775C24.4804 40.3117 21.7487 39.2568 19 38.3876V39.9404C22.0244 40.1049 25.0361 40.7041 27.369 38.7589V42.375C32.0647 37.2695 38.6691 42.3117 43 38.8644V38.6577C40.1241 40.3201 37.4008 39.2484 34.6649 38.3876C37.1209 35.7209 40.0986 35.8306 43 36.0458V34.742C40.2641 33.8728 37.5408 32.8433 34.6607 34.5986C32.1453 36.1091 29.7444 35.5015 27.3563 34.7462C32.0562 29.6365 38.6734 34.6956 43 31.223V31.0205C40.1453 32.6787 37.4433 31.645 34.7285 30.7842C37.1676 28.1386 40.1198 28.223 43 28.4382V27.1175C40.2853 26.2567 37.579 25.2525 34.7243 26.9951C32.1877 28.5184 29.7699 27.8897 27.3563 27.1259C32.0562 22.0204 38.6734 27.0753 43 23.6069V23.4044C40.1241 25.0753 37.4008 24.012 34.6607 23.147C37.1166 20.4803 40.0944 20.5858 43 20.801Z" fill="white"/>
</svg>
