<svg width="40" height="40" viewBox="0 0 40 40" fill="none" xmlns="http://www.w3.org/2000/svg">
<path d="M0 20C0 8.95431 8.95431 0 20 0C31.0457 0 40 8.95431 40 20C40 31.0457 31.0457 40 20 40C8.95431 40 0 31.0457 0 20Z" fill="white"/>
<path d="M2 20C2 10.0589 10.0589 2 20 2C29.9411 2 38 10.0589 38 20C38 29.9411 29.9411 38 20 38C10.0589 38 2 29.9411 2 20Z" fill="#277B97"/>
<path d="M21.7588 11.7587C21.7588 10.7889 20.9699 10 20.0001 10C19.0303 10 18.2414 10.7889 18.2414 11.7587C18.2414 14.6025 17.1195 17.4088 15.1977 19.458H24.8026C22.8808 17.4088 21.7588 14.6025 21.7588 11.7587ZM14.0432 25.3204L15.0028 25.6404C16.5612 26.1659 17.7823 27.3539 18.3525 28.8991C18.5992 29.5677 19.2462 30 20.0001 30H20.0007C20.7541 30 21.4011 29.5683 21.6478 28.8996C22.2198 27.3482 23.4472 26.1585 25.0176 25.6336L25.957 25.3204H14.0432ZM27.035 20.6305H12.9653C11.9939 20.6305 11.2065 21.4179 11.2065 22.3892C11.2065 23.3605 11.9939 24.1479 12.9653 24.1479H27.035C28.0063 24.1479 28.7937 23.3605 28.7937 22.3892C28.7937 21.4179 28.0063 20.6305 27.035 20.6305Z" fill="white"/>
</svg>
