<svg width="40" height="40" viewBox="0 0 40 40" fill="none" xmlns="http://www.w3.org/2000/svg">
<path d="M0 20C0 8.95431 8.95431 0 20 0C31.0457 0 40 8.95431 40 20C40 31.0457 31.0457 40 20 40C8.95431 40 0 31.0457 0 20Z" fill="white"/>
<path d="M2 20C2 10.0589 10.0589 2 20 2C29.9411 2 38 10.0589 38 20C38 29.9411 29.9411 38 20 38C10.0589 38 2 29.9411 2 20Z" fill="#277B97"/>
<g clip-path="url(#clip0_5421_53895)">
<path d="M18.8313 20.4875C18.9128 19.8849 19.2095 19.3321 19.6667 18.9312C20.1239 18.5303 20.7107 18.3083 21.3188 18.3063H25.2626L24.8813 15.4C24.8001 14.775 24.2626 14.3062 23.6376 14.3062H22.0876V14C22.0876 12.1375 20.5126 10.625 18.5813 10.625C16.6501 10.625 15.0751 12.1375 15.0751 14V14.3062H13.5251C12.8938 14.3062 12.3563 14.775 12.2751 15.4L10.6313 27.9562C10.5813 28.3125 10.6938 28.675 10.9313 28.95C11.1688 29.2188 11.5126 29.375 11.8751 29.375H17.8751C17.7751 29.1 17.7438 28.8 17.7813 28.5063L18.8313 20.4875ZM16.3251 14.3062V14C16.3251 12.825 17.3376 11.875 18.5813 11.875C19.8251 11.875 20.8376 12.8312 20.8376 14V14.3062H16.3251Z" fill="white"/>
<path d="M29.3686 27.9563L28.4124 20.6562C28.3311 20.0312 27.7936 19.5625 27.1686 19.5625H21.3186C20.6874 19.5625 20.1561 20.0312 20.0749 20.6562L19.0249 28.675C18.9999 28.8562 19.0561 29.0313 19.1749 29.1688C19.2936 29.3063 19.4624 29.3813 19.6436 29.3813H28.1249C28.3037 29.3818 28.4805 29.344 28.6434 29.2705C28.8064 29.1969 28.9517 29.0893 29.0695 28.9548C29.1874 28.8204 29.2751 28.6623 29.3267 28.4911C29.3783 28.3199 29.3926 28.1397 29.3686 27.9625V27.9563ZM26.4811 22.65V23.6125C26.4811 24.8063 25.4811 25.775 24.2436 25.775C23.0061 25.775 22.0061 24.8063 22.0061 23.6125V22.65C21.9124 22.525 21.8436 22.375 21.8436 22.2063C21.8436 21.775 22.1936 21.4313 22.6311 21.4313C23.0686 21.4313 23.4186 21.7813 23.4186 22.2063C23.4186 22.375 23.3499 22.525 23.2561 22.65V23.6125C23.2561 24.1125 23.6999 24.525 24.2436 24.525C24.7874 24.525 25.2311 24.1125 25.2311 23.6125V22.65C25.1374 22.525 25.0686 22.375 25.0686 22.2063C25.0686 21.775 25.4186 21.4313 25.8561 21.4313C26.2936 21.4313 26.6436 21.7813 26.6436 22.2063C26.6436 22.375 26.5749 22.525 26.4811 22.65Z" fill="white"/>
</g>
<defs>
<clipPath id="clip0_5421_53895">
<rect width="20" height="20" fill="white" transform="translate(10 10)"/>
</clipPath>
</defs>
</svg>
