<svg width="40" height="40" viewBox="0 0 40 40" fill="none" xmlns="http://www.w3.org/2000/svg">
<path d="M0 20C0 8.95431 8.95431 0 20 0C31.0457 0 40 8.95431 40 20C40 31.0457 31.0457 40 20 40C8.95431 40 0 31.0457 0 20Z" fill="white"/>
<path d="M2 20C2 10.0589 10.0589 2 20 2C29.9411 2 38 10.0589 38 20C38 29.9411 29.9411 38 20 38C10.0589 38 2 29.9411 2 20Z" fill="#277B97"/>
<g clip-path="url(#clip0_5421_53886)">
<path d="M27.9168 16.6667H23.3335V12.0833C23.3335 11.3942 22.7727 10.8333 22.0835 10.8333H17.9168C17.2277 10.8333 16.6668 11.3942 16.6668 12.0833V16.6667H12.0835C11.3943 16.6667 10.8335 17.2275 10.8335 17.9167V22.0833C10.8335 22.7725 11.3943 23.3333 12.0835 23.3333H16.6668V27.9167C16.6668 28.6058 17.2277 29.1667 17.9168 29.1667H22.0835C22.7727 29.1667 23.3335 28.6058 23.3335 27.9167V23.3333H27.9168C28.606 23.3333 29.1668 22.7725 29.1668 22.0833V17.9167C29.1668 17.2275 28.606 16.6667 27.9168 16.6667Z" fill="white"/>
</g>
<defs>
<clipPath id="clip0_5421_53886">
<rect width="20" height="20" fill="white" transform="translate(10 10)"/>
</clipPath>
</defs>
</svg>
