<svg width="40" height="40" viewBox="0 0 40 40" fill="none" xmlns="http://www.w3.org/2000/svg">
<path d="M0 20C0 8.95431 8.95431 0 20 0C31.0457 0 40 8.95431 40 20C40 31.0457 31.0457 40 20 40C8.95431 40 0 31.0457 0 20Z" fill="white"/>
<path d="M2 20C2 10.0589 10.0589 2 20 2C29.9411 2 38 10.0589 38 20C38 29.9411 29.9411 38 20 38C10.0589 38 2 29.9411 2 20Z" fill="#277B97"/>
<path d="M27.7785 13.6812C27.7593 13.6136 27.7174 13.5548 27.66 13.5144C27.6025 13.474 27.5329 13.4545 27.4629 13.4593C19.9232 13.6799 14.7326 18.6024 13.9879 25.1218C13.9852 25.1798 13.9986 25.2375 14.0265 25.2884C14.0544 25.3394 14.0957 25.3817 14.1461 25.4107C14.1964 25.4398 14.2537 25.4544 14.3118 25.453C14.3699 25.4517 14.4265 25.4344 14.4754 25.4031L21.4754 20.6999C19.9309 23.0692 17.8861 25.0714 15.4847 26.5656C14.4162 27.2184 13.2765 27.7468 12.0879 28.1406C12.0104 28.1677 11.9467 28.2241 11.9105 28.2978C11.8743 28.3714 11.8685 28.4564 11.8943 28.5342C11.9201 28.6121 11.9755 28.6768 12.0486 28.7142C12.1216 28.7516 12.2064 28.7588 12.2847 28.7343C13.4647 28.3418 14.5985 27.8221 15.666 27.1843C18.6129 28.7437 21.8004 27.4781 21.9379 27.4218C30.6754 23.8093 27.8097 13.7812 27.7785 13.6812Z" fill="white"/>
<path d="M13.8098 22.8281C14.5747 20.103 16.172 17.6851 18.3785 15.9124C18.0338 13.9659 16.6866 11.8193 14.8598 11.2656C14.8086 11.249 14.7541 11.246 14.7015 11.257C14.6488 11.2679 14.6 11.2924 14.5598 11.3281C12.4023 13.2043 9.86038 18.4371 13.8098 22.8281Z" fill="white"/>
</svg>
