<svg width="40" height="40" viewBox="0 0 40 40" fill="none" xmlns="http://www.w3.org/2000/svg">
<path d="M0 20C0 8.95431 8.95431 0 20 0C31.0457 0 40 8.95431 40 20C40 31.0457 31.0457 40 20 40C8.95431 40 0 31.0457 0 20Z" fill="white"/>
<path d="M2 20C2 10.0589 10.0589 2 20 2C29.9411 2 38 10.0589 38 20C38 29.9411 29.9411 38 20 38C10.0589 38 2 29.9411 2 20Z" fill="#277B97"/>
<g clip-path="url(#clip0_5421_53898)">
<path d="M29.9382 23.5308C29.8615 23.4083 29.7274 23.3333 29.5832 23.3333H10.4166C10.2724 23.3333 10.1383 23.4083 10.0624 23.5308C10.025 23.5911 10.0036 23.66 10.0004 23.7309C9.99722 23.8018 10.0122 23.8724 10.0441 23.9358C10.6291 25.1066 11.8049 25.8333 13.1132 25.8333H26.8865C28.194 25.8333 29.3699 25.1066 29.9565 23.9366C30.0199 23.8066 30.0141 23.6541 29.9382 23.5308ZM21.1424 15.0866C21.2107 14.9325 21.2499 14.7625 21.2499 14.5833C21.2499 13.8941 20.6891 13.3333 19.9999 13.3333C19.3107 13.3333 18.7499 13.8941 18.7499 14.5833C18.7499 14.7625 18.7891 14.9325 18.8574 15.0866C15.0816 15.6058 12.0999 18.6458 11.7174 22.5H28.2816C27.8991 18.6475 24.9166 15.6058 21.1424 15.0866Z" fill="white"/>
</g>
<defs>
<clipPath id="clip0_5421_53898">
<rect width="20" height="20" fill="white" transform="translate(10 10)"/>
</clipPath>
</defs>
</svg>
