<svg width="40" height="40" viewBox="0 0 40 40" fill="none" xmlns="http://www.w3.org/2000/svg">
<path d="M0 20C0 8.95431 8.95431 0 20 0C31.0457 0 40 8.95431 40 20C40 31.0457 31.0457 40 20 40C8.95431 40 0 31.0457 0 20Z" fill="white"/>
<path d="M2 20C2 10.0589 10.0589 2 20 2C29.9411 2 38 10.0589 38 20C38 29.9411 29.9411 38 20 38C10.0589 38 2 29.9411 2 20Z" fill="#277B97"/>
<g clip-path="url(#clip0_5421_53880)">
<path d="M13.0594 12.3601H13.0578C12.9646 12.3599 12.8723 12.3782 12.7863 12.4138C12.7002 12.4495 12.6221 12.5018 12.5563 12.5679C12.4893 12.6344 12.4362 12.7135 12.4001 12.8007C12.3639 12.8879 12.3454 12.9814 12.3457 13.0758V23.8075C12.3457 24.201 12.6671 24.522 13.0623 24.523C14.7281 24.527 17.5191 24.8742 19.4445 26.8891V15.658C19.4445 15.5246 19.4104 15.3993 19.3461 15.2956C17.7659 12.7507 14.7291 12.364 13.0594 12.3601ZM27.6544 23.8075V13.0757C27.6544 12.8837 27.5796 12.7033 27.4438 12.5678C27.3781 12.5018 27.3 12.4494 27.2139 12.4138C27.1279 12.3781 27.0356 12.3599 26.9425 12.36H26.9407C25.2711 12.364 22.2344 12.7507 20.654 15.2956C20.5897 15.3993 20.5557 15.5246 20.5557 15.658V26.889C22.4811 24.8741 25.2721 24.5269 26.9379 24.5229C27.333 24.5219 27.6544 24.201 27.6544 23.8075Z" fill="white"/>
<path d="M29.2844 14.835H28.7655V23.8075C28.7655 24.8123 27.9469 25.6316 26.9405 25.6341C25.5275 25.6375 23.1977 25.9138 21.5476 27.4755C24.4014 26.7767 27.4098 27.2309 29.1242 27.6217C29.2293 27.6459 29.3384 27.646 29.4435 27.6221C29.5486 27.5981 29.6469 27.5507 29.731 27.4833C29.8152 27.4165 29.8831 27.3315 29.9296 27.2347C29.9762 27.1379 30.0003 27.0318 30 26.9243V15.5506C30.0001 15.156 29.679 14.835 29.2844 14.835ZM11.2345 23.8075V14.835H10.7156C10.3211 14.835 10 15.156 10 15.5506V26.9241C10 27.143 10.098 27.3468 10.269 27.4831C10.3531 27.5505 10.4514 27.598 10.5565 27.6219C10.6616 27.6459 10.7707 27.6457 10.8758 27.6214C12.5902 27.2307 15.5987 26.7765 18.4523 27.4753C16.8023 25.9136 14.4725 25.6374 13.0595 25.634C12.0532 25.6316 11.2345 24.8123 11.2345 23.8075Z" fill="white"/>
</g>
<defs>
<clipPath id="clip0_5421_53880">
<rect width="20" height="20" fill="white" transform="translate(10 10)"/>
</clipPath>
</defs>
</svg>
