<svg width="40" height="40" viewBox="0 0 40 40" fill="none" xmlns="http://www.w3.org/2000/svg">
<path d="M0 20C0 8.95431 8.95431 0 20 0C31.0457 0 40 8.95431 40 20C40 31.0457 31.0457 40 20 40C8.95431 40 0 31.0457 0 20Z" fill="white"/>
<path d="M2 20C2 10.0589 10.0589 2 20 2C29.9411 2 38 10.0589 38 20C38 29.9411 29.9411 38 20 38C10.0589 38 2 29.9411 2 20Z" fill="#277B97"/>
<g clip-path="url(#clip0_5421_53889)">
<path d="M12.1719 20.2197C11.9599 20.3533 12.0173 20.3171 10.4704 21.864C9.8432 22.4912 9.8432 23.5117 10.4704 24.1388L11.9675 25.6359L11.2412 26.3621C10.7678 26.8356 10.7678 27.6059 11.2413 28.0795L12.2512 29.0893C12.7257 29.5639 13.494 29.564 13.9686 29.0893L14.6948 28.3632L15.8612 29.5296C16.4883 30.1567 17.5089 30.1568 18.1361 29.5296C19.7019 27.9637 19.6502 28.0347 19.7803 27.828L12.1719 20.2197ZM29.5296 15.8611L28.0325 14.3641L28.7588 13.6379C29.2322 13.1644 29.2322 12.394 28.7587 11.9205L27.7488 10.9106C27.2743 10.436 26.5061 10.4359 26.0315 10.9106L25.3053 11.6368L24.1388 10.4704C23.5116 9.84319 22.4911 9.84319 21.864 10.4704C20.2981 12.0363 20.3499 11.9652 20.2197 12.172L27.828 19.7803C28.0401 19.6467 27.9827 19.6829 29.5296 18.136C30.1568 17.5088 30.1568 16.4883 29.5296 15.8611ZM15.633 21.9141L21.912 15.6351L24.395 18.1182L18.1161 24.3972L15.633 21.9141Z" fill="white"/>
</g>
<defs>
<clipPath id="clip0_5421_53889">
<rect width="20" height="20" fill="white" transform="translate(10 10)"/>
</clipPath>
</defs>
</svg>
