<svg width="40" height="40" viewBox="0 0 40 40" fill="none" xmlns="http://www.w3.org/2000/svg">
<path d="M0 20C0 8.95431 8.95431 0 20 0C31.0457 0 40 8.95431 40 20C40 31.0457 31.0457 40 20 40C8.95431 40 0 31.0457 0 20Z" fill="white"/>
<path d="M2 20C2 10.0589 10.0589 2 20 2C29.9411 2 38 10.0589 38 20C38 29.9411 29.9411 38 20 38C10.0589 38 2 29.9411 2 20Z" fill="#277B97"/>
<g clip-path="url(#clip0_5408_37958)">
<path fill-rule="evenodd" clip-rule="evenodd" d="M27.2141 25.5469C27.1042 26.1171 26.6166 26.5196 26.0359 26.5194H14.1752C13.8761 26.5194 13.6037 26.6422 13.4058 26.8401C13.2079 27.0379 13.0851 27.3104 13.0851 27.6094C13.0851 27.9086 13.2079 28.181 13.4058 28.3788C13.6037 28.5767 13.8761 28.6995 14.1752 28.6995H27.3837C27.7427 28.6995 28.0337 28.9906 28.0337 29.3496C28.0337 29.7086 27.7427 29.9996 27.3837 29.9996H14.1752C13.5173 29.9996 12.9196 29.7309 12.4867 29.298C12.0538 28.8652 11.7851 28.2675 11.7851 27.6095C11.7851 26.9516 12.0538 26.3539 12.4867 25.921C12.638 25.7696 12.8088 25.6391 12.9946 25.5329L10.0125 10.826C9.94231 10.4754 10.1697 10.1344 10.5203 10.0643C10.8709 9.99413 11.2119 10.2215 11.282 10.5721L12.2926 15.5557H27.687C28.0575 15.5556 28.3764 15.7059 28.6122 15.9915C28.8481 16.2772 28.9352 16.6187 28.8651 16.9824L27.2141 25.5469ZM23.4172 22.7088V19.1182C23.4172 18.7509 23.7149 18.4532 24.0821 18.4532C24.4494 18.4532 24.7471 18.7509 24.7471 19.1182V22.7088C24.7471 23.0761 24.4494 23.3737 24.0821 23.3737C23.7149 23.3737 23.4172 23.0761 23.4172 22.7088ZM19.6271 23.7063V18.1208C19.6271 17.7535 19.9248 17.4558 20.292 17.4558C20.6593 17.4558 20.957 17.7535 20.957 18.1208V23.7063C20.957 24.0735 20.6593 24.3712 20.292 24.3712C19.9248 24.3712 19.6271 24.0735 19.6271 23.7063ZM15.837 22.7088V19.1182C15.837 18.7509 16.1347 18.4532 16.5019 18.4532C16.8691 18.4532 17.1668 18.7509 17.1668 19.1182V22.7088C17.1668 23.0761 16.8691 23.3737 16.5019 23.3737C16.1346 23.3737 15.837 23.0761 15.837 22.7088Z" fill="white"/>
</g>
<defs>
<clipPath id="clip0_5408_37958">
<rect width="20" height="20" fill="white" transform="translate(10 10)"/>
</clipPath>
</defs>
</svg>
