<svg width="34" height="35" viewBox="0 0 34 35" fill="none" xmlns="http://www.w3.org/2000/svg">
  <path d="M34 3.45502V1.59818C30.1241 0.360285 26.2662 -1.10596 22.1859 1.39387C14.5422 6.00892 7.6497 -3.25725 0.00600919 1.29772V6.65191C6.70025 -0.481002 16.0926 6.76608 22.1859 1.65226C22.1859 3.0524 22.1859 5.54622 22.1859 6.79613C18.7967 5.72649 15.4016 4.8792 11.8381 7.06053C7.75787 9.5243 3.88795 8.03402 0.00600919 6.80214V9.00751C4.28455 9.24187 8.54507 10.0892 11.8381 7.32494V12.4688C7.95617 11.2309 4.09226 9.75265 0.00600919 12.2405V17.6427C6.70626 10.3476 16.1527 17.6848 22.2761 12.5409V17.6788C18.8628 16.5911 15.4316 15.7138 11.8381 17.9131C7.75186 20.3829 3.88795 18.8866 0.00600919 17.6547V19.8541C4.28455 20.0885 8.53906 20.9358 11.8381 18.1655V23.3154C7.95617 22.0835 4.08625 20.5752 0.00600919 23.0089V28.3691C6.70025 21.2302 16.0926 28.4773 22.1859 23.3635C22.1859 24.7636 22.1859 27.2514 22.1859 28.5013C18.8088 27.4317 15.4136 26.5964 11.8561 28.7717C7.76387 31.2415 3.89396 29.7392 0 28.5013V30.7127C4.28455 30.9471 8.55108 31.8004 11.8561 29.0301V34.18C18.5083 26.9089 27.8646 34.0899 34 29.1804V28.8859C29.9258 31.2535 26.0679 29.7272 22.1919 28.5013C25.6713 24.7035 29.8897 24.8598 34 25.1662V23.3094C30.1241 22.0715 26.2662 20.6052 22.1859 23.1051C18.6225 25.2564 15.2213 24.391 11.8381 23.3154C18.4963 16.0383 27.8706 23.2433 34 18.2977V18.0093C29.9558 20.3709 26.128 18.8986 22.2821 17.6728C25.7374 13.905 29.9198 14.0252 34 14.3317V12.4508C30.1541 11.2249 26.3203 9.79471 22.2761 12.2765C18.6826 14.4458 15.2573 13.5505 11.8381 12.4628C18.4963 5.19167 27.8706 12.3907 34 7.45113V7.16269C29.9258 9.54233 26.0679 8.02801 22.1859 6.79613C25.6653 2.99832 29.8837 3.14855 34 3.45502Z" fill="#F47422" />
</svg>
